<?xml version="1.0" encoding="UTF-8"?>
<!-- Generated by Pixelmator Pro 3.6.8 -->
<svg width="800" height="800" viewBox="0 0 800 800" xmlns="http://www.w3.org/2000/svg">
    <g id="Page-1">
        <g id="add">
            <path id="configuration" fill="#ffffff" fill-rule="evenodd" stroke="none" d="M 366.67334 133.32666 L 366.666656 466.666656 L 333.333344 466.666656 L 333.333344 533.333374 L 366.666656 533.333374 L 366.67334 666.660034 L 433.339996 666.660034 L 433.333344 533.333374 L 466.666656 533.333374 L 466.666656 466.666656 L 433.333344 466.666656 L 433.339996 133.32666 L 366.67334 133.32666 Z M 166.66333 133.32666 L 166.66333 266.693359 L 133.330002 266.693359 L 133.330002 333.32666 L 166.66333 333.32666 L 166.66333 666.660034 L 233.330002 666.660034 L 233.330002 333.32666 L 266.66333 333.32666 L 266.66333 266.693359 L 233.330002 266.693359 L 233.330002 133.32666 L 166.66333 133.32666 Z M 566.633362 133.333313 L 566.633362 333.333344 L 533.299988 333.333344 L 533.320007 399.993347 L 566.65332 399.993347 L 566.65332 666.660034 L 633.353333 666.660034 L 633.353333 399.993347 L 666.686646 399.993347 L 666.666687 333.333344 L 633.333313 333.333344 L 633.353333 133.32666 L 566.633362 133.333313 Z"/>
        </g>
    </g>
</svg>
