<?xml version="1.0" encoding="UTF-8"?>
<!-- Generated by Pixelmator Pro 3.6.8 -->
<svg width="800" height="800" viewBox="0 0 800 800" xmlns="http://www.w3.org/2000/svg">
    <g id="24Container">
        <path id="Path" fill="#ffffff" stroke="none" d="M 150 575 C 136.192886 575 125 563.807129 125 550 L 125 300 C 125 286.192871 136.192886 275 150 275 C 163.807114 275 175 286.192871 175 300 L 175 550 C 175 563.807129 163.807114 575 150 575 Z"/>
        <path id="path1" fill="#ffffff" stroke="none" d="M 275 575 C 261.192871 575 250 563.807129 250 550 L 250 300 C 250 286.192871 261.192871 275 275 275 C 288.807129 275 300 286.192871 300 300 L 300 550 C 300 563.807129 288.807129 575 275 575 Z"/>
        <path id="path2" fill="#ffffff" stroke="none" d="M 400 575 C 386.192871 575 375 563.807129 375 550 L 375 300 C 375 286.192871 386.192871 275 400 275 C 413.807098 275 425 286.192871 425 300 L 425 550 C 425 563.807129 413.807098 575 400 575 Z"/>
        <path id="path3" fill="#ffffff" stroke="none" d="M 525 575 C 511.192902 575 500 563.807129 500 550 L 500 300 C 500 286.192871 511.192902 275 525 275 C 538.807129 275 550 286.192871 550 300 L 550 550 C 550 563.807129 538.807129 575 525 575 Z"/>
        <path id="path4" fill="#ffffff" stroke="none" d="M 650 575 C 636.192871 575 625 563.807129 625 550 L 625 300 C 625 286.192871 636.192871 275 650 275 C 663.807129 275 675 286.192871 675 300 L 675 550 C 675 563.807129 663.807129 575 650 575 Z"/>
        <path id="path5" fill="#ffffff" stroke="none" d="M 775 625 L 775 225 C 788.807129 225 800 213.807129 800 200 C 800 186.192871 788.807129 175 775 175 L 675 175 L 675 150 C 675 136.192871 663.807129 125 650 125 C 636.192871 125 625 136.192871 625 150 L 625 175 L 150 175 L 150 150 C 150 136.192871 138.807114 125 125 125 C 111.192879 125 100 136.192871 100 150 L 100 175 L 25 175 C 11.192882 175 0 186.192871 0 200 C 0 213.807129 11.192882 225 25 225 L 25 625 C 11.192882 625 0 636.192871 0 650 C 0 663.807129 11.192882 675 25 675 L 775 675 C 788.807129 675 800 663.807129 800 650 C 800 636.192871 788.807129 625 775 625 Z M 725 625 L 75 625 L 75 225 L 725 225 Z"/>
    </g>
</svg>
