<?xml version="1.0" encoding="UTF-8"?>
<!-- Generated by Pixelmator Pro 3.6.8 -->
<svg width="800" height="800" viewBox="0 0 800 800" xmlns="http://www.w3.org/2000/svg">
    <path id="distribution-864" fill="#ffffff" fill-rule="evenodd" stroke="none" d="M 630.754944 445.811646 L 719.643799 445.811646 L 719.643799 356.922729 L 630.754944 356.922729 L 630.754944 445.811646 Z M 452.977844 445.811646 L 541.866028 445.811646 L 541.866028 356.922729 L 452.977844 356.922729 L 452.977844 445.811646 Z M 275.200073 445.811646 L 364.088959 445.811646 L 364.088959 356.922729 L 275.200073 356.922729 L 275.200073 445.811646 Z M 97.422279 445.811646 L 186.311172 445.811646 L 186.311172 356.922729 L 97.422279 356.922729 L 97.422279 445.811646 Z M 630.754944 266.666687 L 541.866028 266.666687 L 452.977844 266.666687 L 364.088959 266.666687 L 275.200073 266.666687 L 186.311172 266.666687 L 0 266.666687 L 0 533.333374 L 186.311172 533.333374 L 275.200073 533.333374 L 364.088959 533.333374 L 452.977844 533.333374 L 541.866028 533.333374 L 630.754944 533.333374 L 800 533.333374 L 800 266.666687 L 630.754944 266.666687 Z"/>
</svg>
