<?xml version="1.0" encoding="UTF-8"?>
<!-- Generated by Pixelmator Pro 3.6.8 -->
<svg width="800" height="800" viewBox="0 0 800 800" xmlns="http://www.w3.org/2000/svg">
    <path id="Path" fill="#ffffff" stroke="none" d="M 315.690643 311.309387 C 304.850006 308.023438 293.396881 314.153137 290.110931 324.9953 L 203.957825 609.440613 C 200.673431 620.28125 206.801559 631.734375 217.643768 635.018738 C 219.628113 635.6203 221.626572 635.90625 223.598434 635.90625 C 232.399994 635.90625 240.537506 630.193726 243.223434 621.334351 L 329.376556 336.889038 C 332.657806 326.043762 326.532806 314.590607 315.690643 311.309387 Z"/>
    <path id="path1" fill="#ffffff" stroke="none" d="M 420.303101 311.309387 C 409.475006 308.023438 398.009369 314.153137 394.724976 324.9953 L 308.571869 609.440613 C 305.287506 620.28125 311.415619 631.734375 322.257813 635.018738 C 324.240631 635.6203 326.240631 635.90625 328.212494 635.90625 C 337.014069 635.90625 345.151581 630.193726 347.837494 621.334351 L 433.990631 336.889038 C 437.27655 326.043762 431.148438 314.590607 420.303101 311.309387 Z"/>
    <path id="path2" fill="#ffffff" stroke="none" d="M 779.487488 0 L 20.512501 0 C 9.184375 0 0 9.185913 0 20.512512 L 0 779.487488 C 0 790.814087 9.184375 800 20.512501 800 L 779.487488 800 C 790.814087 800 800 790.814087 800 779.487488 L 800 20.512512 C 800 9.185913 790.814087 0 779.487488 0 Z M 164.103119 41.025024 L 635.898438 41.025024 L 635.898438 123.076538 L 164.103119 123.076538 L 164.103119 41.025024 Z M 41.025002 41.025024 L 123.076561 41.025024 L 123.076561 123.076538 L 41.025002 123.076538 L 41.025002 41.025024 Z M 758.974976 758.974976 L 41.025002 758.974976 L 41.025002 164.103149 L 758.97345 164.103149 L 758.97345 758.974976 Z M 758.974976 123.076538 L 676.923401 123.076538 L 676.923401 41.025024 L 758.974976 41.025024 L 758.974976 123.076538 Z"/>
    <path id="path3" fill="#ffffff" stroke="none" d="M 167.179688 382.912506 C 167.179688 394.241241 157.995926 403.424988 146.667175 403.424988 C 135.338455 403.424988 126.154686 394.241241 126.154686 382.912506 C 126.154686 371.58374 135.338455 362.399994 146.667175 362.399994 C 157.995926 362.399994 167.179688 371.58374 167.179688 382.912506 Z"/>
    <path id="path4" fill="#ffffff" stroke="none" d="M 167.179688 563.425049 C 167.179688 574.753784 157.995926 583.9375 146.667175 583.9375 C 135.338455 583.9375 126.154686 574.753784 126.154686 563.425049 C 126.154686 552.096252 135.338455 542.912476 146.667175 542.912476 C 157.995926 542.912476 167.179688 552.096252 167.179688 563.425049 Z"/>
    <path id="path5" fill="#ffffff" stroke="none" d="M 670.768738 594.871826 L 480.000031 594.871826 C 468.673431 594.871826 459.487488 604.0578 459.487488 615.384399 C 459.487488 626.710938 468.673431 635.896851 480.000031 635.896851 L 670.768738 635.896851 C 682.095276 635.896851 691.28125 626.710938 691.28125 615.384399 C 691.282776 604.0578 682.096863 594.871826 670.768738 594.871826 Z"/>
</svg>
