<?xml version="1.0" encoding="UTF-8"?>
<!-- Generated by Pixelmator Pro 3.6.8 -->
<svg width="800" height="800" viewBox="0 0 800 800" xmlns="http://www.w3.org/2000/svg">
    <path id="Path" fill="#ffffff" stroke="none" d="M 750 275 L 625 275 L 625 525 L 675 525 L 675 450 L 750 450 C 777.598816 449.962799 799.96283 427.598816 800 400 L 800 325 C 799.968262 297.398895 777.601074 275.031677 750 275 Z M 675 400 L 675 325 L 750 325 L 750.024963 400 Z"/>
    <path id="path1" fill="#ffffff" stroke="none" d="M 250 325 L 300 325 L 300 525 L 350 525 L 350 325 L 400 325 L 400 275 L 250 275 L 250 325 Z"/>
    <path id="path2" fill="#ffffff" stroke="none" d="M 575 275 L 425 275 L 425 325 L 475 325 L 475 525 L 525 525 L 525 325 L 575 325 L 575 275 Z"/>
    <path id="path3" fill="#ffffff" stroke="none" d="M 150 275 L 150 375 L 75 375 L 75 275 L 25 275 L 25 525 L 75 525 L 75 425 L 150 425 L 150 525 L 200 525 L 200 275 L 150 275 Z"/>
</svg>
