<?xml version="1.0" encoding="UTF-8"?>
<!-- Generated by Pixelmator Pro 3.6.8 -->
<svg width="800" height="800" viewBox="0 0 800 800" xmlns="http://www.w3.org/2000/svg">
    <path id="Path" fill="#ffffff" stroke="none" d="M 440 280 L 379.599976 280 C 354.399994 280 329.599976 292 316 308 L 280 200 L 165.200012 200 L 69.599998 480 L 137.199997 480 L 166.800003 400 L 280 400 L 280 560 L 80 560 C 36 560 0 524 0 480 L 0 200 C 0 156 36 120 80 120 L 360 120 C 404 120 440 156 440 200 L 440 280 Z M 260.400024 360 L 179.599991 360 L 219.599991 242.799988 Z M 400 320 L 680 320 C 724 320 760 356 760 400 L 760 680 C 760 724 724 760 680 760 L 400 760 C 356 760 320 724 320 680 L 320 400 C 320 356 356 320 400 320 Z M 690 520 L 690 476.799988 L 563.200012 476.799988 L 563.200012 390 L 516.799988 390 L 516.799988 476.799988 L 390 476.799988 L 390 520 L 441.199982 520 C 445.600006 554 463.600006 594 492.400024 624.799988 C 457.599976 639.199951 416.799988 649.599976 400 649.599976 C 399.599976 650.400024 408.800018 688.399963 408 708 C 441.600006 708 496.399994 688 539.199951 662 C 582.799988 688 638.400024 708 672.799988 708 C 672 688.399963 680.800049 650.400024 680.800049 649.599976 C 663.599976 649.599976 621.200012 638.800049 585.600037 624.400024 C 613.599976 593.599976 631.200012 553.599976 635.600037 520 L 690 520 Z M 537.599976 597.200012 C 517.599976 578.800049 503.600006 552 497.200012 520 L 580.800049 520 C 574 552 560.400024 578.800049 540.800049 597.200012 L 539.199951 598.400024 C 539.199951 598.400024 538 597.599976 537.599976 597.200012 Z"/>
</svg>
