<?xml version="1.0" encoding="UTF-8"?>
<svg width="128px" height="128px" viewBox="0 0 128 128" version="1.1" xmlns="http://www.w3.org/2000/svg" xmlns:xlink="http://www.w3.org/1999/xlink">
    <title>java</title>
    <g id="Page-1" stroke="none" stroke-width="1" fill="none" fill-rule="evenodd">
        <g id="java" fill-rule="nonzero">
            <g transform="translate(38.000000, 28.999987)">
                <path d="M16.6255612,54.1304707 C16.6255612,54.1304707 13.9507792,55.6859522 18.5291126,56.2123047 C24.0756349,56.8450614 26.9103985,56.7543143 33.0227035,55.5974662 C33.0227035,55.5974662 34.6296856,56.6050842 36.8739517,57.477818 C23.1717785,63.3503379 5.86323259,57.1376676 16.6255612,54.1304707" id="path5" fill="#0B6FB6"></path>
                <path d="M14.9512283,46.4672176 C14.9512283,46.4672176 11.9512013,48.6879005 16.5329305,49.1618046 C22.4578993,49.7730553 27.136976,49.8230516 35.2335776,48.2639875 C35.2335776,48.2639875 36.353447,49.3993245 38.1143734,50.0201977 C21.5476283,54.8645311 3.09525398,50.4022294 14.9512283,46.4672176" id="path7" fill="#0B6FB6"></path>
                <path d="M29.0663732,33.4677891 C32.4425826,37.3548798 28.179307,40.8527788 28.179307,40.8527788 C28.179307,40.8527788 36.7520795,36.4272559 32.8149919,30.8854499 C29.1378744,25.7173746 26.3180147,23.1495594 41.583591,14.2960662 C41.583591,14.2960662 17.6216716,20.2806502 29.0663732,33.4677891" id="path9" fill="#E11F21"></path>
                <path d="M47.1885968,59.7986794 C47.1885968,59.7986794 49.1679887,61.4296174 45.0086631,62.6913623 C37.0995861,65.0873033 12.0902411,65.8108069 5.14275062,62.7868173 C2.64530647,61.7003409 7.32872183,60.1925946 8.80194616,59.8762162 C10.3383708,59.5430503 11.2163809,59.6051108 11.2163809,59.6051108 C8.43896983,57.648554 -6.73567405,63.4469286 3.50841329,65.1074928 C31.4455292,69.6380931 54.4351129,63.067349 47.1885968,59.7986794" id="path11" fill="#0B6FB6"></path>
                <path d="M17.9118262,38.5271991 C17.9118262,38.5271991 5.19048097,41.5487367 13.4068807,42.6459609 C16.8760983,43.1104388 23.7918943,43.0053562 30.2337837,42.4656077 C35.4984522,42.0215052 40.7848166,41.0772795 40.7848166,41.0772795 C40.7848166,41.0772795 38.9284295,41.8722803 37.5853783,42.7893474 C24.6670755,46.1868717 -0.288690652,44.6063016 6.89575376,41.1310443 C12.971648,38.1940332 17.9118262,38.5271991 17.9118262,38.5271991" id="path13" fill="#0B6FB6"></path>
                <path d="M40.7323698,51.2830679 C53.8644219,44.4591519 47.7926777,37.9014218 43.554682,38.7849034 C42.5159347,39.0011033 42.0527814,39.188441 42.0527814,39.188441 C42.0527814,39.188441 42.4383968,38.5843658 43.1749145,38.3228879 C51.5590303,35.3753046 58.0069559,47.0163975 40.4684378,51.6269898 C40.4684378,51.6269898 40.6716216,51.445503 40.7323698,51.2830679" id="path15" fill="#0B6FB6"></path>
                <path d="M32.8149919,-2.06230161e-15 C32.8149919,-2.06230161e-15 40.0877276,7.27518965 25.9171176,18.4623723 C14.5537275,27.4364167 23.3259112,32.5531792 25.9123993,38.3992891 C19.2794022,32.4147072 14.4116688,27.1464536 17.6773252,22.2432509 C22.4705396,15.0457884 35.7493661,11.5561991 32.8149919,-2.06230161e-15" id="path17" fill="#E11F21"></path>
                <path d="M19.2022416,69.774304 C31.8073734,70.5811882 51.163982,69.3266241 51.622419,63.3622214 C51.622419,63.3622214 50.7412011,65.6232782 41.204956,67.4189176 C30.446212,69.443585 17.1768174,69.2072008 9.30660435,67.9096145 C9.30660435,67.9096145 10.9177365,69.2430422 19.2022416,69.774304" id="path19" fill="#0B6FB6"></path>
            </g>
        </g>
    </g>
</svg>