<?xml version="1.0" encoding="UTF-8"?>
<svg width="67" height="57" viewBox="0 0 67 57" xmlns="http://www.w3.org/2000/svg">
    <path id="Path" fill="#ffffff" stroke="none" d="M 27.187201 51.3759 C 26.1036 50.358101 26.261 48.6045 27.59 46.883701 C 28.5748 45.609699 32.6898 41.4361 35.659 38.697601 L 36.859798 37.5919 L 34.9487 33.495201 C 32.806999 28.9006 32.818001 28.8127 35.644299 28.497801 L 37.200298 28.3258 L 38.939301 30.954399 C 39.894798 32.400501 40.817402 33.583099 40.982201 33.583099 C 41.1469 33.583099 42.863998 32.206501 44.793301 30.5261 C 48.1432 27.6045 48.351898 27.4764 49.486801 27.630199 C 50.171501 27.7253 50.779202 27.6668 50.922001 27.494699 C 51.258801 27.091999 52.2253 27.6887 52.2253 28.3001 C 52.2253 28.552799 51.7421 29.1898 51.1563 29.716999 C 48.750999 31.877001 43.621799 36.9879 43.621799 37.222198 C 43.621799 37.361301 44.654202 39.144199 45.921001 41.187099 L 48.058998 44.6432 C 48.154202 44.796902 48.135899 44.994598 48.015099 45.1264 L 47.506199 45.5182 C 47.121799 45.942902 46.8619 46.276001 46.8106 46.693401 C 46.9021 46.9496 46.5177 47.0741 46.169899 47.235199 C 45.287601 47.645302 44.635899 47.1437 41.941399 43.980499 C 40.7076 42.530701 39.576302 41.3409 39.426201 41.3372 C 39.093102 41.329899 35.406399 45.360699 32.554401 48.849701 C 30.0392 51.924999 27.824301 51.987301 27.183599 51.383202 L 27.187201 51.3759 Z"/>
    <path id="path1" fill="#ffffff" stroke="none" d="M 24.1959 27.458 C 24.181299 27.4361 24.163 27.414101 24.152 27.3958 C 18.5359 19.011902 14.4648 17.536499 14.6112 17.445 C 16.745701 16.072098 20.7509 17.419399 23.2258 19.619698 C 23.254999 19.645302 23.2843 19.678299 23.317301 19.7076 C 23.9104 20.212799 24.045799 20.395798 24.7561 21.1866 C 24.884199 21.1866 27.6227 16.635902 27.641001 16.606598 C 33.154598 7.911572 38.920799 4.235851 42.266998 4.243172 C 43.863201 4.243172 44.1012 4.79966 44.1012 4.79966 C 38.6791 7.629669 34.091801 12.674599 29.354401 21.9664 C 28.0327 24.627998 25.806801 28.922501 25.6457 29.215401 C 25.4041 29.654699 25.3638 28.999399 24.1996 27.458 L 24.1959 27.458 Z"/>
    <path id="path2" fill="#ffffff" stroke="none" d="M 5.84307 27.9084 C 7.34411 27.538601 8.49735 27.0151 9.31377 26.334101 C 10.1265 25.653099 10.683 24.840401 10.9869 23.895798 C 11.2908 22.951302 11.4409 21.900497 11.4409 20.747299 L 11.4409 11.880199 C 11.4409 10.152199 11.6459 8.728001 12.0523 7.61137 C 12.4586 6.494751 13.1542 5.671001 14.1354 5.140152 C 15.1166 4.609291 16.467501 4.34203 18.180901 4.34203 L 18.180901 0 C 16.009899 0 14.183 0.237968 12.7039 0.710247 C 11.2249 1.182529 10.046 1.907421 9.15635 2.88126 C 8.26671 3.85511 7.62968 5.08889 7.23794 6.582611 C 6.84621 8.076332 6.65217 9.840969 6.65217 11.880199 L 6.65217 18.9753 C 6.65217 21.399002 6.16159 23.126999 5.17676 24.163101 C 4.19559 25.1992 2.46756 25.715401 0 25.715401 L 0 31.034901 C 2.46756 31.034901 4.19193 31.5511 5.17676 32.5872 C 6.15793 33.623299 6.65217 35.351299 6.65217 37.775002 L 6.65217 44.866501 C 6.65217 46.905701 6.84621 48.6703 7.23794 50.164001 C 7.62968 51.657799 8.26671 52.891499 9.15635 53.865398 C 10.046 54.839199 11.2249 55.564098 12.7039 56.0364 C 14.183 56.508701 16.006201 56.746601 18.180901 56.746601 L 18.180901 52.401001 C 16.467501 52.401001 15.1166 52.130001 14.1354 51.5919 C 13.1542 51.053699 12.4586 50.2299 12.0523 49.120602 C 11.6459 48.011299 11.4409 46.594501 11.4409 44.862801 L 11.4409 35.995701 C 11.4409 34.8424 11.2908 33.795399 10.9869 32.847198 C 10.683 31.902599 10.1265 31.0898 9.31377 30.408899 C 8.50101 29.7279 7.34411 29.204399 5.84307 28.8346 C 5.6527 28.787001 5.4367 28.754101 5.23167 28.7138 L 5.23167 28.0292 C 5.4367 27.988899 5.6527 27.952299 5.84307 27.9084 Z"/>
    <path id="path3" fill="#ffffff" stroke="none" d="M 60.451599 27.9084 C 58.9505 27.538601 57.797298 27.0151 56.9809 26.334101 C 56.168098 25.653099 55.611599 24.840401 55.3078 23.895798 C 55.003899 22.951302 54.853802 21.900497 54.853802 20.747299 L 54.853802 11.880199 C 54.853802 10.152199 54.6488 8.728001 54.242401 7.61137 C 53.835999 6.494751 53.1404 5.671001 52.159302 5.140152 C 51.178101 4.609291 49.827202 4.34203 48.1138 4.34203 L 48.1138 0 C 50.284801 0 52.111698 0.237968 53.590698 0.710247 C 55.069801 1.182529 56.248699 1.907421 57.138302 2.88126 C 58.0243 3.85511 58.665001 5.08889 59.056702 6.582611 C 59.448502 8.076332 59.642502 9.840969 59.642502 11.880199 L 59.642502 18.9753 C 59.642502 21.399002 60.133099 23.126999 61.117901 24.163101 C 62.099098 25.1992 63.827099 25.715401 66.294701 25.715401 L 66.294701 28.2855 L 66.294701 28.461201 L 66.294701 31.0313 C 63.827099 31.0313 62.102699 31.547501 61.117901 32.583599 C 60.1367 33.619598 59.642502 35.347698 59.642502 37.771301 L 59.642502 44.862801 C 59.642502 46.902 59.448502 48.666698 59.056702 50.1604 C 58.665001 51.654099 58.028 52.887901 57.138302 53.861698 C 56.2523 54.835602 55.069801 55.560501 53.590698 56.0327 C 52.111698 56.505001 50.288399 56.743 48.1138 56.743 L 48.1138 52.397301 C 49.827202 52.397301 51.178101 52.1264 52.159302 51.5882 C 53.1404 51.049999 53.835999 50.226299 54.242401 49.117001 C 54.6488 48.007702 54.853802 46.590801 54.853802 44.8591 L 54.853802 35.992001 C 54.853802 34.838799 55.003899 33.791698 55.3078 32.843498 C 55.611599 31.898899 56.168098 31.086201 56.9809 30.405199 C 57.793598 29.7243 58.9505 29.200701 60.451599 28.830999 C 60.641998 28.7834 60.858002 28.750401 61.063 28.7101 L 61.063 28.025499 C 60.858002 27.985201 60.641998 27.948601 60.451599 27.904699 L 60.451599 27.9084 Z"/>
</svg>
