<?xml version="1.0" encoding="utf-8"?>
<!-- Generator: Adobe Illustrator 25.4.1, SVG Export Plug-In . SVG Version: 6.00 Build 0)  -->
<svg version="1.1" id="Ebene_1" xmlns="http://www.w3.org/2000/svg" xmlns:xlink="http://www.w3.org/1999/xlink" x="0px" y="0px"
	 viewBox="0 0 288.3 89" style="enable-background:new 0 0 288.3 89;" xml:space="preserve">
<style type="text/css">
	.st0{fill:#FFFFFF;}
	.st1{fill-rule:evenodd;clip-rule:evenodd;fill:#FFFFFF;}
</style>
<g>
	<g>
		<g>
			<path class="st0" d="M61.1,45.8c-0.2,0-0.3,0-0.5-0.1c-0.5-0.1-0.8-0.4-1.1-0.8c-0.2-0.4-0.3-0.9-0.2-1.4
				c0.2-0.8,0.9-1.3,1.7-1.3c0.2,0,0.3,0,0.5,0.1c1,0.3,1.5,1.2,1.3,2.2C62.6,45.2,61.9,45.8,61.1,45.8L61.1,45.8z"/>
			<path class="st0" d="M60.6,45.7c0.9,0.3,1.9-0.3,2.2-1.2c0.2-0.9-0.3-1.9-1.2-2.2s-1.9,0.3-2.2,1.2
				C59.1,44.5,59.7,45.4,60.6,45.7z"/>
			<path class="st0" d="M58.6,37.6c-0.8,0-1.5-0.5-1.7-1.3c-0.3-1,0.3-1.9,1.3-2.2c0.2,0,0.3-0.1,0.5-0.1c0.8,0,1.5,0.5,1.7,1.3
				c0.3,1-0.3,1.9-1.3,2.2C58.9,37.6,58.7,37.6,58.6,37.6L58.6,37.6z"/>
			<path class="st0" d="M59,37.5c0.9-0.3,1.5-1.2,1.2-2.2c-0.3-0.9-1.2-1.5-2.2-1.2c-0.9,0.3-1.5,1.2-1.2,2.2
				C57.1,37.2,58.1,37.7,59,37.5z"/>
			<path class="st0" d="M52.3,31.7c-0.5,0-0.9-0.2-1.3-0.5s-0.5-0.8-0.5-1.3c0-0.5,0.2-0.9,0.5-1.3c0.3-0.3,0.8-0.5,1.3-0.5
				s0.9,0.2,1.3,0.5c0.3,0.3,0.5,0.8,0.5,1.3c0,0.5-0.2,0.9-0.5,1.3C53.3,31.5,52.8,31.7,52.3,31.7L52.3,31.7z"/>
			<path class="st0" d="M51.1,28.7c-0.7,0.7-0.7,1.8,0,2.5s1.8,0.7,2.5,0s0.7-1.8,0-2.5C52.9,28,51.8,28,51.1,28.7z"/>
			<path class="st0" d="M44,29.8c-0.2,0-0.3,0-0.5-0.1c-1-0.3-1.5-1.2-1.3-2.2c0.2-0.8,0.9-1.3,1.7-1.3c0.2,0,0.3,0,0.5,0.1
				c0.5,0.1,0.8,0.4,1.1,0.8c0.2,0.4,0.3,0.9,0.2,1.4C45.5,29.2,44.8,29.8,44,29.8L44,29.8z"/>
			<path class="st0" d="M44.5,26.3c-0.9-0.3-1.9,0.3-2.2,1.2c-0.3,0.9,0.3,1.9,1.2,2.2c0.9,0.3,1.9-0.3,2.2-1.2
				C46,27.5,45.4,26.5,44.5,26.3z"/>
			<path class="st0" d="M35.8,32.2c-0.8,0-1.5-0.5-1.7-1.3c-0.3-1,0.3-1.9,1.3-2.2c0.2,0,0.3-0.1,0.5-0.1c0.8,0,1.5,0.5,1.7,1.3
				c0.3,1-0.3,1.9-1.3,2.2C36.1,32.2,36,32.2,35.8,32.2z"/>
			<path class="st0" d="M36.3,32.1c0.9-0.3,1.5-1.2,1.2-2.2c-0.3-0.9-1.2-1.5-2.2-1.2c-0.9,0.3-1.5,1.2-1.2,2.2
				C34.3,31.8,35.3,32.4,36.3,32.1z"/>
			<path class="st0" d="M29.9,38.5c-0.5,0-0.9-0.2-1.3-0.5c-0.3-0.3-0.5-0.8-0.5-1.3s0.2-0.9,0.5-1.3c0.3-0.3,0.8-0.5,1.3-0.5
				s0.9,0.2,1.3,0.5c0.7,0.7,0.7,1.8,0,2.5C30.9,38.3,30.4,38.5,29.9,38.5z"/>
			<path class="st0" d="M28.7,35.5c-0.7,0.7-0.7,1.8,0,2.5c0.7,0.7,1.8,0.7,2.5,0s0.7-1.8,0-2.5C30.5,34.8,29.4,34.8,28.7,35.5z"/>
			<path class="st0" d="M28,46.8c-0.2,0-0.3,0-0.5-0.1c-1-0.3-1.5-1.2-1.3-2.2c0.2-0.8,0.9-1.3,1.7-1.3c0.2,0,0.3,0,0.5,0.1
				c1,0.3,1.5,1.2,1.3,2.2C29.5,46.3,28.8,46.8,28,46.8L28,46.8z"/>
			<path class="st0" d="M28.4,43.3c-0.9-0.3-1.9,0.3-2.2,1.2c-0.3,0.9,0.3,1.9,1.2,2.2c0.9,0.3,1.9-0.3,2.2-1.2
				C29.9,44.6,29.4,43.6,28.4,43.3z"/>
			<path class="st0" d="M30.5,55c-0.8,0-1.5-0.5-1.7-1.3c-0.3-1,0.3-1.9,1.3-2.2c0.2,0,0.3-0.1,0.5-0.1c0.8,0,1.5,0.5,1.7,1.3
				c0.3,1-0.3,1.9-1.3,2.2C30.8,55,30.6,55,30.5,55L30.5,55z"/>
			<path class="st0" d="M30,51.5c-0.9,0.3-1.5,1.2-1.2,2.2c0.3,0.9,1.2,1.5,2.2,1.2c0.9-0.3,1.5-1.2,1.2-2.2
				C31.9,51.9,30.9,51.3,30,51.5z"/>
			<path class="st0" d="M36.7,60.9c-0.5,0-0.9-0.2-1.3-0.5c-0.3-0.3-0.5-0.8-0.5-1.3c0-0.5,0.2-0.9,0.5-1.3c0.3-0.3,0.8-0.5,1.3-0.5
				s0.9,0.2,1.3,0.5c0.7,0.7,0.7,1.8,0,2.5C37.6,60.7,37.2,60.9,36.7,60.9z"/>
			<path class="st0" d="M37.9,60.4c0.7-0.7,0.7-1.8,0-2.5s-1.8-0.7-2.5,0s-0.7,1.8,0,2.5C36.1,61,37.3,61,37.9,60.4z"/>
			<path class="st0" d="M45,62.9c-0.2,0-0.3,0-0.5-0.1c-0.5-0.1-0.8-0.4-1.1-0.8c-0.2-0.4-0.3-0.9-0.2-1.4c0.2-0.8,0.9-1.3,1.7-1.3
				c0.2,0,0.3,0,0.5,0.1c0.5,0.1,0.8,0.4,1.1,0.8c0.2,0.4,0.3,0.9,0.2,1.4C46.6,62.3,45.9,62.9,45,62.9L45,62.9z"/>
			<path class="st0" d="M44.6,62.8c0.9,0.3,1.9-0.3,2.2-1.2s-0.3-1.9-1.2-2.2s-1.9,0.3-2.2,1.2C43.1,61.6,43.6,62.5,44.6,62.8z"/>
			<path class="st0" d="M53.2,60.4c-0.8,0-1.5-0.5-1.7-1.3c-0.1-0.5-0.1-0.9,0.2-1.4c0.2-0.4,0.6-0.7,1.1-0.8c0.2,0,0.3-0.1,0.5-0.1
				c0.8,0,1.5,0.5,1.7,1.3c0.3,1-0.3,1.9-1.3,2.2C53.6,60.4,53.4,60.4,53.2,60.4L53.2,60.4z"/>
			<path class="st0" d="M52.8,56.9c-0.9,0.3-1.5,1.2-1.2,2.2c0.3,0.9,1.2,1.5,2.2,1.2c0.9-0.3,1.5-1.2,1.2-2.2
				C54.7,57.2,53.7,56.6,52.8,56.9z"/>
			<path class="st0" d="M59.1,54.1c-0.5,0-0.9-0.2-1.3-0.5c-0.7-0.7-0.7-1.8,0-2.5c0.3-0.3,0.8-0.5,1.3-0.5s0.9,0.2,1.3,0.5
				c0.7,0.7,0.7,1.8,0,2.5C60,53.9,59.6,54.1,59.1,54.1z"/>
			<path class="st0" d="M60.4,53.6c0.7-0.7,0.7-1.8,0-2.5c-0.7-0.7-1.8-0.7-2.5,0c-0.7,0.7-0.7,1.8,0,2.5S59.7,54.3,60.4,53.6z"/>
			<g>
				<path class="st0" d="M69.4,46.7c-0.2,0-0.4,0-0.5-0.1c-1.1-0.3-1.8-1.4-1.5-2.6c0.2-0.9,1.1-1.6,2-1.6c0.2,0,0.4,0,0.5,0.1
					c1.1,0.3,1.8,1.4,1.5,2.6C71.2,46,70.4,46.7,69.4,46.7L69.4,46.7z"/>
				<path class="st0" d="M69.9,42.6c-1.1-0.3-2.2,0.4-2.5,1.5c-0.3,1.1,0.4,2.2,1.5,2.5c1.1,0.3,2.2-0.4,2.5-1.5
					C71.7,44,71,42.9,69.9,42.6z"/>
				<path class="st0" d="M66.1,34.2c-0.9,0-1.8-0.6-2-1.5c-0.1-0.5-0.1-1.1,0.2-1.6c0.3-0.5,0.7-0.8,1.3-1c0.2,0,0.4-0.1,0.5-0.1
					c0.9,0,1.8,0.6,2,1.5c0.1,0.5,0.1,1.1-0.2,1.6c-0.3,0.5-0.7,0.8-1.3,1C66.5,34.2,66.3,34.2,66.1,34.2L66.1,34.2z"/>
				<path class="st0" d="M66.6,34.1c1.1-0.3,1.8-1.4,1.5-2.5c-0.3-1.1-1.4-1.8-2.5-1.5c-1.1,0.3-1.8,1.4-1.5,2.5
					C64.4,33.8,65.5,34.4,66.6,34.1z"/>
				<path class="st0" d="M57,25.1c-0.6,0-1.1-0.2-1.5-0.6s-0.6-0.9-0.6-1.5c0-0.6,0.2-1.1,0.6-1.5c0.4-0.4,0.9-0.6,1.5-0.6
					c0.6,0,1.1,0.2,1.5,0.6c0.8,0.8,0.8,2.1,0,3C58.1,24.9,57.6,25.1,57,25.1L57,25.1z"/>
				<path class="st0" d="M55.6,24.5c0.8,0.8,2.1,0.8,2.9,0c0.8-0.8,0.8-2.1,0-2.9s-2.1-0.8-2.9,0C54.8,22.3,54.8,23.7,55.6,24.5z"/>
				<path class="st0" d="M44.6,21.7c-0.2,0-0.4,0-0.5-0.1c-1.1-0.3-1.8-1.4-1.5-2.6c0.2-0.9,1.1-1.5,2-1.5c0.2,0,0.4,0,0.5,0.1
					c1.1,0.3,1.8,1.4,1.5,2.6C46.4,21.1,45.5,21.7,44.6,21.7L44.6,21.7z"/>
				<path class="st0" d="M44,21.6c1.1,0.3,2.2-0.4,2.5-1.5s-0.4-2.2-1.5-2.5s-2.2,0.4-2.5,1.5C42.3,20.2,42.9,21.3,44,21.6z"/>
				<path class="st0" d="M32.1,25c-0.9,0-1.8-0.6-2-1.5c-0.3-1.1,0.4-2.3,1.5-2.6c0.2,0,0.4-0.1,0.5-0.1c0.9,0,1.8,0.6,2,1.5
					c0.3,1.1-0.4,2.3-1.5,2.6C32.5,25,32.3,25,32.1,25z"/>
				<path class="st0" d="M31.6,21c-1.1,0.3-1.8,1.4-1.5,2.5c0.3,1.1,1.4,1.8,2.5,1.5s1.8-1.4,1.5-2.5C33.8,21.3,32.7,20.7,31.6,21z"
					/>
				<path class="st0" d="M23,34.1c-0.6,0-1.1-0.2-1.5-0.6c-0.4-0.4-0.6-0.9-0.6-1.5c0-0.6,0.2-1.1,0.6-1.5c0.4-0.4,0.9-0.6,1.5-0.6
					s1.1,0.2,1.5,0.6c0.4,0.4,0.6,0.9,0.6,1.5c0,0.6-0.2,1.1-0.6,1.5C24.1,33.9,23.6,34.1,23,34.1L23,34.1z"/>
				<path class="st0" d="M21.5,33.5c0.8,0.8,2.1,0.8,2.9,0c0.8-0.8,0.8-2.1,0-2.9c-0.8-0.8-2.1-0.8-2.9,0
					C20.7,31.4,20.7,32.7,21.5,33.5z"/>
				<path class="st0" d="M19.6,46.6c-0.2,0-0.4,0-0.5-0.1c-1.1-0.3-1.8-1.4-1.5-2.6c0.2-0.9,1.1-1.5,2-1.5c0.2,0,0.4,0,0.5,0.1
					c1.1,0.3,1.8,1.4,1.5,2.6C21.4,45.9,20.6,46.6,19.6,46.6L19.6,46.6z"/>
				<path class="st0" d="M19.1,46.5c1.1,0.3,2.2-0.4,2.5-1.5s-0.4-2.2-1.5-2.5c-1.1-0.3-2.2,0.4-2.5,1.5C17.4,45,18,46.2,19.1,46.5z
					"/>
				<path class="st0" d="M22.9,59c-0.9,0-1.8-0.6-2-1.5c-0.3-1.1,0.4-2.3,1.5-2.6c0.2,0,0.4-0.1,0.5-0.1c0.9,0,1.8,0.6,2,1.5
					c0.3,1.1-0.4,2.3-1.5,2.6C23.3,59,23.1,59,22.9,59L22.9,59z"/>
				<path class="st0" d="M22.4,54.9c-1.1,0.3-1.8,1.4-1.5,2.5c0.3,1.1,1.4,1.8,2.5,1.5c1.1-0.3,1.8-1.4,1.5-2.5
					C24.6,55.3,23.5,54.6,22.4,54.9z"/>
				<path class="st0" d="M32,68.1c-0.6,0-1.1-0.2-1.5-0.6s-0.6-0.9-0.6-1.5s0.2-1.1,0.6-1.5s0.9-0.6,1.5-0.6c0.6,0,1.1,0.2,1.5,0.6
					c0.8,0.8,0.8,2.1,0,3C33.1,67.9,32.6,68.1,32,68.1L32,68.1z"/>
				<path class="st0" d="M33.5,64.6c-0.8-0.8-2.1-0.8-2.9,0c-0.8,0.8-0.8,2.1,0,2.9s2.1,0.8,2.9,0S34.3,65.4,33.5,64.6z"/>
				<path class="st0" d="M44.5,71.5c-0.2,0-0.4,0-0.5-0.1c-0.5-0.1-1-0.5-1.3-1c-0.3-0.5-0.4-1-0.2-1.6c0.2-0.9,1.1-1.5,2-1.5
					c0.2,0,0.4,0,0.5,0.1c0.5,0.1,1,0.5,1.3,1s0.4,1,0.2,1.6C46.2,70.9,45.4,71.5,44.5,71.5L44.5,71.5z"/>
				<path class="st0" d="M45,67.4c-1.1-0.3-2.2,0.4-2.5,1.5s0.4,2.2,1.5,2.5s2.2-0.4,2.5-1.5C46.7,68.8,46.1,67.7,45,67.4z"/>
				<path class="st0" d="M56.9,68.2c-0.9,0-1.8-0.6-2-1.5c-0.1-0.5-0.1-1.1,0.2-1.6s0.7-0.8,1.3-1c0.2,0,0.4-0.1,0.5-0.1
					c0.9,0,1.8,0.6,2,1.5c0.3,1.1-0.4,2.3-1.5,2.6C57.3,68.2,57.1,68.2,56.9,68.2L56.9,68.2z"/>
				<path class="st0" d="M57.4,68.1c1.1-0.3,1.8-1.4,1.5-2.5s-1.4-1.8-2.5-1.5c-1.1,0.3-1.8,1.4-1.5,2.5S56.3,68.4,57.4,68.1z"/>
				<path class="st0" d="M66,59.1c-0.6,0-1.1-0.2-1.5-0.6c-0.8-0.8-0.8-2.1,0-3c0.4-0.4,0.9-0.6,1.5-0.6s1.1,0.2,1.5,0.6
					c0.8,0.8,0.8,2.1,0,3C67.1,58.9,66.6,59.1,66,59.1L66,59.1z"/>
				<path class="st0" d="M67.5,55.6c-0.8-0.8-2.1-0.8-2.9,0c-0.8,0.8-0.8,2.1,0,2.9c0.8,0.8,2.1,0.8,2.9,0
					C68.3,57.7,68.3,56.4,67.5,55.6z"/>
			</g>
			<g>
				<path class="st0" d="M77.9,51c-0.2,0-0.5,0-0.7-0.1c-1.4-0.4-2.3-1.9-1.9-3.3c0.3-1.2,1.4-2,2.6-2c0.2,0,0.5,0,0.7,0.1
					c0.7,0.2,1.3,0.6,1.6,1.3c0.4,0.6,0.5,1.3,0.3,2C80.2,50.2,79.1,51,77.9,51L77.9,51z"/>
				<path class="st0" d="M77.2,50.9c1.4,0.4,2.9-0.5,3.3-1.9s-0.5-2.9-1.9-3.3c-1.4-0.4-2.9,0.5-3.3,1.9
					C75,49.1,75.8,50.5,77.2,50.9z"/>
				<path class="st0" d="M75.4,33.8c-1.2,0-2.3-0.8-2.6-2c-0.4-1.4,0.5-2.9,1.9-3.3c0.2-0.1,0.5-0.1,0.7-0.1c1.2,0,2.3,0.8,2.6,2
					c0.4,1.4-0.5,2.9-1.9,3.3C75.8,33.8,75.6,33.8,75.4,33.8L75.4,33.8z"/>
				<path class="st0" d="M77.9,30.5c-0.4-1.4-1.8-2.3-3.3-1.9c-1.4,0.4-2.3,1.8-1.9,3.3c0.4,1.4,1.8,2.3,3.3,1.9
					C77.5,33.3,78.3,31.9,77.9,30.5z"/>
				<path class="st0" d="M64.5,20.2c-0.7,0-1.4-0.3-1.9-0.8s-0.8-1.2-0.8-1.9c0-0.7,0.3-1.4,0.8-1.9c0.5-0.5,1.2-0.8,1.9-0.8
					c0.7,0,1.4,0.3,1.9,0.8c0.5,0.5,0.8,1.2,0.8,1.9c0,0.7-0.3,1.4-0.8,1.9C65.9,19.9,65.3,20.2,64.5,20.2z"/>
				<path class="st0" d="M66.4,15.6c-1-1-2.7-1-3.8,0c-1,1-1,2.7,0,3.8c1,1,2.7,1,3.8,0C67.5,18.4,67.5,16.7,66.4,15.6z"/>
				<path class="st0" d="M48.4,13.8c-0.2,0-0.5,0-0.7-0.1c-1.4-0.4-2.3-1.9-1.9-3.3c0.3-1.2,1.4-2,2.6-2c0.2,0,0.5,0,0.7,0.1
					c0.7,0.2,1.3,0.6,1.6,1.3c0.4,0.6,0.5,1.3,0.3,2C50.6,13,49.6,13.8,48.4,13.8L48.4,13.8z"/>
				<path class="st0" d="M47.7,13.7c1.4,0.4,2.9-0.5,3.3-1.9c0.4-1.4-0.5-2.9-1.9-3.3c-1.4-0.4-2.9,0.5-3.3,1.9
					C45.4,11.8,46.3,13.3,47.7,13.7z"/>
				<path class="st0" d="M31.1,16.4c-1.2,0-2.3-0.8-2.6-2c-0.4-1.4,0.5-2.9,1.9-3.3c0.2-0.1,0.5-0.1,0.7-0.1c1.2,0,2.3,0.8,2.6,2
					c0.2,0.7,0.1,1.4-0.3,2c-0.4,0.6-0.9,1.1-1.6,1.3C31.6,16.3,31.4,16.4,31.1,16.4z"/>
				<path class="st0" d="M31.8,16.2c1.4-0.4,2.3-1.8,1.9-3.3c-0.4-1.4-1.8-2.3-3.3-1.9c-1.4,0.4-2.3,1.8-1.9,3.3
					C29,15.8,30.4,16.6,31.8,16.2z"/>
				<path class="st0" d="M17.5,27.2c-0.7,0-1.4-0.3-1.9-0.8c-1-1-1-2.8,0-3.8c0.5-0.5,1.2-0.8,1.9-0.8c0.7,0,1.4,0.3,1.9,0.8
					c0.5,0.5,0.8,1.2,0.8,1.9c0,0.7-0.3,1.4-0.8,1.9S18.2,27.2,17.5,27.2L17.5,27.2z"/>
				<path class="st0" d="M19.4,22.6c-1-1-2.7-1-3.8,0c-1,1-1,2.7,0,3.8c1,1,2.7,1,3.8,0C20.4,25.3,20.4,23.7,19.4,22.6z"/>
				<path class="st0" d="M11.1,43.4c-0.2,0-0.5,0-0.7-0.1c-0.7-0.2-1.3-0.6-1.6-1.2c-0.4-0.6-0.5-1.3-0.3-2c0.3-1.2,1.4-2,2.6-2
					c0.2,0,0.5,0,0.7,0.1c1.4,0.4,2.3,1.9,1.9,3.3C13.4,42.5,12.3,43.4,11.1,43.4L11.1,43.4z"/>
				<path class="st0" d="M11.8,38.1c-1.4-0.4-2.9,0.5-3.3,1.9c-0.4,1.4,0.5,2.9,1.9,3.3s2.9-0.5,3.3-1.9
					C14.1,40,13.2,38.5,11.8,38.1z"/>
				<path class="st0" d="M13.7,60.6c-1.2,0-2.3-0.8-2.6-2c-0.4-1.4,0.5-2.9,1.9-3.3c0.2-0.1,0.5-0.1,0.7-0.1c1.2,0,2.3,0.8,2.6,2
					c0.4,1.4-0.5,2.9-1.9,3.3C14.1,60.6,13.9,60.6,13.7,60.6L13.7,60.6z"/>
				<path class="st0" d="M13,55.3c-1.4,0.4-2.3,1.8-1.9,3.3c0.4,1.4,1.8,2.3,3.3,1.9c1.4-0.4,2.3-1.8,1.9-3.3
					C15.9,55.8,14.4,55,13,55.3z"/>
				<path class="st0" d="M24.5,74.2c-0.7,0-1.4-0.3-1.9-0.8s-0.8-1.2-0.8-1.9s0.3-1.4,0.8-1.9s1.2-0.8,1.9-0.8s1.4,0.3,1.9,0.8
					c1,1,1,2.8,0,3.8C25.9,73.9,25.2,74.2,24.5,74.2L24.5,74.2z"/>
				<path class="st0" d="M26.4,69.6c-1-1-2.7-1-3.8,0c-1,1-1,2.7,0,3.8c1,1,2.7,1,3.8,0C27.4,72.4,27.4,70.7,26.4,69.6z"/>
				<path class="st0" d="M40.7,80.6c-0.2,0-0.5,0-0.7-0.1c-1.4-0.4-2.3-1.9-1.9-3.3c0.3-1.2,1.4-2,2.6-2c0.2,0,0.5,0,0.7,0.1
					c0.7,0.2,1.3,0.6,1.6,1.3c0.4,0.6,0.5,1.3,0.3,2C43,79.8,41.9,80.6,40.7,80.6L40.7,80.6z"/>
				<path class="st0" d="M41.4,75.4c-1.4-0.4-2.9,0.5-3.3,1.9c-0.4,1.4,0.5,2.9,1.9,3.3s2.9-0.5,3.3-1.9
					C43.6,77.2,42.8,75.7,41.4,75.4z"/>
				<path class="st0" d="M57.9,78.1c-1.2,0-2.3-0.8-2.6-2c-0.2-0.7-0.1-1.4,0.3-2c0.4-0.6,0.9-1.1,1.6-1.3c0.2-0.1,0.5-0.1,0.7-0.1
					c1.2,0,2.3,0.8,2.6,2c0.4,1.4-0.5,2.9-1.9,3.3C58.4,78,58.1,78.1,57.9,78.1L57.9,78.1z"/>
				<path class="st0" d="M57.2,72.8c-1.4,0.4-2.3,1.8-1.9,3.3c0.4,1.4,1.8,2.3,3.3,1.9c1.4-0.4,2.3-1.8,1.9-3.3
					C60.1,73.3,58.6,72.4,57.2,72.8z"/>
				<path class="st0" d="M71.5,67.2c-0.7,0-1.4-0.3-1.9-0.8s-0.8-1.2-0.8-1.9c0-0.7,0.3-1.4,0.8-1.9s1.2-0.8,1.9-0.8
					c0.7,0,1.4,0.3,1.9,0.8c1,1,1,2.7,0,3.8C72.9,67,72.2,67.2,71.5,67.2z"/>
				<path class="st0" d="M73.4,66.4c1-1,1-2.7,0-3.8c-1-1-2.7-1-3.8,0c-1,1-1,2.7,0,3.8C70.7,67.5,72.4,67.5,73.4,66.4z"/>
			</g>
			<g>
				<path class="st0" d="M85.9,58.7c-0.3,0-0.5,0-0.8-0.1c-0.8-0.2-1.5-0.7-1.9-1.5s-0.5-1.6-0.3-2.4c0.4-1.4,1.6-2.3,3-2.3
					c0.3,0,0.5,0,0.8,0.1c1.7,0.4,2.7,2.2,2.2,3.8C88.6,57.8,87.3,58.7,85.9,58.7L85.9,58.7z"/>
				<path class="st0" d="M86.7,52.6c-1.7-0.4-3.4,0.5-3.8,2.2s0.5,3.4,2.2,3.8c1.7,0.4,3.4-0.5,3.8-2.2
					C89.4,54.8,88.4,53.1,86.7,52.6z"/>
				<path class="st0" d="M85.9,36.6c-1.4,0-2.7-1-3-2.3c-0.2-0.8-0.1-1.7,0.3-2.4c0.4-0.7,1.1-1.2,1.9-1.5c0.3-0.1,0.5-0.1,0.8-0.1
					c1.4,0,2.6,1,3,2.3c0.2,0.8,0.1,1.6-0.3,2.4c-0.4,0.7-1.1,1.2-1.9,1.5C86.5,36.5,86.2,36.6,85.9,36.6L85.9,36.6z"/>
				<path class="st0" d="M86.7,36.4c1.7-0.4,2.6-2.1,2.2-3.8s-2.1-2.6-3.8-2.2c-1.7,0.4-2.6,2.1-2.2,3.8
					C83.4,35.9,85.1,36.9,86.7,36.4z"/>
				<path class="st0" d="M74.8,17.3c-0.8,0-1.6-0.3-2.2-0.9c-0.6-0.6-0.9-1.4-0.9-2.2c0-0.8,0.3-1.6,0.9-2.2
					c0.6-0.6,1.4-0.9,2.2-0.9c0.8,0,1.6,0.3,2.2,0.9c1.2,1.2,1.2,3.2,0,4.4C76.4,17,75.7,17.3,74.8,17.3L74.8,17.3z"/>
				<path class="st0" d="M72.6,16.4c1.2,1.2,3.2,1.2,4.4,0c1.2-1.2,1.2-3.2,0-4.4s-3.2-1.2-4.4,0C71.4,13.2,71.4,15.2,72.6,16.4z"/>
				<path class="st0" d="M55.6,6.3c-0.3,0-0.5,0-0.8-0.1c-1.7-0.4-2.7-2.2-2.2-3.8C53,1,54.2,0,55.6,0c0.3,0,0.5,0,0.8,0.1
					c1.7,0.4,2.7,2.2,2.2,3.8C58.3,5.3,57,6.3,55.6,6.3L55.6,6.3z"/>
				<path class="st0" d="M54.8,6.1c1.7,0.4,3.4-0.5,3.8-2.2c0.4-1.7-0.5-3.4-2.2-3.8c-1.7-0.4-3.3,0.5-3.8,2.2
					C52.2,4,53.2,5.7,54.8,6.1z"/>
				<path class="st0" d="M33.4,6.3c-1.4,0-2.7-1-3-2.3c-0.2-0.8-0.1-1.6,0.3-2.4c0.4-0.7,1.1-1.2,1.9-1.5C32.9,0,33.2,0,33.4,0
					c1.4,0,2.7,1,3,2.3c0.4,1.7-0.5,3.4-2.2,3.8C34,6.2,33.7,6.3,33.4,6.3L33.4,6.3z"/>
				<path class="st0" d="M34.2,6.1c1.7-0.4,2.6-2.1,2.2-3.8c-0.4-1.7-2.1-2.6-3.8-2.2C31,0.6,30,2.3,30.4,3.9
					C30.9,5.6,32.6,6.6,34.2,6.1z"/>
				<path class="st0" d="M14.2,17.3c-0.8,0-1.6-0.3-2.2-0.9c-0.6-0.6-0.9-1.4-0.9-2.2c0-0.8,0.3-1.6,0.9-2.2
					c0.6-0.6,1.4-0.9,2.2-0.9c0.8,0,1.6,0.3,2.2,0.9c0.6,0.6,0.9,1.4,0.9,2.2c0,0.8-0.3,1.6-0.9,2.2C15.8,17,15.1,17.3,14.2,17.3
					L14.2,17.3z"/>
				<path class="st0" d="M12,16.4c1.2,1.2,3.2,1.2,4.4,0c1.2-1.2,1.2-3.2,0-4.4s-3.2-1.2-4.4,0S10.8,15.2,12,16.4z"/>
				<path class="st0" d="M3.1,36.6c-0.3,0-0.5,0-0.8-0.1c-1.7-0.4-2.7-2.2-2.2-3.8c0.4-1.4,1.6-2.3,3-2.3c0.3,0,0.5,0,0.8,0.1
					c0.8,0.2,1.5,0.7,1.9,1.5c0.4,0.7,0.5,1.6,0.3,2.4C5.8,35.6,4.5,36.6,3.1,36.6L3.1,36.6z"/>
				<path class="st0" d="M3.9,30.4C2.3,30,0.6,31,0.1,32.6c-0.4,1.7,0.5,3.4,2.2,3.8c1.7,0.4,3.4-0.5,3.8-2.2
					C6.6,32.6,5.6,30.9,3.9,30.4z"/>
				<path class="st0" d="M3.1,58.7c-1.4,0-2.7-1-3-2.3C-0.1,55.6,0,54.8,0.4,54c0.4-0.7,1.1-1.2,1.9-1.5c0.3-0.1,0.5-0.1,0.8-0.1
					c1.4,0,2.6,1,3,2.3c0.2,0.8,0.1,1.6-0.3,2.4c-0.4,0.7-1.1,1.2-1.9,1.5C3.7,58.7,3.4,58.7,3.1,58.7L3.1,58.7z"/>
				<path class="st0" d="M2.3,52.6c-1.7,0.4-2.6,2.1-2.2,3.8s2.1,2.6,3.8,2.2c1.7-0.4,2.6-2.1,2.2-3.8C5.7,53.2,4,52.2,2.3,52.6z"/>
				<path class="st0" d="M14.2,78c-0.8,0-1.6-0.3-2.2-0.9c-1.2-1.2-1.2-3.2,0-4.4c0.6-0.6,1.4-0.9,2.2-0.9c0.8,0,1.6,0.3,2.2,0.9
					c0.6,0.6,0.9,1.4,0.9,2.2c0,0.8-0.3,1.6-0.9,2.2C15.8,77.6,15.1,78,14.2,78L14.2,78z"/>
				<path class="st0" d="M16.4,72.6c-1.2-1.2-3.2-1.2-4.4,0s-1.2,3.2,0,4.4c1.2,1.2,3.2,1.2,4.4,0S17.6,73.8,16.4,72.6z"/>
				<path class="st0" d="M33.4,89c-0.3,0-0.5,0-0.8-0.1c-0.8-0.2-1.5-0.7-1.9-1.5c-0.4-0.7-0.5-1.6-0.3-2.4c0.4-1.4,1.6-2.3,3-2.3
					c0.3,0,0.5,0,0.8,0.1c0.8,0.2,1.5,0.7,1.9,1.5s0.5,1.6,0.3,2.4C36.1,88.1,34.8,89,33.4,89L33.4,89z"/>
				<path class="st0" d="M34.2,82.9c-1.7-0.4-3.3,0.5-3.8,2.2c-0.4,1.7,0.5,3.4,2.2,3.8s3.3-0.5,3.8-2.2
					C36.9,85.1,35.9,83.4,34.2,82.9z"/>
				<path class="st0" d="M55.6,89c-1.4,0-2.6-1-3-2.3c-0.2-0.8-0.1-1.7,0.3-2.4c0.4-0.7,1.1-1.2,1.9-1.5c0.3-0.1,0.5-0.1,0.8-0.1
					c1.4,0,2.6,1,3,2.3c0.4,1.7-0.5,3.4-2.2,3.8C56.2,89,55.9,89,55.6,89L55.6,89z"/>
				<path class="st0" d="M54.8,82.9c-1.7,0.4-2.6,2.1-2.2,3.8c0.4,1.7,2.1,2.6,3.8,2.2c1.7-0.4,2.6-2.1,2.2-3.8
					C58.2,83.5,56.5,82.5,54.8,82.9z"/>
				<path class="st0" d="M74.8,77.9c-0.8,0-1.6-0.3-2.2-0.9s-0.9-1.4-0.9-2.2c0-0.8,0.3-1.6,0.9-2.2s1.4-0.9,2.2-0.9
					c0.8,0,1.6,0.3,2.2,0.9s0.9,1.4,0.9,2.2S77.6,76.4,77,77S75.7,77.9,74.8,77.9L74.8,77.9z"/>
				<path class="st0" d="M77,72.6c-1.2-1.2-3.2-1.2-4.4,0c-1.2,1.2-1.2,3.2,0,4.4c1.2,1.2,3.2,1.2,4.4,0
					C78.2,75.8,78.2,73.8,77,72.6z"/>
			</g>
		</g>
		<g>
			<path class="st1" d="M41.3,37h3.3c-0.2,0.9-1.6,8-1.7,8.1c0,0.4,0,0.7,0.2,0.9s0.4,0.3,0.6,0.3c0.1,0,0.3,0,0.4-0.1
				c0.4-0.1,0.7-0.3,1-0.5c0.1-0.1,0.2-0.1,0.3-0.2c0.1,0,0.1-0.1,0.1-0.2l1.7-8v-0.1l3.3-0.1c-0.1,0.9-1.2,6.1-1.6,8
				c0,0.1,0,0.3,0,0.4c0,0.4,0.2,0.7,0.6,0.8c0.1,0,0.3,0.1,0.4,0.1l0,0c0.2,0,0.4-0.1,0.6-0.2c0.3-0.2,0.7-0.4,1-0.7
				c0.3-0.2,0.7-0.5,1-0.8c0.2-0.2,0.5-0.3,0.8-0.3c0.1,0,0.2,0,0.4,0L53.1,45c-0.5,0.5-1,1-1.5,1.4c-0.5,0.5-1.1,0.9-1.7,1.4
				c-0.5,0.4-1.1,0.5-1.7,0.5c-0.4,0-0.8-0.1-1.3-0.2c-0.8-0.3-1.2-0.8-1.4-1.7c-0.1,0.1-0.2,0.3-0.4,0.4c-0.9,0.7-1.8,1.5-3,1.5
				L42,49.2L41.8,50l-0.1,0.2c0,0.2-0.1,0.4-0.1,0.5c0,0.4-0.2,0.5-0.6,0.6c-0.6,0.1-1.8,0.4-2.5,0.6C38.2,52,38,52,38,52L41.3,37z"
				/>
			<path class="st1" d="M53.8,44.3c-0.7,0.7-1.4,1.4-2.1,2.1c-0.5,0.5-1.1,1-1.7,1.4c-1,0.6-2,0.6-3,0.3c-0.8-0.3-1.2-0.8-1.4-1.7
				c-1,0.8-2,1.8-3.5,1.9c-0.1,0.6-0.2,1.1-0.4,1.7c-0.1,0.3-0.1,0.5-0.2,0.8c0,0.4-0.2,0.5-0.6,0.6c-0.9,0.2-2.8,0.7-3,0.7
				c1.1-5,2.1-10,3.2-15c1.1,0,2.1,0,3.2,0c-0.2,0.8-1.7,8-1.7,8.1c-0.1,0.9,0.5,1.4,1.3,1.1c0.5-0.1,0.9-0.5,1.3-0.7
				c0.1,0,0.1-0.2,0.1-0.3c0.6-2.7,1.1-5.3,1.7-8c0-0.1,0-0.1,0.1-0.2c1.1,0,2.1,0,3.2,0c-0.2,0.8-1.3,6.1-1.6,7.9
				c0,0.1,0,0.3,0,0.4c0,0.4,0.2,0.7,0.6,0.8s0.7,0.1,1.1-0.1c0.3-0.2,0.7-0.4,1-0.7s0.7-0.5,1-0.8C52.9,44.2,53.3,44.2,53.8,44.3z"
				/>
		</g>
	</g>
	<polygon class="st0" points="111.8,52.6 111.7,52.6 111.5,52.5 106.9,52.5 106.6,52.7 106.5,52.8 106.4,53 106.5,63.3 106.6,63.6 
		106.7,63.6 106.9,63.7 108,63.7 108.2,63.7 108.3,63.6 108.4,63.5 108.5,63.4 108.6,63.2 108.5,58.9 111.3,58.9 111.6,58.8 
		111.7,58.6 111.7,58.4 111.7,57.5 111.5,57.2 111.4,57.1 111.2,57.1 108.6,57.1 108.5,54.4 111.5,54.4 111.6,54.4 111.8,54.2 
		111.9,54.1 112,53.9 111.9,52.9 	"/>
	<path class="st0" d="M127.9,57.9c0-0.3,0-0.6-0.1-0.9c0-0.2-0.1-0.4-0.1-0.5c0-0.1,0-0.2,0-0.2c0-0.2-0.1-0.4-0.1-0.5
		c-0.2-0.7-0.4-1.3-0.8-1.8c-0.3-0.5-0.8-0.9-1.3-1.2c-0.5-0.3-1.1-0.5-1.8-0.5c-0.7,0-1.4,0.2-1.9,0.5s-0.9,0.7-1.3,1.2
		c-0.4,0.5-0.6,1.1-0.8,1.8c-0.2,0.7-0.3,1.5-0.3,2.3c0,0.8,0.1,1.6,0.3,2.3c0.2,0.8,0.4,1.4,0.8,1.9c0,0,0.1,0.1,0.1,0.1
		c0.3,0.5,0.8,0.9,1.3,1.2c0.5,0.3,1.1,0.4,1.8,0.4c0.6,0,1.2-0.1,1.8-0.4c0.5-0.3,0.9-0.7,1.3-1.2c0.4-0.5,0.6-1.1,0.8-1.8
		c0.2-0.7,0.3-1.5,0.3-2.3c0,0,0,0,0-0.1c0,0,0,0,0,0c0,0,0,0,0-0.1C127.9,58,127.9,58,127.9,57.9C127.9,58,127.9,57.9,127.9,57.9z
		 M122.8,61.8c-0.1-0.1-0.2-0.2-0.3-0.3c-0.1-0.1-0.2-0.3-0.3-0.4c-0.2-0.4-0.3-0.8-0.4-1.3c0-0.5-0.1-1-0.1-1.6
		c0-0.5,0-1.1,0.1-1.6s0.2-1,0.4-1.3c0.2-0.4,0.4-0.6,0.7-0.8c0.2-0.2,0.5-0.3,0.8-0.3c0.3,0,0.5,0.1,0.7,0.5
		c0.3,0.2,0.5,0.5,0.7,0.8c0.2,0.3,0.3,0.7,0.4,1.2c0.1,0.5,0.2,1,0.2,1.6c0,0.6-0.1,1.1-0.2,1.6c-0.1,0.5-0.2,0.9-0.4,1.3
		c0,0,0,0.1,0,0.1c-0.1,0.1-0.1,0.2-0.2,0.2c-0.1,0.1-0.2,0.2-0.3,0.3c-0.3,0.2-0.6,0.3-0.9,0.3C123.4,62.1,123.1,62,122.8,61.8z"/>
	<path class="st0" d="M143.2,52.6l-0.2-0.1h-1.2l-0.2,0.1h-0.1l-0.2,0.1l-0.1,0.1l-0.1,0.2v6.5c0,0.3,0,0.7-0.1,1
		c-0.1,0.3-0.2,0.6-0.3,0.8c-0.1,0.2-0.3,0.4-0.5,0.5c-0.2,0.1-0.5,0.2-0.8,0.2c-0.3,0-0.6-0.1-0.8-0.2c-0.1,0-0.2-0.1-0.2-0.2
		c-0.1-0.1-0.1-0.2-0.2-0.2c-0.2-0.2-0.3-0.5-0.3-0.8c-0.1-0.3-0.1-0.7-0.1-1V53l-0.2-0.3l-0.1-0.1l-0.2-0.1h-1.2l-0.3,0.2l-0.1,0.1
		l-0.1,0.2v6.6v0.1c0,0.6,0.1,1.1,0.2,1.6c0.1,0.5,0.3,1,0.6,1.4c0.2,0.2,0.4,0.4,0.6,0.6c0.2,0.1,0.4,0.2,0.6,0.3
		c0.4,0.2,1,0.3,1.7,0.3c0.4,0,0.7,0,1-0.1c0.3,0,0.6,0,0.9,0c0,0,0.1-0.1,0.1-0.1c0,0,0,0,0.1,0c0.5-0.3,0.9-0.6,1.2-1
		c0.3-0.4,0.5-0.9,0.6-1.4s0.2-1,0.2-1.6V53L143.2,52.6L143.2,52.6z"/>
	<polygon class="st0" points="159,52.6 158.9,52.6 158.6,52.5 157.5,52.5 157.3,52.7 157.2,52.8 157.1,53 157.2,59.6 154,52.7 
		153.7,52.5 152.2,52.5 151.9,52.7 151.8,52.8 151.8,53 151.8,63.2 151.8,63.3 152,63.6 152.1,63.6 152.3,63.7 153.4,63.7 
		153.7,63.5 153.8,63.4 153.8,63.2 153.8,56.8 157,63.5 157.3,63.7 158.7,63.7 158.8,63.7 158.9,63.6 159,63.5 159.1,63.4 
		159.2,63.2 159.1,52.9 	"/>
	<path class="st0" d="M175.6,56.9c-0.1-0.4-0.1-0.8-0.2-1.1c-0.1-0.3-0.2-0.7-0.4-1c-0.2-0.3-0.3-0.6-0.5-0.8
		c-0.1-0.1-0.2-0.3-0.4-0.4c-0.4-0.4-0.8-0.6-1.2-0.8c-0.6-0.3-1.2-0.4-1.9-0.4h-2.5l-0.3,0.2l-0.1,0.1l-0.1,0.2v10.3l0.2,0.3
		l0.1,0.1l0.2,0.1v0.1h2.5h0.1c0.7,0,1.3-0.2,1.9-0.4c0.6-0.3,1.1-0.6,1.5-1.1c0.4-0.5,0.7-1.1,0.9-1.8c0.2-0.6,0.3-1.4,0.3-2.3
		c0,0,0,0,0,0c0,0,0,0,0-0.1C175.7,57.7,175.7,57.3,175.6,56.9z M170.1,61.8v-7.2h0.8c0.4,0,0.7,0.1,1,0.2c0.3,0.1,0.6,0.3,0.8,0.6
		c0.3,0.2,0.5,0.6,0.6,1.1c0,0.1,0,0.2,0.1,0.3c0,0,0,0.1,0,0.1c0,0.1,0,0.2,0,0.3c0,0.3,0.1,0.6,0.1,0.9c0,0.3,0,0.6-0.1,0.8
		c0,0.3-0.1,0.6-0.1,0.8c-0.2,0.5-0.4,0.9-0.6,1.2c-0.2,0.2-0.5,0.5-0.8,0.6c-0.3,0.1-0.6,0.2-1,0.2H170.1z"/>
	<path class="st0" d="M187.3,52.5l-1.7,0.1h-0.1l-0.3,0.2L182.3,63l0,0l0,0.1l0,0l0,0.1l0,0l0,0.1l0.1,0.3l0.1,0.1l0.3,0.1l1.3-0.1
		l0.3-0.3l0.5-2.2l2.8-0.1l0.8,2.4l0.3,0.2v0.1h1.1l0.2-0.1h0.1h0.2l0.1-0.1l0.1-0.2l0.1-0.2V63l-3-10.3L187.3,52.5z M186.4,55.8
		l1,3.5l-1.9,0.1l0.5-1.8L186.4,55.8z"/>
	<polygon class="st0" points="202.8,52.5 202.6,52.5 197.1,52.5 197,52.5 196.8,52.7 196.7,52.8 196.6,53 196.7,54 196.8,54.3 
		197,54.4 197.2,54.4 198.8,54.3 198.8,63.3 199,63.6 199.1,63.7 199.3,63.7 200.4,63.7 200.6,63.7 200.7,63.6 200.8,63.5 
		200.9,63.4 201,63.2 200.9,54.4 202.7,54.4 203,54.2 203.1,54.1 203.1,54 203.1,53.9 203.1,53 203.1,52.9 202.9,52.6 	"/>
	<polygon class="st0" points="212.6,52.5 212.4,52.5 211.2,52.5 211.1,52.5 210.9,52.7 210.8,52.8 210.7,53 210.8,63.3 210.9,63.6 
		211.1,63.7 211.3,63.7 212.4,63.7 212.5,63.7 212.6,63.6 212.8,63.5 212.9,63.4 212.9,63.2 212.9,52.9 212.7,52.6 	"/>
	<path class="st0" d="M229.8,57.9c0-0.3,0-0.6-0.1-0.9c0-0.2-0.1-0.4-0.1-0.5c0-0.1,0-0.2,0-0.2c0-0.2-0.1-0.4-0.1-0.5
		c-0.2-0.7-0.4-1.3-0.8-1.8c-0.3-0.5-0.8-0.9-1.3-1.2s-1.1-0.5-1.8-0.5c-0.7,0-1.4,0.2-1.9,0.5s-0.9,0.7-1.3,1.2
		c-0.4,0.5-0.6,1.1-0.8,1.8c-0.2,0.7-0.3,1.5-0.3,2.3c0,0.8,0.1,1.6,0.3,2.3c0.2,0.8,0.4,1.4,0.8,1.9c0,0,0.1,0.1,0.1,0.1
		c0.3,0.5,0.8,0.9,1.3,1.2c0.5,0.3,1.1,0.4,1.8,0.4c0.7,0,1.3-0.1,1.8-0.4s0.9-0.7,1.3-1.2c0.4-0.5,0.6-1.1,0.8-1.8
		c0.2-0.7,0.3-1.5,0.3-2.3c0,0,0,0,0-0.1c0,0,0,0,0,0c0,0,0,0,0-0.1C229.8,58,229.8,58,229.8,57.9C229.8,58,229.8,57.9,229.8,57.9z
		 M224.7,61.8c-0.1-0.1-0.2-0.2-0.3-0.3c-0.1-0.1-0.2-0.3-0.3-0.4c-0.2-0.4-0.3-0.8-0.4-1.3c0-0.5-0.1-1-0.1-1.6
		c0-0.6,0-1.1,0.1-1.6c0.1-0.5,0.2-1,0.4-1.3c0.2-0.4,0.4-0.6,0.7-0.8c0.2-0.2,0.5-0.3,0.8-0.3c0.3,0,0.6,0.1,0.7,0.5
		c0.3,0.2,0.5,0.5,0.7,0.8c0.2,0.3,0.3,0.7,0.4,1.2c0,0.5,0.1,1,0.1,1.6c0,0.6,0,1.1-0.1,1.6c-0.1,0.5-0.2,0.9-0.4,1.3
		c0,0,0,0.1,0,0.1c-0.1,0.1-0.1,0.2-0.2,0.2c-0.1,0.1-0.2,0.2-0.3,0.3c-0.3,0.2-0.6,0.3-0.9,0.3S225,62,224.7,61.8z"/>
	<polygon class="st0" points="245.3,52.9 245.2,52.6 245.1,52.6 244.8,52.5 243.7,52.5 243.5,52.7 243.4,52.8 243.3,53 243.4,59.6 
		240.2,52.7 239.9,52.5 238.4,52.5 238.1,52.7 238,52.8 238,53 238,63.2 238,63.3 238.2,63.6 238.3,63.6 238.5,63.7 239.6,63.7 
		239.9,63.5 240,63.4 240,63.2 240,56.8 243.2,63.5 243.5,63.7 244.9,63.7 245,63.7 245.1,63.6 245.2,63.5 245.3,63.4 245.4,63.2 	
		"/>
	<path class="st0" d="M118.1,39.8V28.3H118l-3.8,11.6h-1.9l-3.7-11.6h-0.1v11.6h-2v-14h3.2l3.6,11.1h0.1l3.6-11.1h3.3v14h-2.2V39.8z
		"/>
	<path class="st0" d="M133.1,39.8v-14h2.2v14H133.1z"/>
	<path class="st0" d="M155.7,39.7c-0.7,0.3-1.5,0.5-2.4,0.5s-1.8-0.2-2.5-0.6c-0.8-0.4-1.4-0.9-1.9-1.5c-0.5-0.7-0.9-1.4-1.2-2.3
		c-0.3-0.9-0.4-1.9-0.4-2.9c0-1.1,0.1-2,0.4-2.9c0.3-0.9,0.7-1.7,1.2-2.3c0.5-0.7,1.2-1.2,1.9-1.5c0.7-0.4,1.6-0.6,2.5-0.6
		s1.7,0.1,2.4,0.4s1.3,0.7,1.8,1.3l-1.3,1.2c-0.4-0.4-0.8-0.7-1.2-0.9c-0.5-0.2-1-0.3-1.5-0.3c-0.7,0-1.2,0.2-1.7,0.5
		s-0.9,0.7-1.2,1.2s-0.5,1.1-0.7,1.8c-0.2,0.7-0.2,1.4-0.2,2.2s0.1,1.5,0.2,2.2c0.2,0.7,0.4,1.3,0.7,1.8s0.7,0.9,1.2,1.2
		s1.1,0.5,1.7,0.5c0.6,0,1.1-0.1,1.6-0.4c0.5-0.3,0.8-0.6,1.1-1l1.3,1.2C156.9,38.9,156.4,39.3,155.7,39.7z"/>
	<path class="st0" d="M176,39.8l-2.9-6.2h-2v6.2H169v-14h4.4c0.6,0,1.2,0.1,1.8,0.2s1,0.4,1.5,0.7c0.4,0.3,0.7,0.7,1,1.2
		c0.2,0.5,0.4,1.1,0.4,1.8c0,0.6-0.1,1.1-0.3,1.5s-0.4,0.8-0.7,1.1s-0.6,0.5-0.9,0.7c-0.3,0.2-0.7,0.3-1,0.3l3.2,6.6L176,39.8
		L176,39.8z M175.8,29.7c0-0.5-0.1-0.9-0.2-1.2c-0.2-0.3-0.4-0.5-0.6-0.7c-0.3-0.2-0.6-0.3-0.9-0.4c-0.3-0.1-0.7-0.1-1-0.1h-1.9v4.9
		h2c0.8,0,1.5-0.2,2-0.6C175.6,31.1,175.8,30.5,175.8,29.7z"/>
	<path class="st0" d="M201.3,32.8c0,1.1-0.1,2.1-0.4,3c-0.3,0.9-0.6,1.7-1.2,2.3c-0.5,0.6-1.1,1.1-1.8,1.5c-0.7,0.4-1.5,0.5-2.4,0.5
		s-1.7-0.2-2.4-0.5c-0.7-0.4-1.3-0.9-1.8-1.5s-0.9-1.4-1.2-2.3c-0.3-0.9-0.4-1.9-0.4-3c0-1.1,0.1-2.1,0.4-3c0.3-0.9,0.6-1.7,1.1-2.3
		c0.5-0.6,1.1-1.1,1.8-1.5c0.7-0.3,1.6-0.5,2.5-0.5s1.7,0.2,2.4,0.5c0.7,0.3,1.3,0.8,1.8,1.5c0.5,0.6,0.9,1.4,1.2,2.3
		C201.1,30.7,201.3,31.7,201.3,32.8z M199,32.8c0-0.8-0.1-1.5-0.2-2.2c-0.2-0.7-0.4-1.3-0.7-1.8c-0.3-0.5-0.7-0.9-1.1-1.2
		c-0.4-0.3-0.9-0.4-1.5-0.4s-1.1,0.1-1.6,0.4c-0.4,0.3-0.8,0.7-1.1,1.2s-0.5,1.1-0.7,1.8c-0.1,0.7-0.2,1.4-0.2,2.2
		c0,0.8,0.1,1.5,0.2,2.2c0.1,0.7,0.4,1.3,0.7,1.8s0.7,0.9,1.1,1.2c0.4,0.3,1,0.4,1.6,0.4s1.1-0.1,1.5-0.4c0.4-0.3,0.8-0.7,1.1-1.2
		c0.3-0.5,0.5-1.1,0.7-1.8C198.9,34.4,199,33.6,199,32.8z"/>
	<path class="st0" d="M221.2,39.8L215.7,29h-0.1v10.8h-2v-14h2.6l5.4,10.9h0.1V25.9h2v14h-2.5V39.8z"/>
	<path class="st0" d="M244.3,39.8l-1-3.3h-4.9l-1,3.3h-2.2l4.3-14h2.9l4.2,14H244.3z M241,27.5L241,27.5l-2.3,7.6h4.3L241,27.5z"/>
	<path class="st0" d="M267.9,37c-0.2,0.6-0.5,1.2-0.9,1.6c-0.4,0.5-0.9,0.8-1.6,1.1c-0.6,0.3-1.4,0.4-2.4,0.4
		c-0.9,0-1.7-0.1-2.4-0.4c-0.6-0.3-1.1-0.6-1.5-1.1s-0.7-1-0.9-1.6c-0.2-0.6-0.3-1.3-0.3-2v-9.2h2.2v9c0,0.5,0,0.9,0.1,1.4
		c0.1,0.4,0.2,0.8,0.5,1.2c0.2,0.3,0.5,0.6,0.9,0.8s0.9,0.3,1.4,0.3c0.6,0,1-0.1,1.4-0.3s0.7-0.5,0.9-0.8c0.2-0.3,0.4-0.7,0.5-1.2
		c0.1-0.4,0.1-0.9,0.1-1.4v-9h2.2V35C268.1,35.8,268,36.4,267.9,37z"/>
	<path class="st0" d="M285.1,27.4v12.5h-2.2V27.4h-3.2v-1.5h8.6v1.5H285.1z"/>
	<g>
		<path class="st0" d="M250.8,53v2.6h-0.6V53h-0.8v-0.5h2.2V53H250.8z M254.5,55.6l-0.1-1.9l-0.8,1.9l-0.3,0l-0.8-1.9l-0.1,1.9h-0.6
			l0.2-3.1h0.5l0.9,2.2l0.9-2.2h0.5l0.2,3.1H254.5z"/>
	</g>
</g>
</svg>
