<?xml version="1.0" encoding="iso-8859-1"?>
<!-- Uploaded to: SVG Repo, www.svgrepo.com, Generator: SVG Repo Mixer Tools -->
<svg fill="#000000" height="800px" width="800px" version="1.1" id="Layer_1" xmlns="http://www.w3.org/2000/svg" xmlns:xlink="http://www.w3.org/1999/xlink" 
	 viewBox="0 0 500.001 500.001" xml:space="preserve">
<g>
	<g>
		<path d="M252.005,254.641L33.001,127.589c-1.232-0.716-2.756-0.72-4.004-0.004c-1.24,0.712-2.004,2.036-2.004,3.464v237.908
			c0,1.424,0.756,2.744,1.992,3.46l219.004,127.044c0.62,0.36,1.316,0.54,2.008,0.54c0.688,0,1.38-0.18,1.996-0.536
			c1.24-0.712,2.004-2.036,2.004-3.464v-237.9C253.997,256.677,253.241,255.357,252.005,254.641z M245.997,489.057L34.993,366.649
			V137.993l211.004,122.412V489.057z"/>
	</g>
</g>
<g>
	<g>
		<path d="M471.001,127.581c-1.244-0.716-2.764-0.712-4.008,0.012L248.381,254.645c-1.904,1.108-2.556,3.556-1.444,5.468
			c1.108,1.908,3.556,2.544,5.468,1.444l212.6-123.56v228.656l-216.7,125.892c-1.908,1.108-2.56,3.552-1.448,5.464
			c0.74,1.28,2.08,1.992,3.46,1.992c0.684,0,1.376-0.176,2.004-0.54l218.692-127.048c1.236-0.712,1.992-2.032,1.992-3.456V131.049
			C473.005,129.621,472.241,128.297,471.001,127.581z"/>
	</g>
</g>
<g>
	<g>
		<path d="M471.017,127.593L252.569,0.545c-1.24-0.724-2.768-0.728-4.016-0.004L28.989,127.589
			c-1.908,1.104-2.564,3.548-1.456,5.464c1.1,1.908,3.544,2.564,5.464,1.456L250.553,8.625l216.44,125.88
			c0.632,0.368,1.324,0.544,2.008,0.544c1.38,0,2.72-0.712,3.46-1.988C473.577,131.153,472.929,128.701,471.017,127.593z"/>
	</g>
</g>
<g>
	<g>
		<path d="M319.305,188.821L124.481,75.673c-1.904-1.108-4.356-0.464-5.464,1.448c-1.116,1.908-0.464,4.356,1.448,5.464
			l194.824,113.148c0.632,0.368,1.32,0.544,2.004,0.544c1.38,0,2.72-0.712,3.46-1.992
			C321.869,192.377,321.217,189.929,319.305,188.821z"/>
	</g>
</g>
<g>
	<g>
		<path d="M381.457,180.329l-218.02-126.62c-1.904-1.112-4.356-0.464-5.464,1.448c-1.116,1.908-0.464,4.356,1.448,5.464
			l218.02,126.62c0.632,0.368,1.32,0.544,2.004,0.544c1.38,0,2.72-0.712,3.46-1.992
			C384.021,183.885,383.369,181.437,381.457,180.329z"/>
	</g>
</g>
<g>
	<g>
		<path d="M339.945,203.069c-2.212,0-4,1.788-4,4v234.56c0,2.212,1.788,4,4,4c2.212,0,4-1.788,4-4v-234.56
			C343.945,204.857,342.157,203.069,339.945,203.069z"/>
	</g>
</g>
<g>
	<g>
		<path d="M379.057,179.517c-2.212,0-4,1.788-4,4v215.092c0,2.212,1.788,4,4,4c2.208,0,4-1.788,4-4V183.517
			C383.057,181.305,381.269,179.517,379.057,179.517z"/>
	</g>
</g>
</svg>