<?xml version="1.0" encoding="UTF-8"?>
<!-- Generated by Pixelmator Pro 3.6.8 -->
<svg width="800" height="800" viewBox="0 0 800 800" xmlns="http://www.w3.org/2000/svg">
    <path id="Path" fill="#ffffff" stroke="none" d="M 126.432816 589.156982 L 315.625 589.156982 L 315.625 686.1875 L 217.1875 686.1875 C 211.651321 686.169922 206.528137 689.113342 203.754944 693.904907 C 200.981766 698.696411 200.981766 704.60498 203.754944 709.396484 C 206.528137 714.18811 211.651321 717.131531 217.1875 717.113892 L 582.8125 717.113892 C 588.348694 717.131531 593.471863 714.18811 596.245056 709.396484 C 599.01825 704.60498 599.01825 698.696411 596.245056 693.904907 C 593.471863 689.113342 588.348694 686.169922 582.8125 686.1875 L 484.375 686.1875 L 484.375 589.156982 L 673.57251 589.156982 C 713.135071 589.145935 746.418823 559.50769 750.998718 520.21106 L 49 520.21106 C 53.585381 559.507507 86.869759 589.14386 126.432816 589.156982 Z"/>
    <path id="path1" fill="#ffffff" stroke="none" d="M 673.573303 82.886536 L 126.433601 82.886536 C 83.357819 82.887085 48.438107 117.806702 48.4375 160.882507 L 48.4375 489.283752 L 751.5625 489.283752 L 751.5625 160.882507 C 751.563721 140.19751 743.347656 120.359192 728.721741 105.732056 C 714.095886 91.104919 694.258301 82.887085 673.573303 82.886536 Z M 314.430298 361.877502 C 319.170593 368.984192 317.252258 378.588074 310.145538 383.328369 C 303.038849 388.068665 293.434967 386.150299 288.694702 379.04361 L 232.444687 294.66861 C 228.98407 289.469788 228.98407 282.701294 232.444687 277.502502 L 288.694702 193.127502 C 293.434967 186.020813 303.038849 184.102478 310.145538 188.842712 C 317.252258 193.583008 319.170593 203.18689 314.430298 210.293579 L 263.90625 286.085449 Z M 449.919067 178.199829 L 379.606567 403.19986 C 377.968567 408.487122 373.630066 412.496033 368.230133 413.712067 C 362.83017 414.928101 357.192017 413.165863 353.44577 409.091034 C 349.699524 405.016266 348.416321 399.250183 350.080933 393.971252 L 420.393433 168.971252 C 422.031403 163.68396 426.369904 159.675049 431.769897 158.458984 C 437.16983 157.242981 442.807953 159.005249 446.55423 163.080017 C 450.300446 167.154846 451.583679 172.920898 449.919067 178.199829 Z M 567.555359 294.66861 L 511.305328 379.04361 C 506.565033 386.150299 496.961151 388.068665 489.854431 383.328369 C 482.747742 378.588074 480.829376 368.984192 485.569672 361.877502 L 536.09375 286.085449 L 485.570343 210.293579 C 480.830048 203.18689 482.748352 193.583008 489.855103 188.842712 C 496.961792 184.102478 506.565674 186.020813 511.305939 193.127502 L 567.555969 277.502502 C 571.016357 282.701416 571.016113 289.46994 567.555359 294.66861 Z"/>
</svg>
