<?xml version="1.0" encoding="UTF-8"?>
<!-- Generated by Pixelmator Pro 3.6.8 -->
<svg width="800" height="800" viewBox="0 0 800 800" xmlns="http://www.w3.org/2000/svg">
    <path id="Path" fill="#ffffff" stroke="none" d="M 399.200012 66.400024 C 338.933329 66.400024 282.933324 81.600016 231.199997 112 C 181.066666 141.333333 141.333333 181.066671 112 231.200012 C 81.600001 282.933329 66.400002 338.933329 66.400002 399.200012 C 66.400002 459.466675 81.600001 515.466675 112 567.200012 C 141.333333 617.333354 181.066666 657.066691 231.199997 686.400024 C 282.933324 716.800008 338.933329 732 399.200012 732 C 459.466675 732 515.466675 716.800008 567.200012 686.400024 C 617.333354 657.066691 657.066691 617.333354 686.400024 567.200012 C 716.800008 515.466675 732 459.466675 732 399.200012 C 732 338.933329 716.800008 282.933329 686.400024 231.200012 C 657.066691 181.066671 617.333354 141.333333 567.200012 112 C 515.466675 81.600016 459.466675 66.400024 399.200012 66.400024 Z M 399.200012 665.599976 C 351.200012 665.599976 306.400004 653.333313 264.799988 628.799988 C 224.799998 605.333313 193.066671 573.599976 169.600006 533.599976 C 145.066671 492 132.800003 447.200012 132.800003 399.200012 C 132.800003 351.200012 145.066671 306.400004 169.600006 264.799988 C 193.066671 224.799988 224.799998 193.06665 264.799988 169.599976 C 306.400004 145.06665 351.200012 132.799988 399.200012 132.799988 C 447.200012 132.799988 492 145.06665 533.599976 169.599976 C 573.599976 193.06665 605.333313 224.799988 628.799988 264.799988 C 653.333313 306.400004 665.599976 351.200012 665.599976 399.200012 C 665.599976 447.200012 653.333313 492 628.799988 533.599976 C 605.333313 573.599976 573.599976 605.333313 533.599976 628.799988 C 492 653.333313 447.200012 665.599976 399.200012 665.599976 Z M 416 232.799988 L 365.600006 232.799988 L 365.600006 432.799988 L 540.799988 536.799988 L 565.599976 496 L 416 407.200012 L 416 232.799988 Z"/>
</svg>
