<?xml version="1.0" encoding="UTF-8"?>
<!-- Generated by Pixelmator Pro 3.6.8 -->
<svg width="800" height="800" viewBox="0 0 800 800" xmlns="http://www.w3.org/2000/svg">
    <path id="Path" fill="#ffffff" stroke="none" d="M 392.906677 200 L 166.666672 200 L 166.666672 300 L 356.51001 300 L 392.906677 200 Z"/>
    <path id="path1" fill="#ffffff" stroke="none" d="M 332.244995 366.666656 L 166.666672 366.666656 L 166.666672 466.666656 L 295.847992 466.666656 L 332.244995 366.666656 Z"/>
    <path id="path2" fill="#ffffff" stroke="none" d="M 366.793335 466.666656 L 403.190002 366.666656 L 666.666687 366.666656 L 666.666687 466.666656 L 366.793335 466.666656 Z"/>
    <path id="path3" fill="#ffffff" stroke="none" d="M 271.583344 533.333374 L 166.666672 533.333374 L 166.666672 633.333313 L 235.18634 633.333313 L 271.583344 533.333374 Z"/>
    <path id="path4" fill="#ffffff" stroke="none" d="M 306.131317 633.333313 L 342.529999 533.333374 L 666.666687 533.333374 L 666.666687 633.333313 L 306.131317 633.333313 Z"/>
    <path id="path5" fill="#ffffff" stroke="none" d="M 427.453339 300 L 463.853333 200 L 666.666687 200 L 666.666687 300 L 427.453339 300 Z"/>
</svg>
