<?xml version="1.0" encoding="UTF-8"?>
<!-- Generated by Pixelmator Pro 3.6.8 -->
<svg width="800" height="800" viewBox="0 0 800 800" xmlns="http://www.w3.org/2000/svg">
    <path id="-Color" fill="#ffffff" stroke="none" d="M 483.334656 448.118347 L 488.490265 452.99408 L 682.773804 648.550598 L 683.118164 645.965759 L 683.333313 641.705566 L 683.333313 458.294434 C 683.333313 444.487274 694.526245 433.294434 708.333313 433.294434 C 720.989868 433.294434 731.449707 442.699524 733.105103 454.902039 L 733.333313 458.294434 L 733.333313 641.705566 C 733.333313 690.456665 695.276489 730.319092 647.250732 733.204956 L 641.666687 733.372253 L 458.333344 733.372253 C 444.526215 733.372253 433.333344 722.179321 433.333344 708.372253 C 433.333344 695.715698 442.738464 685.255859 454.940979 683.600464 L 458.333344 683.372253 L 641.666687 683.372253 C 643.31366 683.372253 644.938416 683.276672 646.535522 683.090759 L 453.134918 488.349426 C 425.240326 460.454834 380.839569 459.126495 351.372986 484.364471 L 347.068909 488.349426 L 151.521576 682.818237 L 154.073166 683.157166 L 158.333328 683.372253 L 341.666656 683.372253 L 345.059021 683.600464 C 357.261536 685.255859 366.666656 695.715698 366.666656 708.372253 C 366.666656 721.028748 357.261536 731.488586 345.059021 733.144043 L 341.666656 733.372253 L 158.333328 733.372253 L 152.749252 733.204956 C 106.644516 730.434448 69.727165 693.586487 66.847542 647.51123 L 66.666664 641.705566 L 66.666664 458.294434 L 66.89489 454.902039 C 68.550301 442.699524 79.010147 433.294434 91.666664 433.294434 C 104.323189 433.294434 114.783035 442.699524 116.438446 454.902039 L 116.666664 458.294434 L 116.666664 641.705566 L 116.966667 646.594421 L 311.713562 452.99408 C 358.845795 405.861847 434.252472 404.236603 483.334656 448.118347 Z M 534.11792 200.3927 C 571.063965 200.3927 601.014709 230.343445 601.014709 267.28949 C 601.014709 304.235626 571.063965 334.186371 534.11792 334.186371 C 497.171783 334.186371 467.221039 304.235626 467.221039 267.28949 C 467.221039 230.343445 497.171783 200.3927 534.11792 200.3927 Z M 341.666656 66.627747 C 355.473785 66.627747 366.666656 77.820618 366.666656 91.627747 C 366.666656 104.284241 357.261536 114.74408 345.059021 116.399536 L 341.666656 116.627747 L 158.333328 116.627747 C 136.759705 116.627747 119.015533 133.02356 116.881783 154.034241 L 116.666664 158.294434 L 116.666664 341.705566 C 116.666664 355.512726 105.473785 366.705566 91.666664 366.705566 C 79.010147 366.705566 68.550301 357.300476 66.89489 345.097961 L 66.666664 341.705566 L 66.666664 158.294434 C 66.666664 109.543335 104.723488 69.680908 152.749252 66.795044 L 158.333328 66.627747 L 341.666656 66.627747 Z M 641.666687 66.627747 L 647.250732 66.795044 C 693.355469 69.565491 730.272888 106.413513 733.152466 152.48877 L 733.333313 158.294434 L 733.333313 341.705566 L 733.105103 345.097961 C 731.449707 357.300476 720.989868 366.705566 708.333313 366.705566 C 695.676819 366.705566 685.21698 357.300476 683.561584 345.097961 L 683.333313 341.705566 L 683.333313 158.294434 L 683.118164 154.034241 C 681.126709 134.424255 665.536804 118.834351 645.92688 116.842896 L 641.666687 116.627747 L 458.333344 116.627747 L 454.940979 116.399536 C 442.738464 114.74408 433.333344 104.284241 433.333344 91.627747 C 433.333344 78.971191 442.738464 68.511353 454.940979 66.855957 L 458.333344 66.627747 L 641.666687 66.627747 Z M 534.11792 250.3927 C 524.786011 250.3927 517.221008 257.957642 517.221008 267.28949 C 517.221008 276.621399 524.786011 284.18634 534.11792 284.18634 C 543.449707 284.18634 551.014709 276.621399 551.014709 267.28949 C 551.014709 257.957642 543.449707 250.3927 534.11792 250.3927 Z"/>
</svg>
