<?xml version="1.0" encoding="UTF-8"?>
<!-- Generated by Pixelmator Pro 3.6.8 -->
<svg width="512" height="512" viewBox="0 0 512 512" xmlns="http://www.w3.org/2000/svg">
    <path id="Path" fill="#ffffff" stroke="none" d="M 233.712006 329.351013 C 158.757004 329.351013 97.776001 268.369995 97.776001 193.414978 L 97.776001 97.932007 C 97.776001 90.15799 104.079002 83.855011 111.852997 83.855011 C 119.626999 83.855011 125.93 90.156982 125.93 97.932007 L 125.93 193.416016 C 125.93 252.848999 174.281006 301.199005 233.712997 301.199005 C 293.144989 301.199005 341.496002 252.848022 341.496002 193.416016 L 341.496002 168.612 C 341.496002 160.838013 347.799011 154.535004 355.572998 154.535004 C 363.346008 154.535004 369.649994 160.837006 369.649994 168.612 L 369.649994 193.416016 C 369.64801 268.369995 308.666992 329.351013 233.712006 329.351013 Z"/>
    <path id="path1" fill="#ffffff" stroke="none" d="M 380.006989 112.007996 L 87.416 112.007996 C 79.642998 112.007996 73.338997 105.705994 73.338997 97.931 C 73.338997 90.156006 79.641998 83.854004 87.416 83.854004 L 380.005005 83.854004 C 387.778015 83.854004 394.082001 90.156006 394.082001 97.931 C 394.082001 105.705994 387.779999 112.007996 380.006989 112.007996 Z"/>
    <path id="path2" fill="#ffffff" stroke="none" d="M 189.431 97.932007 L 139.768997 97.932007 L 139.768997 38.90799 C 139.768997 25.195007 150.886993 14.076996 164.600006 14.076996 L 164.600006 14.076996 C 178.313004 14.076996 189.431 25.195007 189.431 38.90799 L 189.431 97.932007 Z"/>
    <path id="path3" fill="#ffffff" stroke="none" d="M 189.431 112.007996 L 139.768997 112.007996 C 131.996002 112.007996 125.692001 105.705994 125.692001 97.931 L 125.692001 38.90799 C 125.693001 17.453003 143.145996 0 164.600006 0 C 186.052994 0 203.507996 17.453003 203.507996 38.90799 L 203.507996 97.932007 C 203.507996 105.705994 197.203995 112.007996 189.431 112.007996 Z M 153.845993 83.855011 L 175.354996 83.855011 L 175.354996 38.90799 C 175.354996 32.977997 170.531006 28.153992 164.600998 28.153992 C 158.671005 28.153992 153.845001 32.977997 153.845001 38.90799 L 153.845001 83.856018 L 153.845993 83.856018 Z"/>
    <path id="path4" fill="#ffffff" stroke="none" d="M 327.653015 112.007996 L 277.992004 112.007996 C 270.218994 112.007996 263.915009 105.705994 263.915009 97.931 L 263.915009 38.90799 C 263.915985 17.453003 281.368988 0 302.822998 0 C 324.277008 0 341.730988 17.453003 341.730988 38.90799 L 341.730988 97.932007 C 341.730011 105.705994 335.428009 112.007996 327.653015 112.007996 Z M 292.069 83.855011 L 313.576996 83.855011 L 313.576996 38.90799 C 313.576996 32.977997 308.752991 28.153992 302.822998 28.153992 C 296.893005 28.153992 292.069 32.977997 292.069 38.90799 L 292.069 83.856018 L 292.069 83.856018 Z"/>
    <path id="path5" fill="#ffffff" stroke="none" d="M 286.509003 377.285004 L 180.914001 377.285004 C 173.141006 377.285004 166.837006 370.983002 166.837006 363.208008 L 166.837006 301.705994 C 166.837006 293.932007 173.139999 287.628998 180.914001 287.628998 L 286.509003 287.628998 C 294.282013 287.628998 300.585999 293.931 300.585999 301.705994 L 300.585999 363.208008 C 300.584991 370.983002 294.282013 377.285004 286.509003 377.285004 Z M 194.990005 349.131989 L 272.432007 349.131989 L 272.432007 315.78299 L 194.990005 315.78299 L 194.990005 349.131989 Z"/>
    <path id="path6" fill="#ffffff" stroke="none" d="M 281.429993 512 C 247.356003 512 219.634995 484.278992 219.634995 450.204987 L 219.634995 363.209991 C 219.634995 355.436005 225.938004 349.132996 233.712006 349.132996 C 241.485001 349.132996 247.789001 355.434998 247.789001 363.209991 L 247.789001 450.205994 C 247.789001 468.756012 262.880005 483.846985 281.428986 483.846985 C 299.977997 483.846985 315.071014 468.756012 315.071014 450.205994 L 315.071014 439.938995 C 315.071014 432.164001 321.373993 425.862 329.14801 425.862 C 336.92099 425.862 343.225006 432.164001 343.225006 439.938995 L 343.225006 450.205994 C 343.225006 484.278015 315.503998 512 281.429993 512 Z"/>
    <path id="path7" fill="#ffffff" stroke="none" d="M 424.584015 444.15799 C 416.811005 444.15799 410.506989 437.855988 410.506989 430.080994 L 410.506989 355.304993 C 410.506989 336.755005 395.414001 321.662994 376.865997 321.662994 C 358.317993 321.662994 343.223999 336.753998 343.223999 355.304993 L 343.223999 372.717987 C 343.223999 380.492004 336.92099 386.795013 329.147003 386.795013 C 321.373993 386.795013 315.070007 380.493011 315.070007 372.717987 L 315.070007 355.304993 C 315.070007 321.230988 342.790985 293.51001 376.86499 293.51001 C 410.938995 293.51001 438.660004 321.230988 438.660004 355.304993 L 438.660004 430.080994 C 438.661011 437.855988 432.359009 444.15799 424.584015 444.15799 Z"/>
    <path id="path8" fill="#ffffff" stroke="none" d="M 286.509003 166.614014 L 111.850998 166.614014 C 104.078003 166.614014 97.774002 160.312012 97.774002 152.536987 C 97.774002 144.763 104.077003 138.460022 111.850998 138.460022 L 286.506989 138.460022 C 294.279999 138.460022 300.584015 144.761993 300.584015 152.536987 C 300.584015 160.312012 294.282013 166.614014 286.509003 166.614014 Z"/>
</svg>
