<?xml version="1.0" encoding="utf-8"?>
<!-- Generator: Adobe Illustrator 24.3.0, SVG Export Plug-In . SVG Version: 6.00 Build 0)  -->
<svg version="1.1" id="Ebene_1" xmlns="http://www.w3.org/2000/svg" xmlns:xlink="http://www.w3.org/1999/xlink" x="0px" y="0px"
	 viewBox="0 0 94 94" style="enable-background:new 0 0 94 94;" xml:space="preserve">
<style type="text/css">
	.st0{fill:#FFFFFF;}
</style>
<g>
	<path class="st0" d="M47,0c26,0,47,21,47,47S73,94,47,94S0,73,0,47S21,0,47,0"/>
	<g>
		<path d="M42.1,41c-0.3-0.2-0.6-0.2-0.9-0.3c-1.1-0.3-2.4-0.5-3.4-0.3c-2.2,0.3-3.9,1.3-5.3,3c-1.1,1.4-1.6,3-1.7,4.7
			c0,0.5-0.2,1.1-0.2,1.6c-0.3,0-0.8-0.2-1.1-0.2c-0.9-0.2-1.9-0.3-2.8-0.2c-3.4,0.5-5.5,3.8-4.5,7c0.6,2.5,2.8,4.1,5.3,4.1
			c11.8,0,23.7,0,35.4,0c0.3,0,0.6,0,0.8,0c1.1-0.2,2.2-0.5,3.1-1.1c1.7-0.9,2.8-2.4,3.4-4.2c0.5-1.3,0.3-2.7,0.2-3.9
			c-0.5-2.3-1.9-4.2-4.1-5.3c-1.1-0.6-2.2-0.8-3.4-0.8c-0.3,0-0.6-0.2-1.1-0.2c0-0.5,0-1.1,0-1.6c0-0.6,0-1.1-0.2-1.7
			c-0.8-3.3-2.8-5.6-6-7c-1.7-0.8-3.6-0.9-5.5-0.6c-1.6,0.2-3.1,0.9-4.5,2c-1.3,1.1-2.2,2.2-2.8,3.8C42.6,40.1,42.5,40.6,42.1,41
			 M17.5,54.2c0-0.3,0.2-0.8,0.2-1.1c0.3-2,1.3-3.8,2.7-5.2c1.3-1.4,3-2.4,4.9-2.8c0.5-0.2,1.1-0.2,1.6-0.3c0.2,0,0.2,0,0.2-0.2
			c0.5-1.7,1.4-3.1,2.5-4.4c1.7-2,3.9-3.3,6.6-3.9c1.3-0.3,2.4-0.3,3.6-0.3c0.2,0,0.3,0,0.3-0.2c2.3-3.3,5.3-5.3,9.2-6.1
			c1.6-0.3,3.3-0.3,4.9-0.2c2.7,0.5,5,1.4,7,3.1c2.7,2.2,4.2,4.9,5,8.1c0,0.2,0.2,0.2,0.2,0.2c3.3,0.9,5.6,2.8,7.4,5.8
			c0.9,1.6,1.4,3.3,1.6,5c0.3,3.6-0.8,6.6-3.3,9.2c-1.7,1.9-3.9,3.1-6.6,3.8c-0.8,0.2-1.4,0.3-2.2,0.3c-11.9,0-23.8,0-35.9,0
			c-2.8,0-5.3-1.1-7.2-3.3c-1.4-1.6-2.2-3.3-2.5-5.5c0-0.2,0-0.5-0.2-0.6v-1.6H17.5z"/>
	</g>
</g>
</svg>
