<?xml version="1.0" encoding="UTF-8"?>
<!-- Generated by Pixelmator Pro 3.6.8 -->
<svg width="800" height="800" viewBox="0 0 800 800" xmlns="http://www.w3.org/2000/svg">
    <path id="Path" fill="#ffffff" stroke="none" d="M 283.333344 233.333313 C 320.152344 233.333313 350 203.485657 350 166.666687 C 350 129.847656 320.152344 100 283.333344 100 C 246.514343 100 216.666672 129.847656 216.666672 166.666687 C 216.666672 203.485657 246.514343 233.333313 283.333344 233.333313 Z"/>
    <path id="path1" fill="#ffffff" stroke="none" d="M 516.666687 233.333313 C 553.486694 233.333313 583.333313 203.485657 583.333313 166.666687 C 583.333313 129.847656 553.486694 100 516.666687 100 C 479.84668 100 450 129.847656 450 166.666687 C 450 203.485657 479.84668 233.333313 516.666687 233.333313 Z"/>
    <path id="path2" fill="#ffffff" stroke="none" d="M 350 400 C 350 436.820007 320.152344 466.666656 283.333344 466.666656 C 246.514343 466.666656 216.666672 436.820007 216.666672 400 C 216.666672 363.179993 246.514343 333.333344 283.333344 333.333344 C 320.152344 333.333344 350 363.179993 350 400 Z"/>
    <path id="path3" fill="#ffffff" stroke="none" d="M 516.666687 466.666656 C 553.486694 466.666656 583.333313 436.820007 583.333313 400 C 583.333313 363.179993 553.486694 333.333344 516.666687 333.333344 C 479.84668 333.333344 450 363.179993 450 400 C 450 436.820007 479.84668 466.666656 516.666687 466.666656 Z"/>
    <path id="path4" fill="#ffffff" stroke="none" d="M 350 633.333313 C 350 670.153381 320.152344 700 283.333344 700 C 246.514343 700 216.666672 670.153381 216.666672 633.333313 C 216.666672 596.513306 246.514343 566.666687 283.333344 566.666687 C 320.152344 566.666687 350 596.513306 350 633.333313 Z"/>
    <path id="path5" fill="#ffffff" stroke="none" d="M 516.666687 700 C 553.486694 700 583.333313 670.153381 583.333313 633.333313 C 583.333313 596.513306 553.486694 566.666687 516.666687 566.666687 C 479.84668 566.666687 450 596.513306 450 633.333313 C 450 670.153381 479.84668 700 516.666687 700 Z"/>
</svg>
