<?xml version="1.0" encoding="UTF-8"?>
<!-- Generated by Pixelmator Pro 3.6.8 -->
<svg width="35" height="28" viewBox="0 0 35 28" xmlns="http://www.w3.org/2000/svg">
    <path id="Path" fill="#ea4335" stroke="none" d="M 21.85 7.41 L 22.85 7.41 L 25.700001 4.559999 L 25.84 3.35 C 22.52072 0.420286 17.923937 -0.587799 13.683255 0.683998 C 9.442574 1.955795 6.159208 5.327168 5 9.6 C 5.317503 9.469862 5.669214 9.448759 6 9.540001 L 11.7 8.6 C 11.7 8.6 11.99 8.119999 12.14 8.15 C 14.675503 5.365366 18.942533 5.040844 21.870001 7.41 Z"/>
    <path id="path1" fill="#4285f4" stroke="none" d="M 29.76 9.6 C 29.104914 7.187634 27.759909 5.018944 25.889999 3.360001 L 21.889999 7.360001 C 23.579065 8.740124 24.54118 10.819176 24.5 13 L 24.5 13.71 C 26.466133 13.71 28.059999 15.303866 28.059999 17.27 C 28.059999 19.236134 26.466133 20.83 24.5 20.83 L 17.379999 20.83 L 16.67 21.549999 L 16.67 25.82 L 17.379999 26.530001 L 24.5 26.530001 C 28.58234 26.561783 32.20385 23.916363 33.415119 20.017731 C 34.626389 16.119099 33.141602 11.887197 29.76 9.6 Z"/>
    <path id="path2" fill="#34a853" stroke="none" d="M 10.25 26.49 L 17.370001 26.49 L 17.370001 20.790001 L 10.25 20.790001 C 9.742732 20.789888 9.241413 20.680758 8.78 20.469999 L 7.78 20.780001 L 4.91 23.629999 L 4.66 24.629999 C 6.269432 25.845306 8.233278 26.498751 10.25 26.49 Z"/>
    <path id="path3" fill="#fbbc05" stroke="none" d="M 10.25 8 C 6.295083 8.023624 2.791722 10.556442 1.529536 14.304618 C 0.267349 18.052792 1.524982 22.18886 4.66 24.6 L 8.79 20.469999 C 7.347032 19.818071 6.508074 18.291452 6.731299 16.723864 C 6.954524 15.156274 8.186274 13.924524 9.753863 13.7013 C 11.321453 13.478074 12.848071 14.317032 13.5 15.76 L 17.629999 11.630001 C 15.872787 9.332771 13.142221 7.989689 10.25 8 Z"/>
</svg>
