<?xml version="1.0" encoding="UTF-8"?>
<!-- Generated by Pixelmator Pro 3.6.8 -->
<svg width="45" height="45" viewBox="0 0 45 45" xmlns="http://www.w3.org/2000/svg">
    <path id="Path" fill="#ffffff" stroke="none" d="M 43.6259 0 L 1.38151 0 C 1.01511 0 0.663719 0.145554 0.404635 0.404636 C 0.145552 0.663719 0 1.01511 0 1.381512 L 0 6.117561 C 0 6.48819 0 6.6735 0.072128 6.81506 C 0.135573 6.939579 0.23681 7.04081 0.361329 7.104259 C 0.502888 7.176392 0.688199 7.176392 1.05882 7.176392 L 22.5 7.176392 C 25.2726 7.178268 27.992901 7.932041 30.371099 9.357441 C 32.749298 10.782799 34.6964 12.8265 36.005199 15.2708 C 37.3139 17.7152 37.935299 20.4687 37.803101 23.238199 C 37.702499 25.3473 37.167702 27.4056 36.240101 29.287001 C 35.930099 29.915701 35.775101 30.230101 35.806301 30.4356 C 35.8353 30.626801 35.9235 30.7687 36.082199 30.879299 C 36.252701 30.9981 36.578701 30.9981 37.230598 30.9981 L 43.903702 30.9981 C 44.274399 30.9981 44.459702 30.9981 44.6012 30.926001 C 44.7258 30.862499 44.827 30.761299 44.8904 30.636801 C 44.962601 30.495199 44.962601 30.3099 44.962601 29.939301 L 44.962601 1.381512 C 44.964699 1.022179 44.825901 0.676331 44.576 0.418087 C 44.326199 0.159843 43.9851 0.009758 43.6259 0 Z"/>
    <path id="path1" fill="#ffffff" stroke="none" d="M 7.17639 22.5 C 7.17383 20.137899 7.71857 17.8167 8.75673 15.7146 C 9.06764 15.084999 9.2231 14.770199 9.19201 14.564701 C 9.16306 14.373299 9.07491 14.231499 8.91617 14.1208 C 8.74561 14.0019 8.4192 14.0019 7.76639 14.0019 L 1.05882 14.0019 C 0.6882 14.0019 0.502888 14.0019 0.361329 14.074001 C 0.23681 14.1374 0.135573 14.238701 0.072128 14.363201 C 0 14.504799 0 14.6901 0 15.060699 L 0 43.6259 C -3e-06 43.806999 0.035784 43.986301 0.105303 44.1535 C 0.174821 44.320702 0.276701 44.4725 0.405084 44.600201 C 0.533468 44.727901 0.685824 44.828899 0.853394 44.897499 C 1.02096 44.966202 1.20044 45.000999 1.38151 45 L 43.6259 45 C 43.990299 45 44.339802 44.855202 44.5975 44.5975 C 44.855099 44.339901 44.999901 43.990398 44.999901 43.6259 L 44.999901 38.882401 C 44.999901 38.511799 44.999901 38.3265 44.927799 38.184898 C 44.8643 38.060398 44.7631 37.959202 44.638599 37.895699 C 44.497002 37.823601 44.311699 37.823601 43.941101 37.823601 L 22.5 37.823601 C 18.4359 37.823601 14.5383 36.209099 11.6646 33.3354 C 8.79083 30.4617 7.17639 26.5641 7.17639 22.5 Z"/>
    <path id="path2" fill="#ffffff" fill-rule="evenodd" stroke="none" d="M 29.3627 23.1497 C 30.827499 22.9876 32.265499 22.6388 33.641602 22.1117 L 33.641602 22.059401 C 34.048698 21.933599 34.488499 21.969299 34.8699 22.1591 C 35.251301 22.3489 35.544998 22.6782 35.690102 23.0788 C 35.835098 23.479401 35.8204 23.920401 35.648899 24.3104 C 35.477501 24.700399 35.162498 25.009501 34.769299 25.173401 C 32.765999 25.962999 30.6413 26.400101 28.489 26.4653 L 28.108101 26.4653 C 27.724001 26.9998 27.2665 27.4774 26.749001 27.8841 C 27.6301 28.748501 28.604401 29.5124 29.6539 30.1618 C 30.0243 30.3965 30.286301 30.7687 30.3822 31.196501 C 30.4781 31.6243 30.4002 32.0728 30.165501 32.4431 C 29.930799 32.813499 29.558599 33.0755 29.130699 33.171398 C 28.7029 33.2673 28.254499 33.1894 27.8841 32.9547 C 26.256599 31.9617 24.795 30.7194 23.5529 29.2731 C 23.2043 29.324499 22.852301 29.349501 22.5 29.347799 L 21.8279 29.347799 C 21.880899 29.8983 21.970699 30.4447 22.096701 30.9832 C 22.2012 31.453699 22.335699 31.946501 22.5 32.4767 C 22.584801 32.7822 22.682501 33.053398 22.7866 33.3423 C 22.819901 33.4347 22.853901 33.528999 22.8883 33.626701 C 22.9963 33.922401 23.017099 34.242802 22.948299 34.549999 C 22.879499 34.857101 22.723801 35.138 22.5 35.3592 C 22.33 35.528801 22.126499 35.661098 21.9025 35.747601 C 21.7204 35.812302 21.5284 35.8452 21.334999 35.844601 C 21.000799 35.847198 20.6738 35.7477 20.3976 35.559601 C 20.1215 35.371498 19.909201 35.1036 19.7892 34.791698 C 19.329599 33.567501 18.977301 32.305698 18.7363 31.020599 C 18.5504 30.069 18.4702 29.0998 18.497299 28.1306 C 17.9662 27.7425 17.489 27.2854 17.078501 26.7715 C 16.2237 27.6514 15.472 28.625999 14.8382 29.676399 C 14.6865 29.9095 14.4781 30.1003 14.2326 30.2309 C 13.987 30.3615 13.7123 30.4277 13.4343 30.4231 C 13.1378 30.4242 12.8465 30.345301 12.591 30.194901 C 12.3355 30.044399 12.1253 29.8279 11.9824 29.5681 C 11.8395 29.3083 11.7693 29.0149 11.779 28.7185 C 11.7888 28.422199 11.8782 28.134001 12.0378 27.8841 C 13.0311 26.252501 14.2761 24.7882 15.7268 23.5455 C 15.6729 23.1996 15.6455 22.8501 15.6447 22.5 C 15.6447 22.388 15.654 22.275999 15.6633 22.1639 C 15.6727 22.051901 15.682 21.939899 15.682 21.8279 C 14.1933 21.9951 12.7325 22.354 11.3359 22.8958 C 10.9239 23.046301 10.469 23.027 10.0713 22.8421 C 9.67357 22.657301 9.36557 22.322001 9.21505 21.91 C 9.06453 21.4981 9.08382 21.0432 9.26868 20.6455 C 9.45354 20.247801 9.78882 19.9398 10.2008 19.7892 C 12.3202 18.934799 14.5842 18.496201 16.8694 18.497299 C 17.2533 17.9627 17.7108 17.485001 18.2285 17.078501 C 17.3442 16.2255 16.367399 15.4741 15.3161 14.8382 C 14.9644 14.594799 14.7203 14.224899 14.6349 13.805801 C 14.5496 13.3867 14.6295 12.950798 14.858 12.589199 C 15.0865 12.227699 15.4459 11.968399 15.8611 11.8657 C 16.2763 11.762901 16.7152 11.8246 17.085899 12.0378 C 18.718399 13.0331 20.184799 14.2778 21.4321 15.7269 C 22 15.635201 22.5777 15.620201 23.149599 15.681999 C 23.105 15.1077 23.0252 14.5366 22.9107 13.972 C 22.7987 13.508999 22.6642 13.0086 22.5 12.478401 C 22.387899 12.082699 22.261 11.731701 22.111601 11.335899 C 22.004801 11.038902 21.9846 10.717598 22.0534 10.409599 C 22.122101 10.101501 22.277 9.81934 22.5 9.59594 C 22.669701 9.424332 22.876699 9.294022 23.104799 9.215088 C 23.3088 9.140099 23.525499 9.106121 23.742599 9.115112 C 23.9597 9.124092 24.172899 9.175861 24.370001 9.267448 C 24.566999 9.359039 24.743999 9.488632 24.8909 9.6488 C 25.037701 9.808971 25.151501 9.996571 25.225599 10.200798 C 25.6817 11.426102 26.034 12.687599 26.278601 13.972 C 26.4589 14.9268 26.536501 15.8981 26.510099 16.8694 C 27.046 17.2488 27.524 17.7041 27.9289 18.221001 C 28.7948 17.3414 29.558901 16.366899 30.206499 15.316101 C 30.4412 14.945801 30.8134 14.6838 31.241301 14.5879 C 31.6691 14.492001 32.1175 14.569901 32.4879 14.8046 C 32.858299 15.039299 33.120201 15.411499 33.216202 15.8393 C 33.312099 16.2672 33.2341 16.715599 32.999401 17.086 C 32.006401 18.715599 30.7642 20.1796 29.3179 21.4247 C 29.399401 21.996 29.414499 22.5749 29.3627 23.1497 Z M 26.174 22.7987 L 26.174 22.5 L 26.203899 22.5 C 26.193399 21.814699 25.9944 21.145599 25.628901 20.565901 C 25.5322 20.405199 25.4223 20.2528 25.300301 20.1103 C 24.7897 19.509899 24.102301 19.0865 23.3363 18.9006 C 23.149799 18.8556 22.9601 18.825701 22.768801 18.811001 L 22.4701 18.811001 C 21.787701 18.8125 21.1187 19.001101 20.535999 19.3561 C 20.375601 19.4596 20.2211 19.5718 20.073 19.6922 C 19.4753 20.2038 19.054501 20.891199 18.870701 21.656099 C 18.825701 21.840099 18.795799 22.027399 18.781099 22.2162 L 18.781099 22.5149 C 18.7826 23.1973 18.971201 23.866301 19.3262 24.448999 C 19.4279 24.6106 19.5401 24.765301 19.6623 24.912001 C 19.975901 25.2845 20.3606 25.590599 20.7941 25.812401 C 21.227501 26.034201 21.7008 26.1674 22.1863 26.203899 L 22.485001 26.203899 C 23.1674 26.2024 23.836399 26.0138 24.4191 25.6588 C 24.579901 25.562099 24.732201 25.4522 24.874701 25.3302 C 25.2493 25.016399 25.557301 24.630699 25.7805 24.1959 C 26.0037 23.761101 26.137501 23.285999 26.174 22.7987 Z"/>
</svg>
