<?xml version="1.0" encoding="UTF-8"?>
<!-- Generated by Pixelmator Pro 3.6.8 -->
<svg width="304" height="182" viewBox="0 0 304 182" xmlns="http://www.w3.org/2000/svg">
    <g id="Group">
        <path id="Path" fill="#252f3e" stroke="none" d="M 86.400002 78.400002 C 86.400002 82.099998 86.800003 85.099998 87.5 87.300003 C 88.300003 89.5 89.300003 91.900002 90.699997 94.5 C 91.199997 95.300003 91.400002 96.099998 91.400002 96.800003 C 91.400002 97.800003 90.800003 98.800003 89.5 99.800003 L 83.199997 104 C 82.300003 104.599998 81.400002 104.900002 80.599998 104.900002 C 79.599998 104.900002 78.599998 104.400002 77.599998 103.5 C 76.199997 102 75 100.400002 74 98.800003 C 73 97.099998 72 95.199997 70.900002 92.900002 C 63.099998 102.099998 53.299999 106.699997 41.5 106.699997 C 33.099998 106.699997 26.4 104.300003 21.5 99.5 C 16.6 94.699997 14.1 88.300003 14.1 80.300003 C 14.1 71.800003 17.1 64.899994 23.200001 59.699997 C 29.299999 54.5 37.400002 51.899994 47.700001 51.899994 C 51.099998 51.899994 54.599998 52.199997 58.299999 52.699997 C 62 53.199997 65.800003 54 69.800003 54.899994 L 69.800003 47.600006 C 69.800003 40 68.199997 34.699997 65.099998 31.600006 C 61.900002 28.5 56.5 27 48.799999 27 C 45.299999 27 41.700001 27.399994 38 28.300003 C 34.299999 29.199997 30.700001 30.300003 27.200001 31.699997 C 25.6 32.399994 24.4 32.800003 23.700001 33 C 23 33.199997 22.5 33.300003 22.1 33.300003 C 20.700001 33.300003 20 32.300003 20 30.199997 L 20 25.300003 C 20 23.699997 20.200001 22.5 20.700001 21.800003 C 21.200001 21.100006 22.1 20.399994 23.5 19.699997 C 27 17.899994 31.200001 16.399994 36.099998 15.199997 C 41 13.899994 46.200001 13.300003 51.700001 13.300003 C 63.599998 13.300003 72.300003 16 77.900002 21.399994 C 83.400002 26.800003 86.199997 35 86.199997 46 L 86.199997 78.400002 Z M 45.799999 93.599998 C 49.099998 93.599998 52.5 93 56.099998 91.800003 C 59.700001 90.599998 62.900002 88.400002 65.599998 85.400002 C 67.199997 83.5 68.400002 81.400002 69 79 C 69.599998 76.599998 70 73.699997 70 70.300003 L 70 66.099998 C 67.099998 65.399994 64 64.800003 60.799999 64.399994 C 57.599998 64 54.5 63.800003 51.400002 63.800003 C 44.700001 63.800003 39.799999 65.100006 36.5 67.800003 C 33.200001 70.5 31.6 74.300003 31.6 79.300003 C 31.6 84 32.799999 87.5 35.299999 89.900002 C 37.700001 92.400002 41.200001 93.599998 45.799999 93.599998 Z M 126.099998 104.400002 C 124.300003 104.400002 123.099998 104.099998 122.300003 103.400002 C 121.5 102.800003 120.800003 101.400002 120.199997 99.5 L 96.699997 22.199997 C 96.099998 20.199997 95.800003 18.899994 95.800003 18.199997 C 95.800003 16.600006 96.599998 15.699997 98.199997 15.699997 L 108 15.699997 C 109.900002 15.699997 111.199997 16 111.900002 16.699997 C 112.699997 17.300003 113.300003 18.699997 113.900002 20.600006 L 130.699997 86.800003 L 146.300003 20.600006 C 146.800003 18.600006 147.399994 17.300003 148.199997 16.699997 C 149 16.100006 150.399994 15.699997 152.199997 15.699997 L 160.199997 15.699997 C 162.100006 15.699997 163.399994 16 164.199997 16.699997 C 165 17.300003 165.699997 18.699997 166.100006 20.600006 L 181.899994 87.599998 L 199.199997 20.600006 C 199.800003 18.600006 200.5 17.300003 201.199997 16.699997 C 202 16.100006 203.300003 15.699997 205.100006 15.699997 L 214.399994 15.699997 C 216 15.699997 216.899994 16.5 216.899994 18.199997 C 216.899994 18.699997 216.800003 19.199997 216.699997 19.800003 C 216.600006 20.399994 216.399994 21.199997 216 22.300003 L 191.899994 99.599998 C 191.300003 101.599998 190.600006 102.900002 189.800003 103.5 C 189 104.099998 187.699997 104.5 186 104.5 L 177.399994 104.5 C 175.5 104.5 174.199997 104.199997 173.399994 103.5 C 172.600006 102.800003 171.899994 101.5 171.5 99.5 L 156 35 L 140.600006 99.400002 C 140.100006 101.400002 139.5 102.699997 138.699997 103.400002 C 137.899994 104.099998 136.5 104.400002 134.699997 104.400002 L 126.099998 104.400002 Z M 254.600006 107.099998 C 249.399994 107.099998 244.199997 106.5 239.199997 105.300003 C 234.199997 104.099998 230.300003 102.800003 227.699997 101.300003 C 226.100006 100.400002 225 99.400002 224.600006 98.5 C 224.199997 97.599998 224 96.599998 224 95.699997 L 224 90.599998 C 224 88.5 224.800003 87.5 226.300003 87.5 C 226.899994 87.5 227.5 87.599998 228.100006 87.800003 C 228.699997 88 229.600006 88.400002 230.600006 88.800003 C 234 90.300003 237.699997 91.5 241.600006 92.300003 C 245.600006 93.099998 249.5 93.5 253.5 93.5 C 259.799988 93.5 264.700012 92.400002 268.100006 90.199997 C 271.5 88 273.299988 84.800003 273.299988 80.699997 C 273.299988 77.900002 272.399994 75.599998 270.600006 73.699997 C 268.799988 71.800003 265.399994 70.099998 260.5 68.5 L 246 64 C 238.699997 61.699997 233.300003 58.300003 230 53.800003 C 226.699997 49.399994 225 44.5 225 39.300003 C 225 35.100006 225.899994 31.399994 227.699997 28.199997 C 229.5 25 231.899994 22.199997 234.899994 20 C 237.899994 17.699997 241.300003 16 245.300003 14.800003 C 249.300003 13.600006 253.5 13.100006 257.899994 13.100006 C 260.100006 13.100006 262.399994 13.199997 264.600006 13.5 C 266.899994 13.800003 269 14.199997 271.100006 14.600006 C 273.100006 15.100006 275 15.600006 276.799988 16.199997 C 278.600006 16.800003 280 17.399994 281 18 C 282.399994 18.800003 283.399994 19.600006 284 20.5 C 284.600006 21.300003 284.899994 22.399994 284.899994 23.800003 L 284.899994 28.5 C 284.899994 30.600006 284.100006 31.699997 282.600006 31.699997 C 281.799988 31.699997 280.5 31.300003 278.799988 30.5 C 273.100006 27.899994 266.700012 26.600006 259.600006 26.600006 C 253.899994 26.600006 249.399994 27.5 246.300003 29.399994 C 243.199997 31.300003 241.600006 34.199997 241.600006 38.300003 C 241.600006 41.100006 242.600006 43.5 244.600006 45.399994 C 246.600006 47.300003 250.300003 49.199997 255.600006 50.899994 L 269.799988 55.399994 C 277 57.699997 282.200012 60.899994 285.299988 65 C 288.399994 69.099998 289.899994 73.800003 289.899994 79 C 289.899994 83.300003 289 87.199997 287.299988 90.599998 C 285.5 94 283.100006 97 280 99.400002 C 276.899994 101.900002 273.200012 103.699997 268.899994 105 C 264.399994 106.400002 259.700012 107.099998 254.600006 107.099998 Z"/>
        <g id="g1">
            <path id="path1" fill="#ff9900" fill-rule="evenodd" stroke="none" d="M 273.5 143.699997 C 240.600006 168 192.800003 180.899994 151.699997 180.899994 C 94.099998 180.899994 42.200001 159.600006 3 124.199997 C -0.1 121.400002 2.7 117.599998 6.4 119.800003 C 48.799999 144.399994 101.099998 159.300003 155.199997 159.300003 C 191.699997 159.300003 231.800003 151.699997 268.700012 136.100006 C 274.200012 133.600006 278.899994 139.699997 273.5 143.699997 Z"/>
            <path id="path2" fill="#ff9900" fill-rule="evenodd" stroke="none" d="M 287.200012 128.100006 C 283 122.699997 259.399994 125.5 248.699997 126.800003 C 245.5 127.199997 245 124.400002 247.899994 122.300003 C 266.700012 109.099998 297.600006 112.900002 301.200012 117.300003 C 304.799988 121.800003 300.200012 152.699997 282.600006 167.5 C 279.899994 169.800003 277.299988 168.600006 278.5 165.600006 C 282.5 155.699997 291.399994 133.399994 287.200012 128.100006 Z"/>
        </g>
    </g>
</svg>
