<?xml version="1.0" encoding="UTF-8"?>
<!-- Generated by Pixelmator Pro 3.6.8 -->
<svg width="800" height="800" viewBox="0 0 800 800" xmlns="http://www.w3.org/2000/svg">
    <g id="Group">
        <g id="g1">
            <g id="XML">
                <path id="Path" fill="#ffffff" stroke="none" d="M 302.275452 93 L 207.756454 93 L 200.435669 93 L 195.260666 98.174988 L 123.704681 169.731567 L 118.529686 174.906555 L 118.529686 182.227295 L 118.529686 329.750885 C 118.529686 356.064819 139.936417 377.475433 166.254227 377.475433 L 302.275452 377.475433 C 328.593811 377.475433 350 356.064819 350 329.750885 L 350 140.725098 C 350 114.406738 328.593262 93 302.275452 93 Z M 332.325348 329.750336 C 332.325348 346.350433 318.871674 359.804108 302.275452 359.804108 L 166.254227 359.804108 C 149.654129 359.804108 136.20047 346.350433 136.20047 329.750336 L 136.20047 182.226807 L 182.71489 182.226807 C 196.540817 182.226807 207.756454 171.015564 207.756454 157.185181 L 207.756454 110.670776 L 302.274902 110.670776 C 318.871124 110.670776 332.324799 124.124451 332.324799 140.725098 L 332.324799 329.750336 Z"/>
                <path id="path1" fill="#ffffff" stroke="none" d="M 190.927979 258.430481 L 202.624237 241.372559 C 203.380432 240.24353 203.75325 239.111206 203.75325 237.978271 C 203.75325 235.185242 201.565247 232.997192 198.547134 232.997192 C 196.661377 232.997192 195.152328 233.827271 193.946091 235.638611 L 184.736755 249.224487 L 184.589523 249.224487 L 175.379669 235.638611 C 174.172867 233.827271 172.663818 232.997192 170.77861 232.997192 C 167.760498 232.997192 165.572495 235.185242 165.572495 237.978271 C 165.572495 239.111206 165.944763 240.24353 166.700943 241.372559 L 178.323868 258.430481 L 165.796967 276.842468 C 165.044098 277.975342 164.664063 279.107666 164.664063 280.240601 C 164.664063 283.03363 166.852081 285.22168 169.870728 285.22168 C 171.755936 285.22168 173.268875 284.391602 174.475677 282.579712 L 184.589523 267.635925 L 184.736755 267.635925 L 194.850632 282.579712 C 196.05687 284.391602 197.569809 285.22168 199.455017 285.22168 C 202.473114 285.22168 204.661118 283.03363 204.661118 280.240601 C 204.661118 279.107666 204.284973 277.974792 203.528229 276.842468 L 190.927979 258.430481 Z"/>
                <path id="path2" fill="#ffffff" stroke="none" d="M 253.720261 232.997192 C 250.399353 232.997192 248.587494 234.809082 246.927307 238.734497 L 236.212845 263.485474 L 235.910019 263.485474 L 224.96608 238.734497 C 223.23201 234.808472 221.420151 232.997192 218.099792 232.997192 C 214.40271 232.997192 211.985794 235.565247 211.985794 239.639038 L 211.985794 279.864441 C 211.985794 283.258667 214.100464 285.222229 217.121902 285.222229 C 219.984985 285.222229 222.099106 283.258667 222.099106 279.864441 L 222.099106 255.109558 L 222.4758 255.109558 L 230.474991 273.521545 C 232.061829 277.145264 233.345856 278.204224 235.910019 278.204224 C 238.474182 278.204224 239.758774 277.145264 241.345047 273.521545 L 249.266449 255.109558 L 249.646484 255.109558 L 249.646484 279.864441 C 249.646484 283.258667 251.68338 285.222229 254.701477 285.222229 C 257.719574 285.222229 259.75647 283.258667 259.75647 279.864441 L 259.75647 239.639038 C 259.75647 235.565247 257.417328 232.997192 253.720261 232.997192 Z"/>
                <path id="path3" fill="#ffffff" stroke="none" d="M 299.389038 274.883362 L 281.124298 274.883362 C 280.822052 274.883362 280.666504 274.732239 280.666504 274.429993 L 280.666504 238.882263 C 280.666504 235.336914 278.331238 232.997192 275.157532 232.997192 C 271.914429 232.997192 269.579163 235.336365 269.579163 238.882263 L 269.579163 279.182129 C 269.579163 282.502502 271.767212 284.768311 275.157532 284.768311 L 299.388489 284.768311 C 302.77887 284.768311 304.966858 282.731445 304.966858 279.787231 C 304.967407 276.919678 302.779388 274.883362 299.389038 274.883362 Z"/>
            </g>
            <g id="Group-copy">
                <path id="path4" fill="#ffffff" stroke="none" d="M 633.743286 92.804138 L 539.225525 92.804138 L 531.90155 92.804138 L 526.726074 97.979065 L 455.174927 169.534607 L 450 174.709534 L 450 182.030212 L 450 329.551758 C 450 355.865356 471.406433 377.275665 497.724457 377.275665 L 633.743286 377.275665 C 660.052917 377.275665 681.459412 355.865356 681.459412 329.551758 L 681.459412 140.528564 C 681.459412 114.210571 660.052917 92.804138 633.743286 92.804138 Z M 663.792725 329.551239 C 663.792725 346.151093 650.339233 359.604584 633.743286 359.604584 L 497.724457 359.604584 C 481.120667 359.604584 467.667206 346.151093 467.667206 329.551239 L 467.667206 182.029663 L 514.18042 182.029663 C 528.006714 182.029663 539.225525 170.818604 539.225525 156.988464 L 539.225525 110.47467 L 633.743286 110.47467 C 650.339233 110.47467 663.792725 123.928162 663.792725 140.528564 L 663.792725 329.551239 Z"/>
                <path id="path5" fill="#ffffff" stroke="none" d="M 519.029236 233.253357 L 503.178284 233.253357 C 500.160248 233.253357 498.352295 235.216309 498.352295 238.156555 L 498.352295 279.134888 C 498.352295 282.684082 500.68808 285.023743 503.931152 285.023743 C 507.104218 285.023743 509.439423 282.684631 509.439423 279.134888 L 509.439423 266.685913 C 509.439423 266.383118 509.594452 266.231995 509.897247 266.231995 L 519.029236 266.231995 C 530.194153 266.231995 536.913086 259.439148 536.913086 249.779297 C 536.913696 239.968445 530.271973 233.253357 519.029236 233.253357 Z M 518.346924 256.646118 L 509.897247 256.646118 C 509.594452 256.646118 509.439423 256.494934 509.439423 256.196045 L 509.439423 243.289307 C 509.439423 242.986511 509.594452 242.835938 509.897247 242.835938 L 518.346924 242.835938 C 523.025146 242.835938 525.818176 245.628967 525.818176 249.779907 C 525.818726 253.930298 523.025146 256.646118 518.346924 256.646118 Z"/>
                <path id="path6" fill="#ffffff" stroke="none" d="M 562.502136 233.253357 L 550.352173 233.253357 C 547.334106 233.253357 545.526123 235.216309 545.526123 238.156555 L 545.526123 279.739929 C 545.526123 282.684631 547.333557 284.569824 550.352173 284.569824 L 562.502136 284.569824 C 573.442078 284.569824 580.238831 281.097839 582.954102 272.722046 C 583.931946 269.777344 584.46698 266.231995 584.46698 258.911316 C 584.46698 251.591187 583.931396 248.045288 582.954102 245.101135 C 580.238281 236.725342 573.442078 233.253357 562.502136 233.253357 Z M 572.316956 268.873901 C 571.029053 272.947021 567.335938 274.684998 562.199341 274.684998 L 557.071106 274.684998 C 556.768311 274.684998 556.613281 274.533875 556.613281 274.231628 L 556.613281 243.592102 C 556.613281 243.289307 556.768311 243.138184 557.071106 243.138184 L 562.199341 243.138184 C 567.335938 243.138184 571.029053 244.876099 572.316956 248.949829 C 572.844788 250.687744 573.217041 253.705811 573.217041 258.911865 C 573.217041 264.11792 572.844238 267.135986 572.316956 268.873901 Z"/>
                <path id="path7" fill="#ffffff" stroke="none" d="M 624.161255 233.253357 L 599.263367 233.253357 C 596.2453 233.253357 594.429565 235.216309 594.429565 238.156555 L 594.429565 279.134888 C 594.429565 282.684082 596.773132 285.023743 600.016235 285.023743 C 603.181519 285.023743 605.524536 282.684631 605.524536 279.134888 L 605.524536 264.494019 C 605.524536 264.195129 605.671753 264.044006 605.974548 264.044006 L 620.46814 264.044006 C 623.711182 264.044006 625.596375 262.081604 625.596375 259.288025 C 625.596375 256.494385 623.711182 254.535889 620.46814 254.535889 L 605.974548 254.535889 C 605.671753 254.535889 605.524536 254.384766 605.524536 254.08197 L 605.524536 243.289307 C 605.524536 242.986511 605.671753 242.835938 605.974548 242.835938 L 624.161255 242.835938 C 627.257141 242.835938 629.297852 240.799072 629.297852 238.083801 C 629.297302 235.289673 627.256531 233.253357 624.161255 233.253357 Z"/>
            </g>
        </g>
        <g id="excel-file-svgrepo-com">
            <path id="path8" fill="#ffffff" stroke="none" d="M 531.846436 457.769226 L 431.769226 457.769226 L 431.769226 490.363708 L 464.877075 490.363708 L 464.877075 512.548462 L 431.769226 512.548462 L 431.769226 534.230774 L 464.538452 534.230774 L 464.538452 556.076904 L 431.769226 556.076904 L 431.769226 577.923096 L 464.538452 577.923096 L 464.538452 599.769226 L 431.769226 599.769226 L 431.769226 621.615356 L 464.538452 621.615356 L 464.538452 643.461548 L 431.769226 643.461548 L 431.769226 676.230774 L 531.846436 676.230774 C 536.881958 676.230774 541 671.959839 541 666.727661 L 541 467.272308 C 541 462.040161 536.881958 457.769226 531.846436 457.769226 Z M 519.15387 643.461548 L 475.461548 643.461548 L 475.461548 621.615356 L 519.15387 621.615356 L 519.15387 643.461548 Z M 519.15387 599.769226 L 475.461548 599.769226 L 475.461548 577.923096 L 519.15387 577.923096 L 519.15387 599.769226 Z M 519.15387 556.076904 L 475.461548 556.076904 L 475.461548 534.230774 L 519.15387 534.230774 L 519.15387 556.076904 Z M 519.15387 512.384644 L 475.461548 512.384644 L 475.461548 490.538452 L 519.15387 490.538452 L 519.15387 512.384644 Z"/>
            <path id="path9" fill="#ffffff" stroke="none" d="M 257 456.556793 L 257 677.454163 L 420.846161 709 L 420.846161 425 L 257 456.556793 Z M 360.638153 622.489258 L 341.577393 586.453979 C 340.856476 585.110474 340.113678 582.641846 339.338165 579.048157 L 339.043243 579.048157 C 338.68277 580.741211 337.83078 583.319092 336.487213 586.770752 L 317.360931 622.489258 L 287.661072 622.489258 L 322.920776 567.174805 L 290.664917 511.849396 L 320.987396 511.849396 L 336.804016 545.022766 C 338.0383 547.644287 339.141541 550.757385 340.124603 554.351074 L 340.43045 554.351074 C 341.05307 552.188293 342.210938 548.976929 343.903992 544.705994 L 361.490143 511.83844 L 389.256622 511.83844 L 356.083221 566.694153 L 390.185059 622.478333 L 360.638153 622.489258 L 360.638153 622.489258 Z"/>
        </g>
    </g>
</svg>
