<?xml version="1.0" encoding="UTF-8"?>
<!-- Generated by Pixelmator Pro 3.6.8 -->
<svg width="800" height="800" viewBox="0 0 800 800" xmlns="http://www.w3.org/2000/svg">
    <path id="Path" fill="#ffffff" fill-rule="evenodd" stroke="none" d="M 379.459991 139.578003 C 385.966675 141.540344 392.866669 142.59436 400.016663 142.59436 C 406.416656 142.59436 412.613342 141.75 418.509979 140.166016 L 629.356628 512.906677 C 624.650024 517.453308 620.496704 522.733337 617.080017 528.703369 C 613.630005 534.72998 611.149963 541.056702 609.59668 547.496704 L 190.374329 547.496704 C 188.817322 541.059998 186.335007 534.733337 182.878662 528.703369 C 179.070663 522.126709 174.384338 516.383301 169.056335 511.540009 L 379.459991 139.578003 Z M 348.753326 120.732361 C 349.379974 121.38501 350.019989 122.026001 350.669983 122.654663 L 139.76033 495.506683 C 138.772995 495.23999 137.779999 494.993347 136.781998 494.769989 L 136.781998 305.202332 C 155.470673 300.970337 172.401001 289.242676 182.683334 271.297302 C 192.897339 253.471313 194.606003 233.080017 189.057663 214.843689 L 348.753326 120.732361 Z M 467.796661 92.884338 C 469.943329 86.077026 471.103333 78.824646 471.103333 71.297363 C 471.103333 31.869263 439.32666 0 400.016663 0 C 360.703339 0 328.929993 31.869263 328.929993 71.297363 C 328.929993 78.334656 329.942017 85.131348 331.82901 91.548645 L 171.916992 185.787354 C 167.487335 181.236694 162.374008 177.204651 156.619324 173.851013 C 122.61367 154.239319 79.037331 165.883667 59.488998 200.000305 C 39.941002 234.116638 51.547665 277.834656 85.553337 297.44635 C 91.333336 300.779663 97.389664 303.209991 103.557335 304.78067 L 103.557335 495.266663 C 97.46067 496.83667 91.472 499.253326 85.748665 502.553345 C 51.743 522.369995 40.136333 565.883301 59.684334 600 C 79.232666 634.116699 122.605331 645.76001 156.814667 626.150024 C 162.508331 622.830017 167.574326 618.849976 171.971344 614.356689 L 331.800659 708.546631 C 329.931976 714.936646 328.929993 721.699951 328.929993 728.703308 C 328.929993 768.130005 360.703339 800 400.016663 800 C 439.32666 800 471.103333 767.926636 471.103333 728.703308 C 471.103333 720.41333 469.696686 712.460022 467.113342 705.063293 L 625.473328 611.73999 C 630.41333 617.329956 636.31665 622.223328 643.119995 626.150024 C 677.093323 645.76001 720.626648 634.116699 740.156677 600 C 759.890015 565.883301 748.296692 522.369995 714.119995 502.553345 C 707.676697 498.83667 700.893311 496.240021 693.993286 494.709991 L 693.993286 305.358337 C 701.006653 303.836334 707.903381 301.220001 714.446655 297.44635 C 748.453308 277.63031 760.059998 234.116638 740.51001 200.000305 C 720.76001 165.883667 677.386658 154.239319 643.380005 173.851013 C 637.210022 177.447327 631.776672 181.823975 627.133301 186.78302 L 467.796661 92.884338 Z M 447.799988 124.122681 C 448.653351 123.346008 449.486664 122.548645 450.299988 121.731689 L 610.553345 216.170349 C 605.483337 234.064331 607.350037 253.902344 617.316711 271.297302 C 627.146667 288.455017 643.056702 299.929321 660.769958 304.60199 L 660.769958 495.326691 C 659.90332 495.549988 659.039978 495.793335 658.18335 496.050018 L 447.799988 124.122681 Z M 610.973389 586.079956 L 451.839996 679.859985 C 438.880005 666.033325 420.470001 657.406677 400.016663 657.406677 C 379.823334 657.406677 361.616669 665.81665 348.686676 679.339966 L 189.194 585.349976 C 189.59433 584.046692 189.957672 582.733337 190.283325 581.410034 L 609.66333 581.410034 C 610.049988 582.980042 610.486694 584.539978 610.973389 586.079956 Z"/>
</svg>
