<?xml version="1.0" encoding="UTF-8"?>
<svg width="128px" height="128px" viewBox="0 0 128 128" version="1.1" xmlns="http://www.w3.org/2000/svg" xmlns:xlink="http://www.w3.org/1999/xlink">
    <title>groovy</title>
    <g id="Page-1" stroke="none" stroke-width="1" fill="none" fill-rule="evenodd">
        <g id="groovy" fill-rule="nonzero">
            <g transform="translate(14.162338, 39.162338)">
                <path d="M19.4123816,49.0476337 C19.4123816,48.9168107 21.1706982,46.0246272 23.3197517,42.6205623 C25.4688086,39.2164957 26.9984157,36.3509746 26.7188865,36.2527425 C26.4393556,36.154512 25.4721462,36.331585 24.5695326,36.6462376 C21.8511495,37.5938724 21.2925764,37.3426922 19.2622144,34.2596224 C17.0653556,30.923736 16.9866884,30.5794552 18.1320878,29.3138042 C18.8802631,28.4870899 18.835268,28.2943772 17.6074287,27.0665379 C16.8687777,26.3278854 16.2644271,25.5011013 16.2644271,25.2292392 C16.2644271,24.7719681 11.2333475,22.6985039 3.27911932,19.8775915 C1.47560309,19.237986 1.22124533e-15,18.6066045 1.22124533e-15,18.4745217 C1.22124533e-15,18.3424341 3.81018474,18.3114113 8.46707646,18.4055785 L16.934156,18.5767896 L17.7606608,17.2732165 C21.2535894,11.7641386 26.5284401,6.78811714 28.8754417,6.78811714 C29.3641754,6.78811714 30.3561901,7.25389311 31.0799108,7.82317315 C32.2583946,8.75016714 32.4202517,9.32457445 32.6302258,13.3251159 C32.7591706,15.7819048 33.023768,17.9510915 33.2182095,18.1455363 C33.4126495,18.3399779 34.0295229,18.0847815 34.5890391,17.5784276 C35.3035521,16.9317993 36.0557339,16.7564909 37.1162485,16.9894178 C38.2148784,17.2307181 38.8414271,17.0655461 39.4164725,16.3830168 C40.2790699,15.3592084 44.5960115,8.438666 44.5960115,8.07964928 C44.5960115,7.95763824 45.4507339,6.49567104 46.4953995,4.83083386 C47.5400569,3.16599669 48.7432306,1.24631584 49.1691121,0.564878824 C49.9265115,-0.647004455 50.0451836,-0.50358465 54.5955602,7.12311519 C59.2938086,14.9976548 61.8224547,17.9034 63.0883686,16.8824714 C63.9718102,16.1699892 68.6079384,16.1295591 69.903703,16.8230331 C70.6401722,17.2171776 71.1081121,17.2120104 71.5148784,16.8052376 C72.3590456,15.961072 74.3801089,16.1080996 74.9084043,17.0521175 C75.3246267,17.795861 75.430781,17.795861 76.0480375,17.0521175 C76.4223979,16.6010347 77.5311852,16.2319746 78.5120034,16.2319746 C79.8981787,16.2319746 80.4265099,16.5199081 80.8844108,17.5248918 L81.4735034,18.8178074 L90.5793524,18.4954373 C95.5875699,18.3181289 99.685203,18.2865282 99.685203,18.4252181 C99.685203,18.5638983 95.9666836,20.060275 91.4218248,21.7504957 C86.8769677,23.44071 83.0830261,24.8743675 82.9908443,24.9363918 C82.8986608,24.9984162 83.1042323,26.4774194 83.4476706,28.2230607 C84.3412696,32.7651337 83.758479,35.7921987 81.5115845,38.279236 C80.50363,39.3949227 78.8681787,40.5753318 77.8772453,40.9023675 C76.8863118,41.2294032 76.0755504,41.6144032 76.0755504,41.7579178 C76.0755504,41.9014341 77.1332209,43.653848 78.4259319,45.6521694 C79.7186414,47.6504957 80.5822306,49.2854892 80.3450099,49.2854892 C79.957828,49.2854892 70.5284725,45.6422457 55.8662793,39.8275834 C52.9752079,38.6810607 50.3424433,37.7429909 50.0156933,37.7429909 C49.4063378,37.7429909 44.1444433,39.737572 28.7130586,45.8180006 C19.7641543,49.3441418 19.4123816,49.4662928 19.4123816,49.0476289 L19.4123816,49.0476337 Z M37.7754466,40.7273983 C42.5367274,38.8775509 47.258656,37.0698009 48.2686251,36.7101792 C50.0057485,36.0916418 50.5866738,36.2467165 59.0241349,39.5813383 C63.9296949,41.5200948 68.7696738,43.4085899 69.7796414,43.7779844 C70.7896105,44.147387 72.8710651,44.9501581 74.4050878,45.5619259 C76.154281,46.2594974 77.0483524,46.4274552 76.8029904,46.012387 C74.06213,41.3758399 73.9783475,41.2985623 72.0788297,41.6549113 C69.7876592,42.084736 68.3647112,41.6437912 67.6334254,40.2773886 C67.1592177,39.3913237 67.3039709,38.9579746 68.4864157,37.7237668 C70.2475959,35.8854925 69.9709238,34.1943123 67.700005,32.9167879 C66.8286349,32.4265948 65.72913,31.2148854 65.2566576,30.224098 L64.397617,28.4226662 L62.5558134,29.6725493 C60.2920829,31.2087571 57.5313621,31.2879113 55.2266511,29.8826922 L53.5278069,28.8468724 L51.5540391,30.1882425 C49.5776397,31.5314016 47.3022404,31.7049308 44.9895066,30.6888789 C44.3523345,30.4089454 44.0713524,30.5177506 44.0713524,31.0444113 C44.0713524,31.4618107 43.4700066,32.0773091 42.7350196,32.4121922 C40.5314157,33.4162165 38.3809498,33.1496061 36.9229595,31.6916159 L35.593505,30.3621613 L34.5204823,31.7262896 C33.9303216,32.4765591 32.5643914,33.6478772 31.4850845,34.3292084 C30.1491024,35.1725818 28.4952453,37.2304779 26.3038508,40.776223 C24.533479,43.6407457 23.0849936,46.1301873 23.0849936,46.3083269 C23.0849936,46.48646 24.4425504,46.0603789 26.1017826,45.3614779 C27.761018,44.6625802 33.0141657,42.5772457 37.7754466,40.7273983 Z M78.1597469,38.7373886 C81.7726641,36.7068155 82.6101105,32.9503626 81.0131316,25.9381711 C79.6784888,20.0778448 79.0122388,18.1600428 78.2217453,17.903111 C77.6748264,17.7253464 77.590781,17.9204795 77.8989238,18.6525185 C79.8981381,23.4021467 80.0092534,25.78671 78.2625959,26.4569681 C77.0626754,26.9174259 75.7898053,25.192236 74.788729,21.7486467 C74.0135472,19.0821094 73.2029157,17.8804048 72.5916722,18.4916483 C72.4453134,18.638012 72.7018151,19.4853448 73.1616787,20.374624 C73.6215375,21.2638935 74.2521349,23.9419211 74.563005,26.3257928 C74.8738767,28.7096597 75.4743443,31.2057815 75.8973767,31.8727279 C76.9967242,33.6059438 78.7466105,33.1882474 79.8785164,30.9224292 C80.9976284,28.68221 81.1241073,30.1744081 80.0358703,32.7789259 C78.90588,35.4833691 75.5497631,36.2943172 71.6618151,34.8023707 C71.0395261,34.5635785 70.8289595,34.8107311 70.8289595,35.7798009 C70.8289595,36.4931629 70.3523069,37.6827961 69.7697258,38.4234211 L68.710492,39.7700217 L70.1632209,40.0153513 C72.6712485,40.4389048 76.1101819,39.8893091 78.1597469,38.7373886 Z M26.1521982,34.2670428 C33.6943492,32.0991045 35.0421138,29.5704633 32.5367517,22.2885006 C31.9552826,20.5984373 31.4795391,18.7804308 31.4795391,18.2484779 C31.4795391,16.4372571 30.568578,17.2741905 29.8858492,19.7126711 C28.9829222,22.9376078 26.267156,25.6786662 23.9856608,25.6678074 C22.0042534,25.6583594 21.35863,25.2976646 20.540242,23.7428594 C19.0714953,20.9524665 20.6724969,16.670137 24.7560764,12.4664438 C27.7470358,9.38749831 29.3809027,9.10865724 29.3809027,11.67715 C29.3809027,15.6825396 26.6193216,21.578887 25.164492,20.6797539 C24.4531203,20.2401013 24.5684888,18.2986629 25.3945602,16.807986 C26.0970521,15.5403204 25.9543232,13.6086824 25.1581641,13.6086824 C24.2349677,13.6086824 22.4072761,16.9710136 22.1657647,19.1136727 C21.9522664,21.0078707 22.085755,21.4684535 22.9882517,21.9514519 C26.1509855,23.644098 30.2943086,18.4781646 30.5029969,12.5819974 C30.6125813,9.48570172 30.0132631,8.61428548 28.1037988,9.09353126 C25.3247745,9.79102201 17.8384043,19.4485055 17.8384043,22.3359763 C17.8384043,24.5945477 18.9727177,26.1829373 20.969617,26.7206516 C24.3647777,27.6348756 27.6474401,26.0106045 29.9733995,22.2655574 L30.9509563,20.6915785 L30.9530992,22.8299276 C30.955729,25.9263237 28.9358605,27.5584016 22.5605391,29.6104357 C20.9734466,30.1212798 19.6087014,30.5932944 19.5277793,30.6593594 C19.2322339,30.9006451 22.2367712,35.1197019 22.7041495,35.1197019 C22.9691852,35.1197019 24.5208946,34.7360022 26.1524011,34.2670428 L26.1521982,34.2670428 Z M71.5932469,30.4228594 C72.3503037,29.5863172 72.4837517,28.6775623 72.3214595,25.4637311 C72.1449352,21.9680639 71.951742,21.3503367 70.5907079,19.929723 C68.1314839,17.3628496 65.093755,18.0176646 66.8718459,20.7313691 C67.8170667,22.1739617 68.9701251,21.9275769 68.5628216,20.3700363 C68.238367,19.1293285 68.8436625,19.0967279 69.8985992,20.298085 C71.8779839,22.5522035 71.3783621,25.6758415 69.0384368,25.6758415 C67.4366251,25.6758415 66.9374709,24.9888675 65.8933832,21.3474032 C65.4176381,19.6881711 64.8382469,18.3306126 64.6058394,18.3306126 C63.8316527,18.3306126 63.486867,19.0138561 63.9683053,19.5939892 C64.2298118,19.9091029 64.9540488,22.1737409 65.5777274,24.6265233 C67.1473751,30.7995688 69.3401722,32.912473 71.5932469,30.4228594 Z M41.7602517,30.5209032 C42.083268,30.3041824 42.2309904,29.2791938 42.0976949,28.1795071 C41.8826803,26.4056402 41.7622047,26.2762441 40.8034254,26.7893659 C39.4256121,27.5267474 37.9449206,26.1297052 37.4426754,23.6184892 C37.0616576,21.7133951 36.9450683,21.7508123 39.7195845,22.8877279 C40.0674547,23.0302733 40.9528167,22.5461662 41.6870569,21.8119259 C43.0302517,20.4687311 43.4724498,18.8552717 42.4973751,18.8552717 C42.2088134,18.8552717 41.972716,19.0913691 41.972716,19.3799308 C41.972716,20.1346759 40.5372761,20.0276289 40.2138443,19.2487668 C40.025169,18.7944178 39.6232485,18.9555996 38.9055407,19.7734259 C38.3357599,20.4226922 37.6398378,20.9539097 37.3590456,20.9539097 C37.0782517,20.9539097 36.6990456,20.4226922 36.5163703,19.7734259 C36.1962485,18.6356727 36.1570099,18.6284957 35.4323816,19.5750996 C34.797544,20.4044081 34.791867,20.6685785 35.395919,21.2726013 C36.03563,21.9123155 37.2508134,26.2841305 37.2508134,27.945887 C37.2508134,30.0122295 40.0964839,31.6371727 41.7602777,30.5209032 L41.7602517,30.5209032 Z M51.3289352,27.7814048 C53.3006349,25.8097052 53.8848638,22.8542246 52.8109855,20.284072 C51.9716738,18.2753107 50.5147745,17.5234941 48.4605342,18.0390753 C46.9341332,18.4221776 44.60938,22.8729373 44.6011071,25.4279324 C44.5882826,29.4099162 48.3755764,30.7347587 51.3289352,27.7814048 Z M47.743966,24.6265233 C47.1668394,24.0493967 46.702156,22.9279389 46.7113329,22.1343918 C46.7264953,20.8227604 46.7913897,20.7750574 47.4250001,21.6097328 C48.2082209,22.6415006 49.5999953,22.8202295 50.1331836,21.957512 C50.3270667,21.6438091 50.2229482,21.1243918 49.9018199,20.8032636 C49.0769303,19.978374 49.1768832,18.8552717 50.0751836,18.8552717 C51.0737826,18.8552717 52.4658962,20.8868902 52.4658962,22.3442181 C52.4658962,23.4167409 50.2833638,25.6758415 49.2471884,25.6758415 C48.9975375,25.6758415 48.321091,25.2036467 47.743966,24.6265233 Z M61.761656,27.6433107 C63.9387242,25.2727539 63.7265521,21.6209081 61.2586933,18.9864373 C59.9842501,17.6259503 57.1526901,17.3913854 55.9937826,18.5502944 C54.9243654,19.6197117 53.8566641,23.825137 54.2533248,25.4055558 C55.0993021,28.7762019 59.5131316,30.0916792 61.761656,27.6433107 Z M57.3045699,23.8097847 C56.443169,23.2064341 56.1471982,22.486775 56.171768,21.0553253 C56.1992599,19.4546224 56.2828556,19.3102263 56.6525229,20.2251061 C57.1956608,21.5693139 58.3348151,22.076947 59.3340391,21.4200574 C59.953768,21.01265 59.9248329,20.8200623 59.1552988,20.2302733 C58.129018,19.44371 57.9288248,18.3306126 58.8136349,18.3306126 C59.6048102,18.3306126 62.4344173,21.4258496 62.4344173,22.2912912 C62.4344173,23.13596 60.4251008,24.6265233 59.2864644,24.6265233 C58.837755,24.6265233 57.9458962,24.2589876 57.3045699,23.8097847 Z M88.1427063,21.4901629 L93.6516267,19.4224974 L87.7492112,19.4011905 C82.4668735,19.3821386 81.8475488,19.4763642 81.8539108,20.2980655 C81.8604693,21.1304633 82.3946625,23.5909146 82.5638134,23.5674925 C82.6023232,23.5621516 85.1128021,22.6273561 88.1427063,21.4901418 L88.1427063,21.4901629 Z M16.1470196,21.1201467 L16.7100472,19.4500802 L11.7641284,19.2838399 C9.04387776,19.1924081 6.8187414,19.2623902 6.81939126,19.4393659 C6.82033296,19.6983155 15.3431852,23.0281759 15.5307128,22.8428594 C15.5599904,22.8138983 15.8373556,22.0386841 16.1470196,21.1201467 Z M50.0608508,15.9436938 C51.2242712,16.1297328 52.5364693,16.6059081 52.9768508,17.0018675 C53.6607453,17.616775 53.9582274,17.5748642 55.0161479,16.7145542 C55.6973865,16.1605769 56.5827485,15.7073188 56.9836203,15.7073188 C57.3844953,15.7073188 57.7124871,15.5915591 57.7124871,15.4500672 C57.7124871,14.9615639 50.157367,2.59089182 49.869229,2.60758107 C49.530755,2.62722006 41.7870813,15.6088935 41.5486706,16.5563594 C41.4486154,16.9540087 41.7626381,17.1007928 42.3723134,16.9413594 C42.914255,16.7996386 43.6635732,17.0522782 44.0374547,17.5027815 C44.6438508,18.2334422 44.8915261,18.1752311 46.3313962,16.9636629 C47.6993297,15.8126224 48.2682144,15.6570396 50.0608508,15.9436938 Z" id="path4019" fill="#231F20"></path>
                <path d="M44.5047388,17.9092571 C44.4234482,17.8714146 44.3232388,17.7845834 44.0943816,17.5536808 C43.7840115,17.2405363 43.6606349,17.1494389 43.4026479,17.0429211 C43.0637014,16.9029795 42.6956836,16.8652863 42.3503248,16.9351435 C42.0421949,16.9974698 41.9567615,17.0041808 41.8174644,16.9769941 C41.5849579,16.9316159 41.5022745,16.7904211 41.5681414,16.5512279 C41.6502404,16.2530834 42.2721884,15.0995152 43.5176527,12.9353399 C46.0474742,8.53940026 49.4488605,2.99687104 49.8245618,2.65828435 C49.8661706,2.62078532 49.8675813,2.62078532 49.90938,2.65828435 C50.1330293,2.8589298 51.4477242,4.88651308 53.243854,7.80086519 C55.6735553,11.743236 57.6936949,15.2105591 57.6936949,15.4384795 C57.6936949,15.57765 57.4800456,15.6612311 57.0303979,15.6979681 C56.4715894,15.743624 55.8250764,16.07165 54.9412956,16.7579292 C54.5213086,17.0840623 54.3420651,17.2058724 54.1376235,17.3040948 C53.9672858,17.3859308 53.9530586,17.3892198 53.769354,17.3892198 C53.5885618,17.3892198 53.570229,17.3851776 53.4290569,17.3143367 C53.345919,17.2726126 53.1847891,17.1602295 53.065169,17.0605347 C52.7115196,16.7657928 52.2860813,16.5514211 51.5924466,16.3184503 C50.7109579,16.0223854 49.7670342,15.8446841 48.9633053,15.8234892 C48.3286722,15.8067555 48.036031,15.8637457 47.5548605,16.0977798 C47.1620229,16.288848 46.9726836,16.4245834 46.0735699,17.1597035 C45.1589985,17.9074584 44.834216,18.0626337 44.5047388,17.9092571 Z" id="path4567" fill="#6398AA"></path>
                <path d="M15.1365683,22.756624 C13.48738,22.2759909 7.74968994,20.0099324 6.94648328,19.5220087 C6.83562029,19.4546646 6.82666218,19.4444324 6.85830033,19.4212977 C7.04199562,19.2869779 8.86121965,19.2201597 10.9173962,19.2722133 C11.7374141,19.292973 16.6805975,19.4561792 16.6886462,19.4627604 C16.7048313,19.4759909 15.6299384,22.5940591 15.5473297,22.7735282 C15.5128313,22.8484795 15.4417079,22.8455526 15.1365683,22.756624 Z" id="path4571" fill="#6398AA"></path>
                <path d="M82.5158329,23.4987587 C82.2908004,23.0583578 81.8847144,21.0684552 81.8728492,20.3480152 C81.8682388,20.0681061 81.9031527,19.9539552 82.0287907,19.8381451 C82.316742,19.5727214 82.9020667,19.477236 84.5109612,19.4332198 C85.3232128,19.4109974 89.0729579,19.4075769 91.7205829,19.4266451 L93.5758735,19.4400055 L89.1087144,21.1144 C85.0351884,22.6412506 82.6663881,23.5236954 82.5786966,23.5470136 C82.5567534,23.5528578 82.5348962,23.536072 82.5158329,23.498762 L82.5158329,23.4987587 Z" id="path4573" fill="#6398AA"></path>
                <path d="M23.1641561,46.2591126 C23.1641561,46.133986 23.6949108,45.1985444 25.0398865,42.9527847 C28.2624806,37.5718902 29.7358524,35.6215964 31.5452306,34.3416987 C33.1639433,33.1966711 34.0294498,32.4051078 34.9941576,31.1874243 L35.5889774,30.4366256 L36.3909092,31.2250217 C37.7947793,32.6051987 38.6411203,33.0053269 40.1729173,33.0130607 C42.0463881,33.022525 44.0979969,31.9760315 44.0979969,31.0109519 C44.0979969,30.7934519 44.2528735,30.5690104 44.4029595,30.5690104 C44.4664855,30.5690104 44.8277745,30.6799925 45.2058248,30.8156386 C46.1912014,31.1691938 46.7691819,31.2970477 47.5774352,31.3402571 C48.37938,31.3831289 48.9651754,31.3125948 49.7459693,31.0791516 C50.5131138,30.8497879 50.9549125,30.6150201 52.2781657,29.7335639 C52.9449839,29.2893789 53.5118573,28.9259552 53.5378865,28.9259552 C53.5639141,28.9259552 54.0452469,29.2050071 54.6075131,29.5460704 C55.1697793,29.8871337 55.845406,30.2573253 56.1089076,30.3687181 C57.9057615,31.1283253 59.846643,31.0787668 61.6237225,30.2279048 C61.9415716,30.0757181 62.6899449,29.6222652 63.2867745,29.2202311 C63.8836056,28.818197 64.3803021,28.4985168 64.3905456,28.5098318 C64.4007891,28.5211467 64.6269173,28.9839876 64.8930521,29.5383675 C65.1591884,30.0927474 65.493531,30.7180266 65.6360375,30.9278756 C66.2529222,31.8362815 66.9632907,32.5108967 67.9223086,33.0990834 C68.9095196,33.7045623 69.5184222,34.5092782 69.5812079,35.2914649 C69.643492,36.067387 69.3046998,36.7556516 68.3276543,37.8380899 C67.565078,38.6829259 67.3741966,39.0126678 67.3761722,39.4817441 C67.3781527,39.9513253 67.6523134,40.4928707 68.1342306,40.9791126 C68.9143167,41.766197 70.1384595,41.9998545 71.938669,41.7052798 C72.3403053,41.6395591 72.8469141,41.5855444 73.064466,41.5852506 C73.7601657,41.5842766 74.1851138,41.9255022 74.9950683,43.1353464 C75.5540797,43.9703545 76.7765553,46.0176646 76.7765553,46.1188464 C76.7765553,46.1714552 76.7195017,46.2084698 76.6384108,46.2084698 C76.4677793,46.2084698 75.7255634,46.0065542 75.1883881,45.813999 C74.4824628,45.5609552 65.8909238,42.2417165 63.0539953,41.1260201 C55.4787517,38.146861 52.9845066,37.1954259 51.765591,36.8200315 C50.4483556,36.4143578 49.5512582,36.3191841 48.8229595,36.5078464 C47.9171219,36.742499 35.556617,41.5190282 28.3469125,44.4205006 C24.7866543,45.8532928 24.3408264,46.02371 23.6746462,46.206473 C23.1449336,46.3517993 23.1641561,46.3498074 23.1641561,46.2591126 Z" id="path4575" fill="#6398AA"></path>
            </g>
        </g>
    </g>
</svg>