<svg width="24" height="24" viewBox="0 0 24 24" fill="none" xmlns="http://www.w3.org/2000/svg">
<path d="M11.8808 2.00016C11.0562 2.00395 10.2686 2.07352 9.57565 2.1948C7.53427 2.5515 7.16363 3.29812 7.16363 4.67501V6.49345H11.9877V7.0996H7.16363H5.35321C3.95122 7.0996 2.72359 7.93308 2.3396 9.51864C1.89668 11.3361 1.87703 12.4702 2.3396 14.3678C2.68251 15.7804 3.50142 16.7869 4.90342 16.7869H6.56203V14.607C6.56203 13.0321 7.93968 11.6429 9.57565 11.6429H14.3941C15.7353 11.6429 16.8061 10.5506 16.8061 9.21835V4.67501C16.8061 3.38195 15.7032 2.41061 14.3941 2.1948C13.5654 2.05836 12.7055 1.99637 11.8808 2.00016ZM9.27204 3.46271C9.77032 3.46271 10.1772 3.87176 10.1772 4.37471C10.1772 4.87588 9.77032 5.28116 9.27204 5.28116C8.77196 5.28116 8.36683 4.87588 8.36683 4.37471C8.36683 3.87176 8.77196 3.46271 9.27204 3.46271Z" fill="url(#paint0_linear_1385_11170)"/>
<path d="M17.4081 7.09961V9.21835C17.4081 10.861 16.0001 12.2435 14.3945 12.2435H9.57608C8.25624 12.2435 7.16406 13.3608 7.16406 14.6681V19.2115C7.16406 20.5045 8.30089 21.2651 9.57608 21.6361C11.1031 22.0802 12.5674 22.1604 14.3945 21.6361C15.609 21.2883 16.8065 20.5884 16.8065 19.2115V17.393H11.9881V16.7869H16.8065H19.2185C20.6205 16.7869 21.143 15.8196 21.6305 14.3678C22.1342 12.8732 22.1127 11.4359 21.6305 9.51865C21.2841 8.13819 20.6223 7.09961 19.2185 7.09961H17.4081ZM14.6981 18.6053C15.1982 18.6053 15.6033 19.0106 15.6033 19.5118C15.6033 20.0147 15.1982 20.4238 14.6981 20.4238C14.1998 20.4238 13.7929 20.0147 13.7929 19.5118C13.7929 19.0106 14.1998 18.6053 14.6981 18.6053Z" fill="url(#paint1_linear_1385_11170)"/>
<defs>
<linearGradient id="paint0_linear_1385_11170" x1="2" y1="2" x2="13.0207" y2="11.4949" gradientUnits="userSpaceOnUse">
<stop stop-color="#5A9FD4"/>
<stop offset="1" stop-color="#306998"/>
</linearGradient>
<linearGradient id="paint1_linear_1385_11170" x1="14.5822" y1="19.3589" x2="10.6493" y2="13.7869" gradientUnits="userSpaceOnUse">
<stop stop-color="#FFD43B"/>
<stop offset="1" stop-color="#FFE873"/>
</linearGradient>
</defs>
</svg>
