<?xml version="1.0" encoding="UTF-8"?>
<!-- Generated by Pixelmator Pro 3.6.8 -->
<svg width="94" height="94" viewBox="0 0 94 94" xmlns="http://www.w3.org/2000/svg">
    <path id="Path" fill="#ffffff" stroke="none" d="M 47.5 2 C 72.670212 2 93 22.553192 93 48 C 93 73.446808 72.670212 94 47.5 94 C 22.329786 94 2 73.446808 2 48 C 2 22.553192 22.329786 2 47.5 2"/>
    <path id="distribution" fill="#000000" fill-rule="evenodd" stroke="none" d="M 67.659309 49.613686 L 75.716362 49.613686 L 75.716362 45.835896 L 67.659309 45.835896 L 67.659309 49.613686 Z M 51.545261 49.613686 L 59.602253 49.613686 L 59.602253 45.835896 L 51.545261 45.835896 L 51.545261 49.613686 Z M 35.431152 49.613686 L 43.488209 49.613686 L 43.488209 45.835896 L 35.431152 45.835896 L 35.431152 49.613686 Z M 19.317041 49.613686 L 27.374098 49.613686 L 27.374098 45.835896 L 19.317041 45.835896 L 19.317041 49.613686 Z M 67.659309 42 L 59.602253 42 L 51.545261 42 L 43.488209 42 L 35.431152 42 L 27.374098 42 L 10.486505 42 L 10.486505 53.333374 L 27.374098 53.333374 L 35.431152 53.333374 L 43.488209 53.333374 L 51.545261 53.333374 L 59.602253 53.333374 L 67.659309 53.333374 L 83 53.333374 L 83 42 L 67.659309 42 Z"/>
</svg>
