<?xml version="1.0" encoding="UTF-8"?>
<svg width="91px" height="91px" viewBox="0 0 91 91" version="1.1" xmlns="http://www.w3.org/2000/svg" xmlns:xlink="http://www.w3.org/1999/xlink">
    <title>gradle</title>
    <defs>
        <linearGradient x1="1.63117399%" y1="46.6701915%" x2="98.1086532%" y2="54.3288168%" id="linearGradient-1">
            <stop stop-color="#06A0CE" offset="0%"></stop>
            <stop stop-color="#51CBBF" offset="100%"></stop>
        </linearGradient>
    </defs>
    <g id="Page-1" stroke="none" stroke-width="1" fill="none" fill-rule="evenodd">
        <g id="gradle" fill="url(#linearGradient-1)" fill-rule="nonzero">
            <g id="gradle-elephant-icon-gradient-primary" transform="translate(21.000000, 24.000000)">
                <path d="M48.2271273,2.40268218 C45.1443907,-0.723489986 40.1728939,-0.809922431 36.9862783,2.2072533 C36.8309989,2.35698983 36.7430948,2.56476073 36.7430948,2.78204413 C36.7430948,2.99932754 36.8309989,3.20709844 36.9862783,3.35683496 L37.9612788,4.36846683 C38.2336807,4.6431844 38.6639897,4.67259982 38.970291,4.43744173 C40.9130711,2.86389268 43.7340784,3.12425649 45.364752,5.02761611 C46.9954256,6.93097574 46.8552617,9.79975378 45.0470384,11.5303606 C38.6245059,18.0369928 30.0535712,-0.206868192 10.5989097,9.19670982 C9.93507493,9.52003949 9.43490798,10.1102222 9.21954042,10.8243263 C9.00417285,11.5384303 9.09324609,12.3113297 9.46518819,12.9558419 L12.8039981,18.8014646 C13.5235459,20.0705455 15.1174084,20.5143481 16.3752209,19.7958528 L16.4545814,19.7498695 L16.3922267,19.7958528 L17.8547275,18.968154 C19.5037863,17.9299695 21.0626213,16.751218 22.514323,15.4446862 C22.81117,15.170296 23.260769,15.1556685 23.5743526,15.4101987 L23.5743526,15.4101987 C23.7403522,15.5513601 23.8390076,15.7576785 23.8455041,15.9772585 C23.8520007,16.1968385 23.76572,16.4087826 23.6083643,16.5597804 C22.0804249,17.9553555 20.4339105,19.2113635 18.6880128,20.3131645 L18.6369954,20.3131645 L17.1574888,21.1523591 C16.5326363,21.5081487 15.8277493,21.6942604 15.1111214,21.6926625 C13.6004363,21.6981661 12.2019116,20.8850113 11.4435323,19.5601885 L8.2861178,14.0364486 C2.24905065,18.3933631 -1.45821875,26.7623176 0.548468354,37.3614606 C0.616417173,37.7299123 0.932730911,37.9975965 1.30239317,37.9997457 L4.86227878,37.9997457 C5.26934266,38.0101846 5.61442267,37.6980369 5.65021524,37.2867378 C5.99617301,34.6309993 8.22915416,32.6461942 10.8710029,32.6461942 C13.5128516,32.6461942 15.7458328,34.6309993 16.0917905,37.2867378 C16.1377112,37.6768449 16.4639281,37.9705977 16.851384,37.9707389 L20.3319091,37.9707389 C20.7184044,37.9680481 21.0431985,37.6755765 21.0915025,37.2867378 C21.4374602,34.6309993 23.6704414,32.6461942 26.3122901,32.6461942 C28.9541388,32.6461942 31.18712,34.6309993 31.5330778,37.2867378 C31.5813817,37.6755765 31.9061759,37.9680481 32.2926712,37.9707389 L35.7505219,37.9707389 C36.1719066,37.9707851 36.5152557,37.6277527 36.5214525,37.2005191 C36.600813,32.257318 37.91593,26.5783846 41.6628796,23.7331699 C54.6439912,13.887003 51.2314894,5.44907359 48.2271273,2.40268218 Z M34.9909284,17.272521 L32.5137463,16.0137291 L32.5137463,16.0137291 C32.513098,15.2716752 33.023375,14.6298282 33.7386583,14.4729865 C34.4539415,14.3161447 35.1801618,14.6868622 35.4819375,15.3628873 C35.7837132,16.0389125 35.5791673,16.8368276 34.9909284,17.2782689 L34.9909284,17.272521 Z" id="Shape"></path>
            </g>
        </g>
    </g>
</svg>