<?xml version="1.0" encoding="UTF-8"?>
<svg width="270px" height="359px" viewBox="0 0 270 359" version="1.1" xmlns="http://www.w3.org/2000/svg" xmlns:xlink="http://www.w3.org/1999/xlink">
    <!-- Generator: Sketch 50.2 (55047) - http://www.bohemiancoding.com/sketch -->
    <title>diagramm</title>
    <desc>Created with Sketch.</desc>
    <defs>
        <polygon id="path-1" points="85.5 0 171 54 171 162 85.5 216 7.46069873e-14 162 1.95399252e-14 54"></polygon>
    </defs>
    <g id="Page-1" stroke="none" stroke-width="1" fill="none" fill-rule="evenodd">
        <g id="diagramm">
            <g id="Security" transform="translate(47.000000, 143.000000)">
                <g id="Micronaut_StackLogo_WhiteBLK">
                    <mask id="mask-2" fill="white">
                        <use xlink:href="#path-1"></use>
                    </mask>
                    <use id="Mask" fill="#231F20" xlink:href="#path-1"></use>
                    <g mask="url(#mask-2)">
                        <g transform="translate(7.000000, 34.000000)">
                            <rect id="Rectangle-path" fill="#231F20" fill-rule="nonzero" x="0" y="0" width="158" height="149"></rect>
                            <polygon id="Shape" fill="#FFFFFF" fill-rule="nonzero" points="25.2616071 129 25.2616071 120.72381 25.2026786 120.72381 22.1727679 129 20.6258929 129 17.6352679 120.72381 17.5763393 120.72381 17.5763393 129 16 129 16 119 18.5290179 119 21.4017857 126.938095 21.4803571 126.938095 24.3482143 119 27 119 27 129"></polygon>
                            <polygon id="Shape" fill="#FFFFFF" fill-rule="nonzero" points="36 129 36 119 38 119 38 129"></polygon>
                            <path d="M52.6538711,129.617788 C52.0452598,129.889598 51.3863616,130.019297 50.7239371,129.99768 C50.038818,130.007541 49.359529,129.866109 48.7312803,129.582797 C48.1578363,129.317181 47.6485857,128.922769 47.2404063,128.428123 C46.8295474,127.912996 46.5183053,127.320705 46.3236877,126.683614 C46.1014848,125.978668 45.9922833,125.240763 46.0004237,124.499229 C45.9941712,123.754174 46.1049821,123.013028 46.3285125,122.304847 C46.5368354,121.665009 46.8647278,121.07393 47.2934795,120.565337 C47.701108,120.073461 48.2085348,119.680892 48.7795286,119.415661 C49.3967881,119.129777 50.0672136,118.988132 50.7432364,119.000778 C51.376534,118.993497 52.0063814,119.098308 52.6056227,119.310691 C53.1410817,119.498693 53.6211311,119.825662 54,120.260423 L52.948186,121.165168 C52.6816982,120.858142 52.3518802,120.617247 51.983219,120.460367 C51.6123402,120.305122 51.2156022,120.226993 50.815609,120.230432 C50.3488646,120.218569 49.8875134,120.335904 49.4791297,120.570336 C49.1045276,120.79856 48.785852,121.113317 48.5479366,121.490077 C48.2964841,121.906844 48.1153763,122.364932 48.0123799,122.844695 C47.8843701,123.386119 47.8211721,123.941808 47.8242113,124.499229 C47.8208307,125.053373 47.8840394,125.605799 48.0123799,126.143766 C48.1242444,126.625478 48.3151926,127.083688 48.5768856,127.498384 C48.8229451,127.883084 49.1536757,128.201741 49.5418525,128.428123 C49.9539258,128.662032 50.4182343,128.779272 50.8879815,128.768027 C51.3158992,128.776717 51.7390331,128.67357 52.1183144,128.468111 C52.4516738,128.293478 52.7446419,128.04623 52.977135,127.743315 L53.9903503,128.618069 C53.6236395,129.051816 53.166661,129.393647 52.6538711,129.617788 Z" id="Shape" fill="#FFFFFF" fill-rule="nonzero"></path>
                            <path d="M66.2465209,128.99524 L64.0755467,124.535483 L62.5911199,124.535483 L62.5911199,128.99524 L61,128.99524 L61,119 L64.3167661,119.000054 C64.7663121,118.998107 65.2145851,119.049212 65.6527502,119.152361 C66.0452913,119.238137 66.4183746,119.399655 66.7521537,119.628322 C67.0640081,119.843436 67.3190195,120.134523 67.4943671,120.475534 C67.6850082,120.863178 67.7790418,121.293258 67.7680583,121.727312 C67.7754864,122.092078 67.7058551,122.454171 67.5639496,122.788705 C67.4396081,123.075581 67.2633017,123.33562 67.0444003,123.555003 C66.8385274,123.762462 66.6001835,123.933003 66.3392975,124.059522 C66.1036813,124.173347 65.8539424,124.253422 65.5970842,124.297503 L68,129 L66.2465209,128.99524 Z M66.1351889,121.774908 C66.1479919,121.484737 66.0872576,121.196118 65.9589132,120.937216 C65.8456485,120.728369 65.6868934,120.549192 65.4950298,120.413659 C65.2920728,120.277764 65.0651356,120.183978 64.8270378,120.137601 C64.5765424,120.086356 64.3216942,120.060846 64.0662691,120.061447 L62.6003976,120.061437 L62.6003976,123.545484 L64.1033797,123.545484 C64.6356666,123.568909 65.1591686,123.400529 65.5831677,123.069522 C65.9566634,122.752073 66.1614494,122.271804 66.1351889,121.774908 Z" id="Shape" fill="#FFFFFF" fill-rule="nonzero"></path>
                            <path d="M84.9994386,124.485545 C85.0070375,125.246077 84.9030292,126.003276 84.6910987,126.730314 C84.509925,127.367439 84.2081666,127.959281 83.8040284,128.470134 C83.4141214,128.952309 82.9282461,129.338072 82.380921,129.600017 C81.1764118,130.133328 79.8189392,130.133328 78.61443,129.600017 C78.066461,129.339216 77.580364,128.953277 77.1913226,128.470134 C76.7871844,127.959281 76.485426,127.367439 76.3042523,126.730314 C76.093928,126.00301 75.9915206,125.245817 76.0006561,124.485545 C75.9908974,123.725951 76.090052,122.969159 76.294765,122.240777 C76.4711623,121.606142 76.7681207,121.015919 77.1676042,120.505956 C77.5530092,120.022473 78.0403544,119.640679 78.5907116,119.391071 C79.1908606,119.124362 79.8369294,118.991585 80.4881881,119.001111 C81.1398846,118.986323 81.786986,119.119312 82.3856647,119.391071 C82.9322517,119.647524 83.418234,120.028251 83.8087721,120.505956 C84.2127872,121.015019 84.5145685,121.605205 84.6958423,122.240777 C84.9061666,122.96808 85.0085741,123.725273 84.9994386,124.485545 Z M83.2395291,124.485545 C83.2434733,123.921951 83.1845638,123.359821 83.0640125,122.810718 C82.9628189,122.329291 82.788197,121.868352 82.5469502,121.445859 C82.334191,121.076002 82.0416471,120.764257 81.6930857,120.535953 C81.3411888,120.307926 80.934388,120.191629 80.521394,120.200987 C80.0977783,120.190231 79.6799627,120.306385 79.3164964,120.535953 C78.9650351,120.763763 78.6692991,121.075446 78.4531445,121.445859 C78.2131205,121.867902 78.0415748,122.329185 77.9455695,122.810718 C77.7242372,123.915086 77.7242372,125.056004 77.9455695,126.160372 C78.0415748,126.641906 78.2131205,127.103189 78.4531445,127.525232 C78.6692991,127.895645 78.9650351,128.207327 79.3164964,128.435138 C79.6799627,128.664706 80.0977783,128.78086 80.521394,128.770103 C80.934388,128.779461 81.3411888,128.663164 81.6930857,128.435138 C82.0416471,128.206833 82.334191,127.895088 82.5469502,127.525232 C82.788197,127.102739 82.9628189,126.641799 83.0640125,126.160372 C83.1843053,125.611223 83.2432114,125.049125 83.2395291,124.485545 Z" id="Shape" fill="#FFFFFF" fill-rule="nonzero"></path>
                            <polygon id="Shape" fill="#FFFFFF" fill-rule="nonzero" points="100.316092 129 94.4676724 119.366667 94.4324713 119.366667 94.4324713 129 94 129 94 119 94.704023 119 100.532328 128.619048 100.572557 128.619048 100.572557 119 101 119 101 129"></polygon>
                            <path d="M114.536082,126.142857 L109.525773,126.142857 L108.443299,129 L108,129 L111.680412,119 L112.443299,119 L116,129 L115.561856,129 L114.536082,126.142857 Z M109.628866,125.857143 L114.43299,125.857143 L112.097938,119.190476 L112.020619,119.190476 L109.628866,125.857143 Z" id="Shape" fill="#FFFFFF" fill-rule="nonzero"></path>
                            <path d="M129.827093,126.701134 C129.727579,127.138357 129.531019,127.550701 129.250375,127.910979 C128.970281,128.259847 128.600388,128.53535 128.175806,128.711339 C127.090618,129.09622 125.894339,129.09622 124.809151,128.711339 C124.384001,128.534094 124.012814,128.25889 123.729652,127.910979 C123.454161,127.549013 123.261146,127.137064 123.162793,126.701134 C123.051527,126.210251 122.996986,125.709425 123.000128,125.207439 L123.000128,119.009307 L123.424041,119.009307 L123.424041,125.058535 C123.423184,125.499511 123.459446,125.939853 123.532484,126.375406 C123.594267,126.791596 123.739831,127.192784 123.961326,127.557332 C124.186467,127.912887 124.508082,128.205251 124.892948,128.404224 C125.910775,128.826052 127.069253,128.826052 128.08708,128.404224 C128.471869,128.205954 128.796103,127.9175 129.02856,127.566639 C129.260468,127.208807 129.411506,126.809579 129.47219,126.394019 C129.541867,125.948788 129.576467,125.499292 129.575703,125.049229 L129.575703,119 L129.999616,119 L129.999616,125.198133 C130.005323,125.703813 129.94741,126.208345 129.827093,126.701134 Z" id="Shape" fill="#FFFFFF" fill-rule="nonzero"></path>
                            <polygon id="Shape" fill="#FFFFFF" fill-rule="nonzero" points="141.213922 119.285714 141.213922 129 140.775891 129 140.775891 119.285714 138 119.285714 138 119 144 119 144 119.285714"></polygon>
                            <path d="M95.1116844,63.9484597 C95.6973838,64.1060747 96.3202868,63.8949959 96.6897565,63.4137094 C97.0592262,62.9324229 97.1024465,62.275782 96.7992515,61.7501651 C96.4960565,61.2245483 95.9062006,60.9335455 95.3049016,61.0129342 C94.7036025,61.0923229 94.2093659,61.5264569 94.052795,62.1127761 C93.947839,62.4967796 94.0006901,62.906834 94.1995791,63.2516266 C94.398468,63.5964191 94.7268807,63.8473209 95.1116844,63.9484597 Z" id="Shape" fill="#FFFFFF" fill-rule="nonzero"></path>
                            <path d="M92.8872239,55.9497546 C93.4735431,55.7930482 93.9076771,55.2983841 93.9870658,54.6965648 C94.0664545,54.0947456 93.7754517,53.5043795 93.2498349,53.2009222 C92.724218,52.8974649 92.0675771,52.9407225 91.5862906,53.3105119 C91.1050041,53.6803012 90.8939253,54.303743 91.0515403,54.8899491 C91.2684858,55.6876208 92.0881613,56.1608487 92.8872239,55.9497546 Z" id="Shape" fill="#FFFFFF" fill-rule="nonzero"></path>
                            <path d="M85.4382267,47.4404541 C84.8533453,48.026565 84.8540097,48.9757398 85.4397111,49.5610313 C86.0254125,50.1463229 86.9745875,50.1463229 87.5602889,49.5610313 C88.1459903,48.9757398 88.1466547,48.026565 87.5617733,47.4404541 C87.2803787,47.158468 86.8983705,47 86.5,47 C86.1016295,47 85.7196213,47.158468 85.4382267,47.4404541 Z" id="Shape" fill="#FFFFFF" fill-rule="nonzero"></path>
                            <path d="M79.8849248,45.0504474 C79.084854,44.8383999 78.2641647,45.3142293 78.0509798,46.1137549 C77.8377949,46.9132804 78.3126837,47.7343361 79.1121852,47.9485186 C79.9116868,48.1627012 80.7336442,47.6890643 80.9489641,46.8901107 C81.1625085,46.0884779 80.6864326,45.2653697 79.8849248,45.0504474 Z" id="Shape" fill="#FFFFFF" fill-rule="nonzero"></path>
                            <path d="M71.8872239,50.9487939 C72.4735431,50.7921385 72.9076771,50.2976355 72.9870658,49.6960123 C73.0664545,49.0943891 72.7754517,48.5042152 72.2498349,48.2008567 C71.724218,47.8974983 71.0675771,47.9407419 70.5862906,48.3104107 C70.1050041,48.6800796 69.8939253,49.3033184 70.0515403,49.8893336 C70.2664366,50.6883218 71.0878213,51.1623819 71.8872239,50.9487939 Z" id="Shape" fill="#FFFFFF" fill-rule="nonzero"></path>
                            <path d="M64.4404382,54.4413748 C64.0108283,54.8696151 63.8819453,55.5142471 64.1139331,56.0744501 C64.3459208,56.634653 64.89305,57 65.5,57 C66.10695,57 66.6540792,56.634653 66.8860669,56.0744501 C67.1180547,55.5142471 66.9891717,54.8696151 66.5595618,54.4413748 C66.2794968,54.1589153 65.8980058,54 65.5,54 C65.1019942,54 64.7205032,54.1589153 64.4404382,54.4413748 Z" id="Shape" fill="#FFFFFF" fill-rule="nonzero"></path>
                            <path d="M63.8893336,62.0515403 C63.3033184,61.8939253 62.6800796,62.1050041 62.3104107,62.5862906 C61.9407419,63.0675771 61.8974983,63.724218 62.2008567,64.2498349 C62.5042152,64.7754517 63.0943891,65.0664545 63.6960123,64.9870658 C64.2976355,64.9076771 64.7921385,64.4735431 64.9487939,63.8872239 C65.1623819,63.0878213 64.6883218,62.2664366 63.8893336,62.0515403 Z" id="Shape" fill="#FFFFFF" fill-rule="nonzero"></path>
                            <path d="M66.1127761,69.0512061 C65.5264569,69.2078615 65.0923229,69.7023645 65.0129342,70.3039877 C64.9335455,70.9056109 65.2245483,71.4957848 65.7501651,71.7991433 C66.275782,72.1025017 66.9324229,72.0592581 67.4137094,71.6895893 C67.8949959,71.3199204 68.1060747,70.6966816 67.9484597,70.1106664 C67.7335634,69.3116782 66.9121787,68.8376181 66.1127761,69.0512061 Z" id="Shape" fill="#FFFFFF" fill-rule="nonzero"></path>
                            <path d="M73.5595618,77.5601825 C73.9891717,77.1316816 74.1180547,76.4866572 73.8860669,75.9261133 C73.6540792,75.3655693 73.10695,75 72.5,75 C71.89305,75 71.3459208,75.3655693 71.1139331,75.9261133 C70.8819453,76.4866572 71.0108283,77.1316816 71.4404382,77.5601825 C71.721079,77.841735 72.1023544,78 72.5,78 C72.8976456,78 73.278921,77.841735 73.5595618,77.5601825 Z" id="Shape" fill="#FFFFFF" fill-rule="nonzero"></path>
                            <path d="M79.1106664,79.9484597 C79.6966816,80.1060747 80.3199204,79.8949959 80.6895893,79.4137094 C81.0592581,78.9324229 81.1025017,78.275782 80.7991433,77.7501651 C80.4957848,77.2245483 79.9056109,76.9335455 79.3039877,77.0129342 C78.7023645,77.0923229 78.2078615,77.5264569 78.0512061,78.1127761 C77.8376181,78.9121787 78.3116782,79.7335634 79.1106664,79.9484597 Z" id="Shape" fill="#FFFFFF" fill-rule="nonzero"></path>
                            <path d="M87.1116762,74.0514985 C86.5252058,74.2086713 86.0913456,74.7038756 86.0126856,75.3058769 C85.9340255,75.9078782 86.2260832,76.4979178 86.7524829,76.8004779 C87.2788826,77.1030381 87.9357798,77.0584319 88.4164378,76.687488 C88.8970958,76.3165441 89.1066936,75.6924399 88.94736,75.1065994 C88.7305354,74.309375 87.9097577,73.8376144 87.1116762,74.0514985 Z" id="Shape" fill="#FFFFFF" fill-rule="nonzero"></path>
                            <path d="M94.5595618,71.5617262 C94.9891717,71.1329669 95.1180547,70.4875537 94.8860669,69.9266717 C94.6540792,69.3657898 94.10695,69 93.5,69 C92.89305,69 92.3459208,69.3657898 92.1139331,69.9266717 C91.8819453,70.4875537 92.0108283,71.1329669 92.4404382,71.5617262 C93.0259624,72.1460913 93.9740376,72.1460913 94.5595618,71.5617262 Z" id="Shape" fill="#FFFFFF" fill-rule="nonzero"></path>
                            <path d="M103.503825,61.0649175 C102.438347,60.7877036 101.349181,61.4237536 101.067192,62.4878593 C100.785204,63.551965 101.416475,64.6438217 102.479442,64.9305109 C103.54241,65.2172001 104.637197,64.5908724 104.928651,63.5293195 C105.070279,63.013471 104.999278,62.462389 104.731521,61.9992724 C104.463765,61.5361559 104.021581,61.1996262 103.503825,61.0649175 Z" id="Shape" fill="#FFFFFF" fill-rule="nonzero"></path>
                            <path d="M100.52932,52.9286505 C101.590872,52.6371973 102.2172,51.5424097 101.930511,50.4794424 C101.643822,49.416475 100.551965,48.7852042 99.4878593,49.0671924 C98.4237536,49.3491806 97.7877036,50.438347 98.0649175,51.5038253 C98.1996262,52.0215813 98.5361559,52.4637645 98.9992724,52.7315213 C99.462389,52.999278 100.013471,53.0702787 100.52932,52.9286505 Z" id="Shape" fill="#FFFFFF" fill-rule="nonzero"></path>
                            <path d="M90.5966558,43.4249999 C91.3808225,44.1972495 92.641576,44.1908141 93.4178183,43.4105995 C94.1940606,42.6303849 94.1940606,41.3696151 93.4178183,40.5894005 C92.641576,39.8091859 91.3808225,39.8027505 90.5966558,40.5750001 C90.2149401,40.9509148 90,41.4642587 90,42 C90,42.5357413 90.2149401,43.0490852 90.5966558,43.4249999 Z" id="Shape" fill="#FFFFFF" fill-rule="nonzero"></path>
                            <path d="M79.4974618,40.9354193 C80.5623481,41.2117236 81.6504533,40.5760733 81.9326226,39.5128447 C82.2147919,38.4496161 81.5850383,37.3581739 80.5232448,37.0702156 C79.4614514,36.7822574 78.3664436,37.4059446 78.0726361,38.4660169 C77.9294743,38.9825522 77.9997164,39.534932 78.2676011,39.99921 C78.5354859,40.463488 78.9785809,40.8007861 79.4974618,40.9354193 Z" id="Shape" fill="#FFFFFF" fill-rule="nonzero"></path>
                            <path d="M67.4610887,40.0740083 C66.4000064,40.3710225 65.7791582,41.4705856 66.0728218,42.5327205 C66.3664854,43.5948554 67.4639697,44.2192097 68.5268856,43.9288272 C69.5898015,43.6384448 70.2175021,42.5427801 69.9304752,41.4788321 C69.7914897,40.9636425 69.4523904,40.5253752 68.9886231,40.2615399 C68.5248559,39.9977046 67.9748906,39.9301868 67.4610887,40.0740083 Z" id="Shape" fill="#FFFFFF" fill-rule="nonzero"></path>
                            <path d="M57.5941217,52.4224999 C58.3775712,53.1967949 59.6396227,53.1918504 60.4169811,52.4114405 C61.1943396,51.6310305 61.1943396,50.3689695 60.4169811,49.5885595 C59.6396227,48.8081496 58.3775712,48.8032051 57.5941217,49.5775001 C57.2139536,49.9532259 57,50.465493 57,51 C57,51.534507 57.2139536,52.0467741 57.5941217,52.4224999 Z" id="Shape" fill="#FFFFFF" fill-rule="nonzero"></path>
                            <path d="M55.4974618,64.9354193 C56.5623481,65.2117236 57.6504533,64.5760733 57.9326226,63.5128447 C58.2147919,62.4496161 57.5850383,61.3581739 56.5232448,61.0702156 C55.4614514,60.7822574 54.3664436,61.4059446 54.0726361,62.4660169 C53.9294743,62.9825522 53.9997164,63.534932 54.2676011,63.99921 C54.5354859,64.463488 54.9785809,64.8007861 55.4974618,64.9354193 Z" id="Shape" fill="#FFFFFF" fill-rule="nonzero"></path>
                            <path d="M58.4706805,73.0713495 C57.4091276,73.3628027 56.7827999,74.4575903 57.0694891,75.5205576 C57.3561783,76.583525 58.448035,77.2147958 59.5121407,76.9328076 C60.5762464,76.6508194 61.2122964,75.561653 60.9350825,74.4961747 C60.8003738,73.9784187 60.4638441,73.5362355 60.0007276,73.2684787 C59.537611,73.000722 58.986529,72.9297213 58.4706805,73.0713495 Z" id="Shape" fill="#FFFFFF" fill-rule="nonzero"></path>
                            <path d="M69.4033442,81.5750001 C68.6191775,80.8027505 67.358424,80.8091859 66.5821817,81.5894005 C65.8059394,82.3696151 65.8059394,83.6303849 66.5821817,84.4105995 C67.358424,85.1908141 68.6191775,85.1972495 69.4033442,84.4249999 C69.7850599,84.0490852 70,83.5357413 70,83 C70,82.4642587 69.7850599,81.9509148 69.4033442,81.5750001 Z" id="Shape" fill="#FFFFFF" fill-rule="nonzero"></path>
                            <path d="M80.5038253,84.0649175 C79.438347,83.7877036 78.3491806,84.4237536 78.0671924,85.4878593 C77.7852042,86.551965 78.416475,87.6438217 79.4794424,87.9305109 C80.5424097,88.2172001 81.6371973,87.5908724 81.9286505,86.5293195 C82.0702787,86.013471 81.999278,85.462389 81.7315213,84.9992724 C81.4637645,84.5361559 81.0215813,84.1996262 80.5038253,84.0649175 Z" id="Shape" fill="#FFFFFF" fill-rule="nonzero"></path>
                            <path d="M91.530539,84.9283155 C92.5923515,84.6360682 93.2179808,83.54014 92.9298691,82.4770792 C92.6417573,81.4140184 91.5483843,80.7840884 90.4843479,81.06813 C89.4203115,81.3521715 88.7862425,82.4432374 89.0661411,83.5084907 C89.2019405,84.0253238 89.5389217,84.4662988 90.0019102,84.7330425 C90.4648987,84.9997862 91.0153754,85.0701062 91.530539,84.9283155 Z" id="Shape" fill="#FFFFFF" fill-rule="nonzero"></path>
                            <path d="M101.403344,73.5750001 C100.619178,72.8027505 99.358424,72.8091859 98.5821817,73.5894005 C97.8059394,74.3696151 97.8059394,75.6303849 98.5821817,76.4105995 C99.358424,77.1908141 100.619178,77.1972495 101.403344,76.4249999 C101.78506,76.0490852 102,75.5357413 102,75 C102,74.4642587 101.78506,73.9509148 101.403344,73.5750001 Z" id="Shape" fill="#FFFFFF" fill-rule="nonzero"></path>
                            <path d="M110.848496,68.9135785 C111.82549,69.1771338 112.865034,68.825866 113.481839,68.0237566 C114.098645,67.2216473 114.171072,66.1268806 113.66531,65.2505241 C113.159548,64.3741676 112.175338,63.8890477 111.172136,64.021632 C110.168935,64.1542162 109.344584,64.8783576 109.083913,65.8560067 C108.731787,67.186879 109.51988,68.5524428 110.848496,68.9135785 Z" id="Shape" fill="#FFFFFF" fill-rule="nonzero"></path>
                            <path d="M110.913647,49.8470305 C110.553216,48.515612 109.182117,47.7278012 107.850023,48.086723 C106.517928,48.4456448 105.728474,49.8155988 106.086043,51.1477884 C106.443612,52.479978 107.813015,53.2707318 109.145877,52.914672 C110.481035,52.555241 111.272311,51.1821249 110.913647,49.8470305 Z" id="Shape" fill="#FFFFFF" fill-rule="nonzero"></path>
                            <path d="M100.270399,35.7332249 C99.5553296,35.0176998 98.4794002,34.8033294 97.5445174,35.1901147 C96.6096347,35.5769001 96,36.4886322 96,37.5 C96,38.5113678 96.6096347,39.4230999 97.5445174,39.8098853 C98.4794002,40.1966706 99.5553296,39.9823002 100.270399,39.2667751 C101.2432,38.2896165 101.2432,36.7103835 100.270399,35.7332249 Z" id="Shape" fill="#FFFFFF" fill-rule="nonzero"></path>
                            <path d="M82.8532096,33.9143456 C84.1865091,34.2712725 85.5567967,33.48013 85.9141493,32.1470964 C86.271502,30.8140628 85.480655,29.4437168 84.1475602,29.0860261 C82.8144655,28.7283354 81.4437247,29.5186927 81.0856082,30.8515214 C80.9135032,31.4920574 81.0030806,32.1747266 81.3346138,32.7491933 C81.666147,33.3236599 82.2124473,33.7428123 82.8532096,33.9143456 Z" id="Shape" fill="#FFFFFF" fill-rule="nonzero"></path>
                            <path d="M67.14728,35.9136407 C68.4798593,35.556379 69.2708997,34.1870456 68.9145915,32.8543301 C68.5582832,31.5216146 67.1894049,30.7296354 65.8562974,31.0849214 C64.5231898,31.4402074 63.73012,32.8083665 64.0844519,34.1416088 C64.2538026,34.7838319 64.6723175,35.3320007 65.2472474,35.6646325 C65.8221773,35.9972643 66.5060395,36.0868877 67.14728,35.9136407 Z" id="Shape" fill="#FFFFFF" fill-rule="nonzero"></path>
                            <path d="M55.266003,41.7321773 C54.2900668,40.7559119 52.7078166,40.7559452 51.7319214,41.7322516 C50.7560262,42.7085581 50.7560262,44.2914419 51.7319214,45.2677484 C52.7078166,46.2440548 54.2900668,46.2440881 55.266003,45.2678227 C55.7358739,44.7996065 56,44.163462 56,43.5 C56,42.836538 55.7358739,42.2003935 55.266003,41.7321773 Z" id="Shape" fill="#FFFFFF" fill-rule="nonzero"></path>
                            <path d="M48.1470882,57.0856544 C46.8136625,56.7287275 45.4432453,57.51987 45.0858588,58.8529036 C44.7284723,60.1859372 45.5193942,61.5562832 46.8526151,61.9139739 C48.185836,62.2716646 49.5567064,61.4813073 49.9148567,60.1484786 C50.2704481,58.8149448 49.479844,57.4451493 48.1470882,57.0856544 Z" id="Shape" fill="#FFFFFF" fill-rule="nonzero"></path>
                            <path d="M49.8515214,73.0866808 C48.5186927,73.4447191 47.7283354,74.8151607 48.0860261,76.1479645 C48.4437168,77.4807683 49.8140628,78.2714428 51.1470964,77.9141681 C52.48013,77.5568934 53.2712725,76.1869049 52.9143456,74.8538963 C52.7439505,74.2125625 52.325003,73.665554 51.750195,73.3338962 C51.175387,73.0022384 50.4921038,72.913272 49.8515214,73.0866808 Z" id="Shape" fill="#FFFFFF" fill-rule="nonzero"></path>
                            <path d="M62.266003,86.7321773 C61.2900668,85.7559119 59.7078166,85.7559452 58.7319214,86.7322516 C57.7560262,87.7085581 57.7560262,89.2914419 58.7319214,90.2677484 C59.7078166,91.2440548 61.2900668,91.2440881 62.266003,90.2678227 C62.7358739,89.7996065 63,89.163462 63,88.5 C63,87.836538 62.7358739,87.2003935 62.266003,86.7321773 Z" id="Shape" fill="#FFFFFF" fill-rule="nonzero"></path>
                            <path d="M76.1496204,92.0860977 C75.1732248,91.8231673 74.1346064,92.1744335 73.5181877,92.9760622 C72.9017691,93.7776909 72.8289795,94.871768 73.3337688,95.7480043 C73.838558,96.6242406 74.8214869,97.110025 75.8241071,96.9787826 C76.8267272,96.8475401 77.6515309,96.1251245 77.913821,95.1484779 C78.2717615,93.8156733 77.4820824,92.4449122 76.1496204,92.0860977 Z" id="Shape" fill="#FFFFFF" fill-rule="nonzero"></path>
                            <path d="M91.8515214,89.0856082 C90.5186927,89.4437247 89.7283354,90.8144655 90.0860261,92.1475602 C90.4437168,93.480655 91.8140628,94.271502 93.1470964,93.9141493 C94.48013,93.5567967 95.2712725,92.1865091 94.9143456,90.8532096 C94.7428123,90.2124473 94.3236599,89.666147 93.7491933,89.3346138 C93.1747266,89.0030806 92.4920574,88.9135032 91.8515214,89.0856082 Z" id="Shape" fill="#FFFFFF" fill-rule="nonzero"></path>
                            <path d="M107.267823,83.2694095 C108.244088,82.2926939 108.244055,80.7091803 107.267748,79.7325058 C106.291442,78.7558314 104.708558,78.7558314 103.732252,79.7325058 C102.755945,80.7091803 102.755912,82.2926939 103.732177,83.2694095 C104.709598,84.2435302 106.290402,84.2435302 107.267823,83.2694095 Z" id="Shape" fill="#FFFFFF" fill-rule="nonzero"></path>
                            <path d="M119.775765,70.1026828 C118.175535,69.6745253 116.531138,70.6244235 116.102771,72.2244149 C115.674405,73.8244062 116.624259,75.4686943 118.224404,75.897165 C119.82455,76.3256357 121.469133,75.3760595 121.897813,73.776152 C122.103726,73.0076488 121.99582,72.1888296 121.59784,71.4998895 C121.199861,70.8109493 120.544423,70.3083449 119.775765,70.1026828 Z" id="Shape" fill="#FFFFFF" fill-rule="nonzero"></path>
                            <path d="M119.780776,54.890932 C121.379234,54.4603154 122.326189,52.8170674 121.896449,51.2196095 C121.466709,49.6221517 119.822822,48.6747166 118.2237,49.1028629 C116.624577,49.5310092 115.675081,51.1727922 116.102348,52.7709121 C116.302005,53.543635 116.804305,54.2036589 117.49618,54.6024129 C118.188054,55.0011668 119.011362,55.1051414 119.780776,54.890932 Z" id="Shape" fill="#FFFFFF" fill-rule="nonzero"></path>
                            <path d="M106.879674,36.122314 C108.051537,37.2930792 109.95052,37.292486 111.121652,36.120989 C112.292783,34.949492 112.292783,33.050508 111.121652,31.879011 C109.95052,30.707514 108.051537,30.7069208 106.879674,31.877686 C106.316457,32.4403757 106,33.2038634 106,34 C106,34.7961366 106.316457,35.5596243 106.879674,36.122314 Z" id="Shape" fill="#FFFFFF" fill-rule="nonzero"></path>
                            <path d="M89.223995,26.8973172 C90.8243265,27.3254747 92.4688281,26.3755765 92.897222,24.7755851 C93.3256159,23.1755938 92.3757016,21.5313057 90.775454,21.102835 C89.1752064,20.6743643 87.5305188,21.6239405 87.1018115,23.223848 C86.6759169,24.8238111 87.6250206,26.4666962 89.223995,26.8973172 Z" id="Shape" fill="#FFFFFF" fill-rule="nonzero"></path>
                            <path d="M69.776152,26.8922149 C71.3760595,26.4639418 72.3256357,24.82092 71.897165,23.222293 C71.4686943,21.6236661 69.8244062,20.6747139 68.2244149,21.1026739 C66.6244235,21.530634 65.6745253,23.1734701 66.1026828,24.7721808 C66.3024191,25.5437918 66.8039569,26.2029134 67.4946779,26.6015426 C68.1853989,27.0001718 69.0074172,27.1049014 69.776152,26.8922149 Z" id="Shape" fill="#FFFFFF" fill-rule="nonzero"></path>
                            <path d="M48.8761742,36.1187494 C49.7336093,36.9781883 51.0245186,37.2361482 52.1464123,36.7722347 C53.268306,36.3083213 54,35.2139962 54,34 C54,32.7860038 53.268306,31.6916787 52.1464123,31.2277653 C51.0245186,30.7638518 49.7336093,31.0218117 48.8761742,31.8812506 C47.7079419,33.0522128 47.7079419,34.9477872 48.8761742,36.1187494 Z" id="Shape" fill="#FFFFFF" fill-rule="nonzero"></path>
                            <path d="M40.7721808,49.1026828 C39.1734701,48.6745253 37.530634,49.6244235 37.1026739,51.2244149 C36.6747139,52.8244062 37.6236661,54.4686943 39.222293,54.897165 C40.82092,55.3256357 42.4639418,54.3760595 42.8922149,52.776152 C43.1049014,52.0074172 43.0001718,51.1853989 42.6015426,50.4946779 C42.2029134,49.8039569 41.5437918,49.3024191 40.7721808,49.1026828 Z" id="Shape" fill="#FFFFFF" fill-rule="nonzero"></path>
                            <path d="M39.2224166,70.1081305 C38.0503129,70.4223971 37.1831886,71.4112546 37.0255168,72.6134472 C36.8678451,73.8156398 37.4506893,74.9943186 38.50218,75.5996848 C39.5536706,76.2050511 40.8666492,76.1178391 41.8286724,75.3787293 C42.7906956,74.6396195 43.2122314,73.3942269 42.8966529,72.223469 C42.6957886,71.4526779 42.1936962,70.7946749 41.5029582,70.3970019 C40.8122202,69.9993288 39.9906323,69.89526 39.2224166,70.1081305 Z" id="Shape" fill="#FFFFFF" fill-rule="nonzero"></path>
                            <path d="M53.1203262,89.877686 C51.9484634,88.7069208 50.0494795,88.707514 48.8783484,89.879011 C47.7072172,91.050508 47.7072172,92.949492 48.8783484,94.120989 C50.0494795,95.292486 51.9484634,95.2930792 53.1203262,94.122314 C53.6835434,93.5596243 54,92.7961366 54,92 C54,91.2038634 53.6835434,90.4403757 53.1203262,89.877686 Z" id="Shape" fill="#FFFFFF" fill-rule="nonzero"></path>
                            <path d="M69.7747614,99.1023479 C68.1750101,98.6750809 66.5315513,99.6245773 66.1029679,101.2237 C65.6743845,102.822822 66.6227868,104.466709 68.2218753,104.896449 C69.8209638,105.326189 71.4658892,104.379234 71.8969453,102.780776 C72.3260022,101.179206 71.3762064,99.5329035 69.7747614,99.1023479 Z" id="Shape" fill="#FFFFFF" fill-rule="nonzero"></path>
                            <path d="M89.1984193,99.1042032 C87.6081811,99.5456779 86.6729981,101.19013 87.1056448,102.784197 C87.5382915,104.378264 89.1762116,105.323014 90.7710208,104.898381 C92.36583,104.473748 93.3183181,102.839277 92.9025209,101.240724 C92.4684563,99.6273857 90.8105972,98.6711347 89.1984193,99.1042032 Z" id="Shape" fill="#FFFFFF" fill-rule="nonzero"></path>
                            <path d="M111.122077,89.877686 C109.949814,88.7069208 108.050181,88.707514 106.878649,89.879011 C105.707117,91.050508 105.707117,92.949492 106.878649,94.120989 C108.050181,95.292486 109.949814,95.2930792 111.122077,94.122314 C112.292641,92.9493818 112.292641,91.0506182 111.122077,89.877686 Z" id="Shape" fill="#FFFFFF" fill-rule="nonzero"></path>
                            <path d="M89,64.7880231 C88.2987905,65.4644437 87.6564237,66.1313372 86.9699248,66.7458319 C86.4431604,67.2103101 85.8862808,67.6414997 85.3027133,68.0367472 C84.4813226,68.5768937 83.4369253,68.6840667 82.5174894,68.3225587 C81.7916182,68.1055427 81.2688473,67.4890121 81.1886237,66.755359 C80.2079111,67.5413406 79.2860412,68.4559374 77.8689114,68.5178632 C77.7561295,69.0370874 77.6384439,69.5706022 77.5207584,70.104117 C77.454806,70.3387097 77.4056528,70.5774568 77.3736515,70.8186458 C77.3491337,71.1568561 77.177509,71.2949983 76.8342596,71.3664512 C75.9810396,71.5331745 74.1323962,71.9714188 74,72 C75.0297483,67.3126914 76.0496894,62.6460247 77.0598235,58 L80.2079111,58 C80.0411899,58.7574005 78.5995423,65.421572 78.5897352,65.5120789 C78.5063746,66.3123511 79.0261523,66.7839401 79.8254331,66.5505274 C80.2777032,66.3742393 80.7072245,66.1472271 81.1052632,65.8741068 C81.1690095,65.8407622 81.1886237,65.7169105 81.208238,65.6311671 C81.750899,63.1477827 82.2919255,60.6659862 82.8313174,58.1857775 C82.8313174,58.1238517 82.8705459,58.0619258 82.8901602,58 L85.979405,58 C85.8126839,58.7669275 84.7633213,63.6733583 84.4004577,65.3834638 C84.3718042,65.519749 84.3602783,65.658908 84.3661327,65.7978904 C84.3410683,66.1608996 84.6044741,66.4828174 84.9741746,66.5410003 C85.3203533,66.6393791 85.6925965,66.5999616 86.0088264,66.4314393 C86.347163,66.2460942 86.6745773,66.0425333 86.9895391,65.8217081 C87.321637,65.5829696 87.6347192,65.3202299 87.9261196,65.0357264 C88.2170064,64.7803498 88.6219853,64.6869366 89,64.7880231 Z" id="Shape" fill="#FFFFFF" fill-rule="evenodd"></path>
                        </g>
                    </g>
                </g>
            </g>
            <g id="LDAP">
                <rect id="Rectangle-5" stroke="#979797" fill="#F8E71C" x="0.5" y="0.5" width="99" height="99"></rect>
                <text font-family="FiraSans-Bold, Fira Sans" font-size="32" font-weight="bold" fill="#000000">
                    <tspan x="12.316" y="65">LDAP</tspan>
                </text>
            </g>
            <g id="DB" transform="translate(170.000000, 0.000000)">
                <rect id="Rectangle-5" stroke="#979797" fill="#F8E71C" x="0.5" y="0.5" width="99" height="99"></rect>
                <text font-family="FiraSans-Bold, Fira Sans" font-size="32" font-weight="bold" fill="#000000">
                    <tspan x="30.212" y="65">DB</tspan>
                </text>
            </g>
            <path d="M52.5,105.5 L76.5,161.5" id="Line-2" stroke="#8B572A" stroke-width="5" stroke-linecap="square"></path>
            <path d="M206.5,105.5 L178.5,157.5" id="Line-2" stroke="#8B572A" stroke-width="5" stroke-linecap="square"></path>
        </g>
    </g>
</svg>