<?xml version="1.0" encoding="UTF-8"?>
<!-- Generated by Pixelmator Pro 3.6.8 -->
<svg width="800" height="800" viewBox="0 0 800 800" xmlns="http://www.w3.org/2000/svg">
    <path id="Path" fill="#ffffff" stroke="none" d="M 399.916687 658.333313 L 310.583344 658.333313 C 271.916687 658.333313 238.25 635 224.916672 599 C 211.25 563 221.25 523.333313 250.25 497.666687 L 516.583374 264.666687 C 532.583313 250.666687 532.916687 231.666687 528.25 218.666687 C 523.25 205.666687 510.583344 191.666687 489.25 191.666687 L 399.916687 191.666687 C 386.25 191.666687 374.916687 180.333313 374.916687 166.666687 C 374.916687 153 386.25 141.666687 399.916687 141.666687 L 489.25 141.666687 C 527.916626 141.666687 561.583313 165 574.916626 201 C 588.583313 237 578.583313 276.666687 549.583313 302.333313 L 283.25 535.333313 C 267.25 549.333313 266.916656 568.333313 271.583344 581.333374 C 276.583313 594.333313 289.25 608.333313 310.583344 608.333313 L 399.916687 608.333313 C 413.583344 608.333313 424.916687 619.666687 424.916687 633.333313 C 424.916687 647 413.583344 658.333313 399.916687 658.333313 Z"/>
    <path id="path1" fill="#ffffff" stroke="none" d="M 666.666687 500 L 566.666687 500 C 530 500 500 530 500 566.666687 L 500 666.666687 C 500 703.333374 530 733.333313 566.666687 733.333313 L 666.666687 733.333313 C 703.333374 733.333313 733.333313 703.333374 733.333313 666.666687 L 733.333313 566.666687 C 733.333313 530 703.333374 500 666.666687 500 Z M 617 650 C 598.666626 650 583.666687 635 583.666687 616.666687 C 583.666687 598.333374 598.333374 583.333313 617 583.333313 L 617.333374 583.333313 C 635.666626 583.333313 650.666687 598.333374 650.666687 616.666687 C 650.666687 635 635.666626 650 617 650 Z"/>
    <path id="path2" fill="#ffffff" stroke="none" d="M 182.291672 66.666687 C 117.958328 66.666687 65.625 119 65.625 183.333313 C 65.625 247.666687 117.958328 300 182.291672 300 C 246.625 300 298.958344 247.666687 298.958344 183.333313 C 298.958344 119 246.958328 66.666687 182.291672 66.666687 Z M 183.625 216.666687 C 165.291656 216.666687 150.291672 201.666687 150.291672 183.333313 C 150.291672 165 164.958328 150 183.625 150 L 183.958344 150 C 202.291656 150 217.291672 165 217.291672 183.333313 C 217.291672 201.666687 202.291656 216.666687 183.625 216.666687 Z"/>
</svg>
