<?xml version="1.0" encoding="UTF-8"?>
<!-- Generated by Pixelmator Pro 3.6.8 -->
<svg width="800" height="800" viewBox="0 0 800 800" xmlns="http://www.w3.org/2000/svg">
    <path id="XLS" fill="#ffffff" fill-rule="evenodd" stroke="none" d="M 503.003326 66.666687 L 136.33667 66.666687 L 136.33667 433.333344 L 203.003326 433.333344 L 203.003326 366.666656 L 203.003326 331.666687 L 203.003326 133.333313 L 475.33667 133.333313 L 603.003357 261 L 603.003357 331.666687 L 603.003357 366.666656 L 603.003357 433.333344 L 669.669983 433.333344 L 669.669983 233.333313 L 503.003326 66.666687 L 503.003326 66.666687 Z M 133.707031 700 L 133.707031 500.042511 L 178.722168 500.042511 L 178.722168 664.72168 L 264.660156 664.72168 L 264.660156 700 L 133.707031 700 Z M 373.035156 496.514679 C 404.45639 496.514679 428.539703 506.486664 445.285156 526.430664 C 461.37207 545.528015 469.415527 570.081726 469.415527 600.091797 C 469.415527 632.924133 459.91391 659.030151 440.910645 678.409668 C 424.541504 695.15509 401.916351 703.527832 373.035156 703.527832 C 341.613922 703.527832 317.530609 693.555847 300.785156 673.611816 C 284.698242 654.514465 276.654785 629.584473 276.654785 598.821777 C 276.654785 566.647949 286.156403 540.871216 305.159668 521.491699 C 321.622894 504.840332 344.248047 496.514679 373.035156 496.514679 Z M 372.894043 531.792969 C 356.618988 531.792969 344.059906 538.566406 335.216797 552.113281 C 327.220367 564.343079 323.222168 580.053711 323.222168 599.245117 C 323.222168 621.44696 327.972992 638.662781 337.474609 650.892578 C 346.411774 662.463867 358.265289 668.249512 373.035156 668.249512 C 389.216156 668.249512 401.822266 661.429077 410.853516 647.788086 C 418.849945 635.746399 422.848145 619.847656 422.848145 600.091797 C 422.848145 578.360352 418.097351 561.379761 408.595703 549.149902 C 399.658508 537.578613 387.757965 531.792969 372.894043 531.792969 Z M 671.066406 588.097168 L 671.066406 690.12207 C 659.589172 693.979187 651.498657 696.519226 646.794922 697.742188 C 632.213196 701.599304 616.549622 703.527832 599.804199 703.527832 C 566.877808 703.527832 541.806641 695.249207 524.59082 678.691895 C 505.493469 660.441223 495.944824 634.993774 495.944824 602.349609 C 495.944824 564.813477 507.79834 536.496765 531.505371 517.399414 C 548.721191 503.476257 571.957886 496.514679 601.215332 496.514679 C 626.239441 496.514679 649.523071 501.077332 671.066406 510.202606 L 655.685059 545.339844 C 645.524902 540.259766 636.634766 536.708374 629.014648 534.685791 C 621.394531 532.663208 613.02179 531.651855 603.896484 531.651855 C 582.070984 531.651855 565.98407 538.754578 555.635742 552.959961 C 546.886719 565.001648 542.512207 580.853333 542.512207 600.515137 C 542.512207 624.128052 549.097473 641.908386 562.268066 653.855957 C 572.804504 663.45166 585.881042 668.249512 601.497559 668.249512 C 610.622864 668.249512 619.277832 666.697266 627.462402 663.592773 L 627.462402 623.375488 L 593.030762 623.375488 L 593.030762 588.097168 L 671.066406 588.097168 Z"/>
</svg>
