<?xml version="1.0" encoding="UTF-8"?>
<!-- Generated by Pixelmator Pro 3.6.8 -->
<svg width="800" height="800" viewBox="0 0 800 800" xmlns="http://www.w3.org/2000/svg">
    <path id="Path" fill="#ffffff" stroke="none" d="M 701.299988 0 C 667.175354 0.008606 635.479431 17.655518 617.497192 46.657837 C 599.514954 75.660095 597.801453 111.896973 612.966675 142.466675 L 398.066681 357.366669 C 354.777557 335.861816 302.28302 348.883972 274.063629 388.127716 C 245.844193 427.371429 250.209732 481.280548 284.375916 515.472351 C 318.542114 549.664124 372.447937 554.070007 411.712799 525.880005 C 450.977631 497.689972 464.039093 445.2052 442.566681 401.899994 L 657.466675 187 C 693.928406 205.079407 737.750854 198.907715 767.800964 171.46106 C 797.851074 144.014526 807.958069 100.929199 793.247925 62.982666 C 778.537842 25.036194 742.031311 0.020813 701.333374 0 Z M 354.266663 91.5 C 351.866669 91.5 349.5 91.599976 347.133331 91.633362 C 344.733337 91.700012 342.366669 91.700012 339.966675 91.799988 C 325.06665 92.400024 310.199982 93.93335 295.466675 96.400024 L 294.466644 96.56665 L 288.300018 97.666687 L 284.799988 98.333313 C 281.575989 98.960632 278.364288 99.649658 275.166656 100.400024 L 274.099976 100.666687 C 244.533386 107.558167 215.968674 118.199951 189.099991 132.333313 L 183.933334 135.299988 C 181.833328 136.43335 179.766678 137.633362 177.699997 138.799988 C 176.166656 139.700012 174.599991 140.5 173.033325 141.43335 L 173 141.43335 L 172.666656 141.599976 L 171.466675 142.266663 L 171.466675 142.333313 L 175.166672 148.466675 L 280.166656 322.799988 C 284.270142 320.338928 288.497986 318.091492 292.833313 316.066681 C 309.839661 307.950348 328.281281 303.272003 347.100006 302.300018 C 349.466675 302.166656 351.866669 302.033325 354.233337 302.033325 Z M 368.533325 91.833313 L 368.533325 302.93335 C 379.366638 304.06665 390.100006 306.366669 400.533325 309.899994 L 555.866699 154.56665 C 550.100037 150.56665 544.266663 146.666687 538.266663 143 L 537.399963 142.5 C 535.533325 141.333313 533.666687 140.266663 531.799988 139.166687 L 528.533325 137.299988 L 525.233337 135.466675 C 523.341125 134.429993 521.441101 133.407715 519.533325 132.400024 L 518.633362 131.93335 C 503.322662 123.928711 487.446991 117.05481 471.133331 111.366699 C 448.133331 103.333313 424.366669 97.700012 400.199982 94.533325 L 397.233337 94.133301 L 394.233337 93.799988 C 392.34726 93.56427 390.458221 93.353149 388.56665 93.166687 L 386.933319 93.033325 L 380.133331 92.466675 C 377.303558 92.243835 374.469696 92.077148 371.633331 91.966675 C 370.600006 91.866638 369.56665 91.866638 368.533325 91.833313 Z M 159.400009 149.93335 C 143.289352 160.394165 128.12088 172.239014 114.066666 185.333313 L 262.766663 334.033325 L 263.366669 334.633331 C 265 333.299988 266.633331 332.033356 268.333344 330.766663 L 267.966644 330.166656 Z M 103.73333 195.266663 C 102.066666 196.93335 100.466667 198.700012 98.833328 200.400024 L 93.866669 205.56665 C 82.866669 217.466675 72.866669 229.900024 63.800003 242.833313 L 62.5 244.700012 C 60.033306 248.277588 57.632896 251.900452 55.300003 255.56665 C 21.734312 308.292389 2.755577 368.978333 0.3 431.433319 L 0.1 438.600006 L -0 445.733337 L 210.566666 445.733337 C 210.566666 443.333344 210.800003 440.966675 210.900009 438.600006 C 211.066666 436.200012 211.100006 433.799988 211.333344 431.433319 C 214.03334 404.033356 224.633331 377.266663 243.066666 354.766663 C 244.566666 352.93335 246.266663 351.233337 247.866669 349.433319 C 249.466675 347.699982 250.96666 345.866669 252.666672 344.166656 Z M 645.566711 244.06665 L 490.133362 399.5 C 493.666687 409.899994 495.966644 420.633362 497.133331 431.466675 L 708.200012 431.466675 L 708.066711 428.333344 C 707.811157 423.260162 707.455566 418.192474 707 413.133331 L 706.833313 411.399994 C 706.569336 408.719604 706.280457 406.041718 705.966675 403.366669 L 705.966675 403.066681 L 704.866638 395.066681 L 704.866638 394.766693 C 702.433533 377.937469 698.790771 361.305511 693.966675 345 L 693.866638 344.666687 C 693.107971 342.127502 692.3302 339.594116 691.533325 337.066681 L 691.200012 336.06665 C 690.450684 333.794189 689.68396 331.527466 688.900024 329.266663 L 688.233337 327.433319 C 686.706421 322.869843 685.005188 318.366516 683.133301 313.93335 C 682.139526 311.395111 681.106079 308.872559 680.033325 306.366669 C 679.340881 304.763367 678.640869 303.163361 677.933289 301.56665 L 676.700012 298.866638 C 675.824158 296.960602 674.935242 295.060547 674.033325 293.166656 L 673.233337 291.43335 L 670.033325 284.966675 L 669.56665 284.06665 C 668.347473 281.697876 667.102966 279.342163 665.833374 277 L 665.700012 276.733337 C 659.584656 265.488281 652.863708 254.583374 645.566711 244.06665 Z M 497.900024 445.733337 C 497.900024 448.100006 497.699982 450.466675 497.566681 452.866669 C 497.466675 455.266663 497.399994 457.633331 497.166656 460 C 494.404907 488.141815 483.361847 514.83313 465.43335 536.699951 C 463.93335 538.533325 462.233307 540.266663 460.633331 542.033325 C 459.033325 543.799988 457.533325 545.633301 455.833344 547.333374 L 604.733337 696.233276 C 606.43335 694.533325 608.033325 692.766724 609.666687 691.06665 C 611.333313 689.333374 613 687.633301 614.599976 685.899963 C 625.633301 673.966675 635.699951 661.466675 644.766663 648.5 L 645.833313 646.966675 L 649.099976 642.166626 L 651.93335 637.833374 L 653.266663 635.733337 C 686.779053 583.03833 705.722473 522.400879 708.166687 460 C 708.266663 457.633331 708.300049 455.233307 708.366638 452.866669 C 708.400024 450.5 708.5 448.100006 708.5 445.733337 Z M 0.333333 460 L 0.466667 463.099976 L 0.8 469.06665 L 0.966667 471.600006 L 1.533333 478.466675 L 1.7 480 C 1.933333 482.533325 2.2 485.100006 2.5 487.600006 L 2.6 488.333313 C 2.930762 491.093536 3.29746 493.849335 3.7 496.600006 C 6.1 513.43335 9.766667 530.099976 14.599999 546.5 L 14.666667 546.699951 C 15.400001 549.266724 16.233334 551.833374 17.033333 554.366699 L 17.166666 554.833374 L 17.333332 555.300049 C 18.961187 560.202637 20.661373 565.080933 22.433332 569.93335 L 23.433334 572.599976 L 25.400002 577.533325 C 26.392767 580.083008 27.426235 582.616699 28.5 585.133362 L 30.566666 589.799988 L 31.833332 592.599976 L 34.433334 598.233337 L 35.333332 600.033325 C 37.719376 604.990662 40.220051 609.891968 42.833332 614.733276 L 43.666664 616.166687 L 223.933334 507.566681 L 224.599991 507.166687 C 217.550323 492.323242 213.096954 476.381348 211.433334 460.033325 L 210.599991 460.033325 Z M 17.166666 554.866699 L 10.299999 556.800049 L 10.366667 556.966675 Z M 231.333328 519.799988 L 50.833332 628.533325 C 53.600002 633.166687 56.5 637.633301 59.466667 642.06665 L 59.733334 642.533325 L 59.866669 642.700012 L 60.133335 643.166687 L 60.166664 643.166687 C 60.400002 643.56665 60.633335 643.899963 60.900002 644.233337 L 60.933331 644.300049 L 60.933331 644.333313 C 64.132286 649.045837 67.444366 653.680481 70.866661 658.233337 L 71.066666 658.5 C 74.192284 662.664063 77.415398 666.75415 80.73333 670.766602 L 81.833328 672.099976 C 83.266663 673.833313 84.699997 675.533325 86.166672 677.200012 L 88.066666 679.366699 L 91.799995 683.599976 L 93.933334 685.899963 L 94.899994 686.93335 L 97.666672 689.93335 L 98.833328 691.099976 C 100.466667 692.799988 102.099998 694.533325 103.800003 696.200012 L 252.666672 547.333374 C 249.30397 543.945618 246.132401 540.373474 243.166672 536.633362 C 238.823456 531.305786 234.858231 525.680908 231.300003 519.799988 Z M 445.200012 556.833313 C 443.533325 558.166687 441.866638 559.466675 440.200012 560.699951 L 440.566681 561.300049 L 549.133362 741.533325 C 554.166687 738.233337 559.133362 734.866638 564 731.299988 C 574.5 723.566711 584.666687 715.166687 594.466675 706.100037 L 445.799988 557.43335 Z M 263.300018 556.93335 L 262.799988 557.43335 L 114.133331 706.100037 C 116.271233 708.087219 118.438133 710.042969 120.633331 711.966675 C 121.366669 712.633301 122.066666 713.299988 122.800003 713.900024 L 127.866669 718.233337 C 130.230286 720.197693 132.61937 722.131165 135.03334 724.033325 L 135.800003 724.600037 L 142.166656 729.533325 L 142.433319 729.700012 C 151.366669 736.366638 160.666672 742.666687 170.233322 748.5 L 171.233337 749.099976 L 176.699997 752.333313 L 180.066666 754.233337 C 183.019669 755.962097 186.020874 757.607178 189.066666 759.166626 C 189.333328 759.299988 189.600006 759.5 189.899994 759.599976 C 195.300003 762.433289 200.800003 765.06665 206.333328 767.599976 L 211.600006 754.766663 L 286.366638 573.166626 L 286.666687 572.5 C 278.390198 568.083191 270.56424 562.869629 263.300018 556.93335 Z M 428.333344 568.700012 C 426.299988 569.93335 424.199982 571.033325 422.100006 572.166687 C 388.65506 590.13385 349.465851 594.159363 313.066681 583.366638 C 310.766663 582.700012 308.56665 581.800049 306.300018 581 C 304.06665 580.200012 301.766693 579.533325 299.566681 578.599976 L 224.833328 760.06665 L 221.900009 767.166626 L 219.399994 773.266663 L 219.399994 773.299988 L 219.96666 773.533325 C 220.171738 773.626648 220.383423 773.70459 220.600006 773.766663 L 220.766678 773.866638 C 222.5 774.56665 224.300003 775.200012 226.066666 775.866638 C 228.300003 776.766663 230.5 777.633362 232.733322 778.43335 L 236.133331 779.766663 C 259.533325 788 283.799988 793.766663 308.399994 797.033325 L 311.299988 797.43335 L 314.299988 797.766663 L 320.033325 798.399963 C 322.828796 798.693787 325.629242 798.938293 328.433319 799.133362 C 329.200012 799.166687 330.033325 799.166687 330.799988 799.233337 L 336.933319 799.600037 L 340.666687 799.766663 C 344.641846 799.945313 348.62088 800.023132 352.600006 800 L 354.266663 800 C 374.294159 800.019531 394.287476 798.346924 414.033325 795 L 420.200012 793.866638 L 423.700012 793.200012 L 427.333313 792.43335 L 433.333344 791.099976 L 434.399994 790.833374 C 463.967255 783.94397 492.532227 773.302063 519.399963 759.166626 C 521.133301 758.233337 522.866638 757.166687 524.599976 756.200012 C 526.700012 755.06665 528.766663 753.866638 530.833313 752.699951 C 532.266663 751.899963 533.733276 751.133362 535.166687 750.266663 L 535.200012 750.266663 L 535.266663 750.200012 L 535.333313 750.166626 L 535.400024 750.133301 L 535.633362 750 L 537.033325 749.166687 L 533.366638 743.06665 L 529.700012 736.93335 Z M 537.06665 749.166687 L 535.666626 750 L 537.06665 749.200012 Z M 535.400024 750.133301 L 535.366699 750.133301 L 535.43335 750.133301 Z M 535.233276 750.266663 L 535.166687 750.266663 Z"/>
</svg>
