<?xml version="1.0" encoding="UTF-8"?>
<!-- Generated by Pixelmator Pro 3.6.8 -->
<svg width="800" height="800" viewBox="0 0 800 800" xmlns="http://www.w3.org/2000/svg">
    <path id="Path" fill="#ffffff" stroke="none" d="M 400 25 C 192.893219 25 25 192.893188 25 400 C 25 607.106812 192.893219 775 400 775 C 607.106812 775 775 607.106812 775 400 C 775 192.893188 607.106812 25 400 25 Z M 385.9375 48.015625 L 385.9375 182.924988 C 330.774994 186.784363 191.526566 231.909363 187.448441 385.9375 L 58.757813 385.9375 C 62.489063 127.859375 296.114075 53.581238 385.9375 48.015625 Z M 414.0625 49.381226 C 414.993774 49.628113 415.856262 49.896851 416.59375 50.193726 C 539.75 99.689087 548.359375 389.440643 536.971863 469.024994 L 479.943756 433.3797 C 485.390625 379.6922 478.534363 226.118774 414.0625 188.259399 L 414.0625 49.381226 Z M 64.465622 414.0625 L 198.834366 414.0625 C 229.279678 438.234375 319.662506 468.09845 459.618774 453.84375 L 518.524963 490.66095 C 255.296875 520.359375 95.706245 455.351532 64.46875 414.0625 Z"/>
</svg>
