<?xml version="1.0" encoding="UTF-8"?>
<!-- Generated by Pixelmator Pro 3.6.8 -->
<svg width="800" height="800" viewBox="0 0 800 800" xmlns="http://www.w3.org/2000/svg">
    <g id="Group"/>
    <path id="Path" fill="#ffffff" stroke="none" d="M 591.270325 0 L 325.46405 0 L 304.867188 0 L 290.3125 14.553101 L 89.09375 215.784363 L 74.540627 230.337524 L 74.540627 250.924988 L 74.540627 665.790588 C 74.540627 739.790649 134.740631 800.001526 208.753128 800.001526 L 591.270325 800.001526 C 665.259338 800.001526 725.459412 739.790649 725.459412 665.790588 L 725.459412 134.212524 C 725.459412 60.200012 665.259338 0 591.270325 0 Z M 675.77655 665.789063 C 675.77655 712.471863 637.9422 750.306274 591.270325 750.306274 L 208.753128 750.306274 C 162.059372 750.306274 124.224998 712.471863 124.224998 665.789063 L 124.224998 250.923462 L 255.03125 250.923462 C 293.914063 250.923462 325.46405 219.395325 325.46405 180.501587 L 325.46405 49.693726 L 591.270325 49.693726 C 637.9422 49.693726 675.77655 87.528137 675.77655 134.212524 L 675.77655 665.789063 Z"/>
    <path id="path1" fill="#ffffff" stroke="none" d="M 254.943756 395.609375 C 246.979691 395.609375 241.08905 401.315643 241.08905 410.424988 L 241.08905 447.070313 C 241.08905 447.834412 240.696884 448.217194 239.954681 448.217194 L 197.778137 448.217194 C 197.035934 448.217194 196.643753 447.834412 196.643753 447.070313 L 196.643753 410.424988 C 196.643753 401.314056 190.751572 395.609375 182.787506 395.609375 C 174.628128 395.609375 168.735931 401.315643 168.735931 410.424988 L 168.735931 512.212524 C 168.735931 521.321899 174.431259 527.017151 182.592194 527.017151 C 190.578125 527.017151 196.643753 521.321899 196.643753 512.212524 L 196.643753 474.235901 C 196.643753 473.471893 197.035934 473.089081 197.778137 473.089081 L 239.954681 473.089081 C 240.696884 473.089081 241.08905 473.470306 241.08905 474.235901 L 241.08905 512.212524 C 241.08905 521.321899 246.979691 527.017151 254.943756 527.017151 C 263.104675 527.017151 268.9953 521.321899 268.9953 512.212524 L 268.9953 410.424988 C 268.9953 401.314056 263.104675 395.609375 254.943756 395.609375 Z"/>
    <path id="path2" fill="#ffffff" stroke="none" d="M 367.576538 396.7547 L 293.695313 396.7547 C 285.164063 396.7547 279.643738 401.882782 279.643738 409.290649 C 279.643738 416.501556 285.164063 421.629669 293.695313 421.629669 L 315.535919 421.629669 C 316.298431 421.629669 316.670319 422.010956 316.670319 422.764069 L 316.670319 512.212524 C 316.670319 521.135986 322.5625 527.017151 330.548431 527.017151 C 338.709381 527.017151 344.600006 521.135986 344.600006 512.212524 L 344.600006 422.764069 C 344.600006 422.010956 344.970337 421.629669 345.734375 421.629669 L 367.575012 421.629669 C 376.106232 421.629669 381.626556 416.501556 381.626556 409.290649 C 381.628143 401.881256 376.107819 396.7547 367.576538 396.7547 Z"/>
    <path id="path3" fill="#ffffff" stroke="none" d="M 497.270294 395.609375 C 488.914063 395.609375 484.353119 400.170319 480.185944 410.043762 L 453.217163 472.328125 L 452.453125 472.328125 L 424.917175 410.043762 C 420.551575 400.170319 415.992157 395.609375 407.635925 395.609375 C 398.342194 395.609375 392.253143 402.068756 392.253143 412.323425 L 392.253143 513.543762 C 392.253143 522.085938 397.578125 527.017151 405.171875 527.017151 C 412.393768 527.017151 417.717163 522.085938 417.717163 513.543762 L 417.717163 451.249969 L 418.654694 451.249969 L 438.795319 497.582825 C 442.765625 506.703125 445.995331 509.365601 452.454712 509.365601 C 458.912506 509.365601 462.142181 506.703125 466.135925 497.582825 L 486.079681 451.249969 L 487.018738 451.249969 L 487.018738 513.543762 C 487.018738 522.085938 492.145294 527.017151 499.739075 527.017151 C 507.354675 527.017151 512.482849 522.085938 512.482849 513.543762 L 512.482849 412.323425 C 512.479675 402.0672 506.587494 395.609375 497.270294 395.609375 Z"/>
    <path id="path4" fill="#ffffff" stroke="none" d="M 608.375 501.007782 L 562.424988 501.007782 C 561.66095 501.007782 561.290649 500.626556 561.290649 499.860962 L 561.290649 410.423431 C 561.290649 401.498474 555.399963 395.607819 547.435974 395.607819 C 539.253113 395.607819 533.384399 401.498474 533.384399 410.423431 L 533.384399 511.828125 C 533.384399 520.185913 538.881226 525.879639 547.435974 525.879639 L 608.376526 525.879639 C 616.931274 525.879639 622.429688 520.751587 622.429688 513.345276 C 622.428101 506.134369 616.929688 501.007782 608.375 501.007782 Z"/>
</svg>
